<?xml version="1.0" encoding="UTF-8"?>
<svg version="1.1" xmlns="http://www.w3.org/2000/svg" width="512" height="512">
<path d="M0 0 C0.78153946 -0.0038269 1.56307892 -0.00765381 2.36830139 -0.01159668 C4.01825247 -0.01431382 5.66824676 -0.00696634 7.31811523 0.00976562 C9.83610754 0.03115191 12.35123767 0.00997495 14.86914062 -0.015625 C16.47526669 -0.01298112 18.08139097 -0.0078549 19.6875 0 C20.43660141 -0.00809692 21.18570282 -0.01619385 21.95750427 -0.02453613 C25.36147319 0.03613091 27.81171035 0.48324103 30.87988281 1.97949219 C33.90849299 5.78601378 33.63846317 9.15048271 33.6171875 13.890625 C33.63230881 14.79500305 33.64743011 15.6993811 33.66300964 16.63116455 C33.70593781 19.51477898 33.71472948 22.39734767 33.72265625 25.28125 C33.74579661 27.23830915 33.77116098 29.19534336 33.79882812 31.15234375 C33.86173103 35.94540515 33.89402631 40.73781219 33.91015625 45.53125 C46.07602623 38.25173514 58.23430416 30.96041045 70.34765625 23.59375 C71.26820801 23.03655273 72.18875977 22.47935547 73.13720703 21.90527344 C77.81499364 19.06492979 82.46555862 16.18983862 87.07188416 13.23527527 C89.41897594 11.73164974 91.77422937 10.24106362 94.12991333 8.75094604 C95.80578805 7.68293208 97.46937546 6.59571434 99.13256836 5.50805664 C109.19499452 -0.84745021 109.19499452 -0.84745021 115.91015625 0.53125 C119.21188631 2.03853688 122.15016765 3.94977294 125.16015625 5.96875 C127.02745526 7.1724219 128.89601148 8.37414503 130.765625 9.57421875 C131.75868652 10.21794434 132.75174805 10.86166992 133.77490234 11.52490234 C138.69964166 14.67639803 143.70350133 17.69614315 148.70916748 20.71661377 C151.09050833 22.15425363 153.46873357 23.5970088 155.84710693 25.03955078 C158.26546699 26.50618282 160.68460209 27.97153403 163.10369873 29.43695068 C168.41506983 32.6544245 173.72580785 35.87293933 179.03515625 39.09375 C179.61524445 39.44562378 180.19533264 39.79749756 180.79299927 40.16003418 C190.26163828 45.90542458 199.69867861 51.7011846 209.12597656 57.51416016 C216.9944495 62.36206267 224.8833808 67.17541575 232.78515625 71.96875 C233.36487183 72.32048279 233.9445874 72.67221558 234.54187012 73.03460693 C240.44937941 76.61845215 246.3592444 80.19838875 252.27149963 83.7743988 C264.37341036 91.09522867 276.45746558 98.44370442 288.47265625 105.90625 C289.99004395 106.84331787 289.99004395 106.84331787 291.53808594 107.79931641 C292.4665332 108.37858887 293.39498047 108.95786133 294.3515625 109.5546875 C295.16310791 110.05919434 295.97465332 110.56370117 296.81079102 111.08349609 C298.79326711 112.45064149 300.38928138 113.66568322 301.91015625 115.53125 C302.41015625 118.96875 302.41015625 118.96875 301.91015625 122.53125 C296.91015625 126.53125 296.91015625 126.53125 265.91015625 126.53125 C265.91015625 205.73125 265.91015625 284.93125 265.91015625 366.53125 C270.20015625 366.53125 274.49015625 366.53125 278.91015625 366.53125 C283.41100699 371.03210074 283.41100699 371.03210074 283.41186523 374.70141602 C283.42593666 375.91771446 283.42593666 375.91771446 283.44029236 377.15858459 C283.42344139 378.45873756 283.42344139 378.45873756 283.40625 379.78515625 C283.40770523 380.68241928 283.40916046 381.57968231 283.41065979 382.50413513 C283.40900204 384.39789076 283.39745462 386.29166002 283.37670898 388.18530273 C283.34772362 391.08700605 283.35610828 393.98688572 283.36914062 396.88867188 C283.362904 398.72917556 283.35451366 400.56967347 283.34375 402.41015625 C283.34668564 403.27894913 283.34962128 404.147742 283.35264587 405.04286194 C283.33361961 406.25443214 283.33361961 406.25443214 283.31420898 407.49047852 C283.308806 408.20011246 283.30340302 408.9097464 283.2978363 409.6408844 C282.77552028 412.18774806 281.96650133 412.94875399 279.91015625 414.53125 C277.38657093 414.90729749 277.38657093 414.90729749 274.30195618 414.90877342 C273.12741221 414.91659666 271.95286825 414.92441991 270.74273205 414.93248022 C269.4461583 414.92578805 268.14958456 414.91909589 266.8137207 414.91220093 C265.42733294 414.91565567 264.04094792 414.92041899 262.65456867 414.92638266 C258.83613547 414.93894773 255.01792616 414.93269744 251.19949198 414.92342401 C247.08491375 414.91665628 242.97037493 414.92710339 238.85580444 414.93536377 C230.79191512 414.94872771 222.7281094 414.94581155 214.66421676 414.93712585 C208.11253277 414.93036015 201.56087227 414.92942774 195.00918579 414.9326973 C194.07793705 414.933157 193.14668831 414.93361669 192.18721992 414.93409032 C190.29560971 414.93504947 188.4039995 414.93602211 186.5123893 414.9370081 C168.76040195 414.94556979 151.00846103 414.93571566 133.25648129 414.919607 C118.01308667 414.90620311 102.76976057 414.90853099 87.52636719 414.92236328 C69.83939453 414.93840536 52.15246259 414.94474574 34.46548367 414.93552649 C32.58069802 414.93457081 30.69591237 414.9336277 28.81112671 414.9326973 C27.88369276 414.93223447 26.95625881 414.93177164 26.0007208 414.93129479 C19.45429752 414.92870078 12.9079 414.93308474 6.36148071 414.94013596 C-1.61268882 414.94853593 -9.58676973 414.94630258 -17.56092906 414.93029372 C-21.6321569 414.92239068 -25.70323679 414.91935382 -29.77446365 414.92924118 C-33.49765578 414.93814678 -37.22056209 414.93332415 -40.94372809 414.91730852 C-42.93662547 414.91234242 -44.92954252 414.92219414 -46.92241955 414.93248022 C-48.68423549 414.92074535 -48.68423549 414.92074535 -50.48164368 414.90877342 C-51.49956655 414.90828637 -52.51748941 414.90779931 -53.56625843 414.90729749 C-56.48505079 414.47235894 -57.33471897 413.85030464 -59.08984375 411.53125 C-60.67990906 408.35111937 -60.27401452 404.91154343 -60.29296875 401.41796875 C-60.29866882 400.61140335 -60.3043689 399.80483795 -60.3102417 398.97383118 C-60.3196957 397.26487542 -60.32622727 395.5559014 -60.33007812 393.84692383 C-60.33976695 391.23941959 -60.37077875 388.63270922 -60.40234375 386.02539062 C-60.4088756 384.36458801 -60.41412536 382.70377976 -60.41796875 381.04296875 C-60.43031555 380.26571945 -60.44266235 379.48847015 -60.4553833 378.68766785 C-60.43672091 374.12368087 -59.94730198 371.14742166 -57.08984375 367.53125 C-52.82824993 365.40045309 -46.68220673 366.48622683 -42.08984375 366.53125 C-42.08984375 361.91125 -42.08984375 357.29125 -42.08984375 352.53125 C-43.33376892 352.53569122 -44.57769409 352.54013245 -45.85931396 352.54470825 C-57.57210863 352.58522083 -69.2848891 352.61521831 -80.99773788 352.63487434 C-87.01968044 352.64531934 -93.04156652 352.65949168 -99.06347656 352.68212891 C-104.87303474 352.70383164 -110.68253852 352.71581323 -116.49213409 352.72100449 C-118.71054185 352.72470485 -120.92894658 352.73193058 -123.14733124 352.74271011 C-126.25030492 352.75719075 -129.35305275 352.75922936 -132.45605469 352.75830078 C-133.37674744 352.76549133 -134.29744019 352.77268188 -135.24603271 352.78009033 C-136.09294678 352.777341 -136.93986084 352.77459167 -137.81243896 352.77175903 C-138.91305979 352.77452441 -138.91305979 352.77452441 -140.03591537 352.77734566 C-142.44243557 352.48900348 -144.0340136 351.80239199 -146.08984375 350.53125 C-147.36866408 347.97360934 -147.22147978 346.16429126 -147.23028564 343.29969788 C-147.23599579 342.19061569 -147.24170593 341.08153351 -147.24758911 339.93884277 C-147.24870697 338.71644897 -147.24982483 337.49405518 -147.25097656 336.23461914 C-147.25842392 334.31020241 -147.25842392 334.31020241 -147.26602173 332.34690857 C-147.27915252 328.82214512 -147.28559179 325.29740072 -147.29003239 321.77261662 C-147.29296152 319.57183719 -147.29706598 317.37106299 -147.30153656 315.17028618 C-147.31521218 308.28838629 -147.32487898 301.40649832 -147.32873845 294.52458578 C-147.33322201 286.5730198 -147.3507833 278.62162548 -147.37973905 270.67011172 C-147.40133085 264.52824583 -147.41144136 258.38642834 -147.41277957 252.2445249 C-147.41382924 248.57400668 -147.41977136 244.90364982 -147.43759918 241.23317146 C-147.4570881 237.14109949 -147.45280095 233.04938854 -147.44628906 228.95727539 C-147.46011124 227.12672104 -147.46011124 227.12672104 -147.47421265 225.25918579 C-147.46864349 224.14728378 -147.46307434 223.03538177 -147.45733643 221.88978577 C-147.45880299 220.92173539 -147.46026955 219.95368502 -147.46178055 218.95629978 C-147.08984375 216.53125 -147.08984375 216.53125 -145.75076962 214.71888924 C-143.1063613 212.82801431 -140.71279481 213.17289722 -137.50708008 213.19067383 C-136.8433992 213.19023575 -136.17971832 213.18979767 -135.4959259 213.18934631 C-133.30427536 213.19143481 -131.11339174 213.21476732 -128.921875 213.23828125 C-127.40159015 213.24387702 -125.88129989 213.24814721 -124.36100769 213.25114441 C-120.3610641 213.26259476 -116.36144769 213.29206328 -112.3616333 213.32525635 C-108.27954535 213.35595331 -104.1974045 213.36964893 -100.11523438 213.38476562 C-92.10660401 213.41693312 -84.09830228 213.46970231 -76.08984375 213.53125 C-76.08984375 207.92125 -76.08984375 202.31125 -76.08984375 196.53125 C-103.80984375 196.53125 -131.52984375 196.53125 -160.08984375 196.53125 C-160.08984375 256.26125 -160.08984375 315.99125 -160.08984375 377.53125 C-150.51984375 377.53125 -140.94984375 377.53125 -131.08984375 377.53125 C-125.23280571 381.04547282 -125.23280571 381.04547282 -124.08984375 384.53125 C-123.66702402 388.49974199 -123.76553587 392.4800471 -123.77734375 396.46875 C-123.75317383 398.09586914 -123.75317383 398.09586914 -123.72851562 399.75585938 C-123.72787109 400.80451172 -123.72722656 401.85316406 -123.7265625 402.93359375 C-123.72358154 403.88741943 -123.72060059 404.84124512 -123.7175293 405.82397461 C-124.19841777 409.32074329 -125.57744073 412.01884698 -128.08984375 414.53125 C-130.53811749 414.64219437 -132.95845226 414.68863428 -135.40771484 414.69238281 C-136.17357407 414.69734772 -136.93943329 414.70231262 -137.72850037 414.70742798 C-140.27343632 414.72208667 -142.81830994 414.72885784 -145.36328125 414.734375 C-147.12586469 414.74012356 -148.88844811 414.74588132 -150.65103149 414.75164795 C-154.3516672 414.7621686 -158.05228112 414.76800424 -161.75292969 414.77148438 C-166.50017831 414.77697029 -171.24714027 414.80099582 -175.99429893 414.82945633 C-179.63679857 414.8480597 -183.27922887 414.85328708 -186.921772 414.85482025 C-188.67211092 414.85785271 -190.42244845 414.86590111 -192.17274094 414.87900543 C-194.61977825 414.89601768 -197.06611151 414.89419773 -199.51318359 414.88769531 C-200.23953506 414.8969101 -200.96588654 414.90612488 -201.71424866 414.9156189 C-204.61179492 414.89144007 -206.60696906 414.86117481 -209.03912354 413.19940186 C-210.74930402 410.48427303 -210.47951222 407.94812425 -210.48828125 404.78125 C-210.49115143 404.12672852 -210.49402161 403.47220703 -210.49697876 402.79785156 C-210.49901743 401.41600681 -210.49350121 400.03413307 -210.48095703 398.65234375 C-210.46489811 396.5384055 -210.48080976 394.42637887 -210.5 392.3125 C-210.49801753 390.96874578 -210.49417377 389.62499276 -210.48828125 388.28125 C-210.48489746 387.05921875 -210.48151367 385.8371875 -210.47802734 384.578125 C-210.08984375 381.53125 -210.08984375 381.53125 -208.81494141 379.671875 C-205.02122021 377.16348759 -201.00607984 377.41344893 -196.57421875 377.43359375 C-195.32382813 377.43681641 -194.0734375 377.44003906 -192.78515625 377.44335938 C-191.48320312 377.45173828 -190.18125 377.46011719 -188.83984375 377.46875 C-186.86371094 377.47551758 -186.86371094 377.47551758 -184.84765625 377.48242188 C-181.59500634 377.49420684 -178.34244791 377.51065989 -175.08984375 377.53125 C-175.09445271 376.3762692 -175.09906168 375.22128839 -175.10381031 374.03130817 C-175.21208038 346.61944293 -175.29453663 319.20760095 -175.3451704 291.79556583 C-175.35142399 288.42222255 -175.3578956 285.04887972 -175.36450195 281.67553711 C-175.36581351 281.00396034 -175.36712506 280.33238357 -175.36847635 279.64045598 C-175.3902378 268.76383293 -175.42966331 257.88734189 -175.47560773 247.01079718 C-175.52235193 235.85191851 -175.54976051 224.69308507 -175.56028622 213.53410739 C-175.56681328 207.26560077 -175.58218823 200.99739368 -175.61849403 194.72898293 C-175.65237498 188.83158119 -175.66291252 182.93460301 -175.65538216 177.03711319 C-175.65676022 174.87030042 -175.66673934 172.70347381 -175.68587112 170.53674507 C-175.71068517 167.5821039 -175.70479106 164.6290697 -175.69111633 161.6743927 C-175.70568054 160.81349354 -175.72024475 159.95259438 -175.73525029 159.06560737 C-175.68108457 154.74704083 -175.45805313 153.02061695 -172.77882671 149.45980358 C-170.08984375 147.53125 -170.08984375 147.53125 -166.46484375 147.53125 C-161.93938293 148.87212728 -161.93938293 148.87212728 -160.08984375 151.53125 C-159.74926758 154.7175293 -159.74926758 154.7175293 -159.796875 158.60546875 C-159.80111984 159.2893013 -159.80536469 159.97313385 -159.80973816 160.6776886 C-159.82651022 162.85844561 -159.86415718 165.03827309 -159.90234375 167.21875 C-159.91739261 168.69855435 -159.93108067 170.1783732 -159.94335938 171.65820312 C-159.97640806 175.28285336 -160.02817929 178.90696094 -160.08984375 182.53125 C-159.52054484 182.52848462 -158.95124594 182.52571924 -158.36469555 182.52287006 C-144.5189865 182.45664676 -130.67330516 182.4071787 -116.82747173 182.37581348 C-110.13174532 182.36013698 -103.4361366 182.33923493 -96.74047852 182.30493164 C-90.28253364 182.27240923 -83.82469867 182.25441195 -77.36667824 182.24661827 C-74.89902833 182.24106197 -72.43138465 182.23021235 -69.96378136 182.21405983 C-66.51567819 182.19238052 -63.06803306 182.18927914 -59.61987305 182.19067383 C-58.07915382 182.17449509 -58.07915382 182.17449509 -56.50730896 182.1579895 C-55.56921387 182.16211349 -54.63111877 182.16623749 -53.66459656 182.17048645 C-52.84880977 182.16772107 -52.03302298 182.16495569 -51.19251537 182.16210651 C-48.57775879 182.62115126 -47.69708849 183.45756513 -46.08984375 185.53125 C-45.69140625 187.46875 -45.69140625 187.46875 -45.71484375 189.53125 C-45.70710937 190.211875 -45.699375 190.8925 -45.69140625 191.59375 C-46.22756942 194.20097482 -46.88194263 195.03617231 -49.08984375 196.53125 C-53.12243452 196.93612859 -57.0269728 196.66231035 -61.08984375 196.53125 C-61.08984375 202.14125 -61.08984375 207.75125 -61.08984375 213.53125 C-54.81984375 213.53125 -48.54984375 213.53125 -42.08984375 213.53125 C-42.08984375 184.82125 -42.08984375 156.11125 -42.08984375 126.53125 C-52.64984375 126.53125 -63.20984375 126.53125 -74.08984375 126.53125 C-78.08984375 123.53125 -78.08984375 123.53125 -79.02734375 120.65625 C-79.106919 116.67748775 -78.57040137 115.66506681 -76.08984375 112.53125 C-72.9407919 110.28008925 -69.58988492 108.42066161 -66.21484375 106.53125 C-64.20847383 105.37832117 -62.20329352 104.22332002 -60.19921875 103.06640625 C-58.6687793 102.18686279 -58.6687793 102.18686279 -57.10742188 101.28955078 C-51.73332065 98.15813678 -46.46925039 94.85209006 -41.19970703 91.54882812 C-40.42868652 91.06736328 -39.65766602 90.58589844 -38.86328125 90.08984375 C-38.03344727 89.52958496 -37.20361328 88.96932617 -36.34863281 88.39208984 C-33.53982135 86.78819705 -31.06662436 85.77708188 -28.04199219 84.70556641 C-22.07976672 82.32041728 -16.9119771 79.85616165 -13.08984375 74.53125 C-9.87522932 63.9827221 -10.98539101 52.37414263 -11.48614502 41.49108887 C-11.72594497 35.80279138 -11.80447623 30.10952262 -11.90246582 24.4173584 C-11.95499565 21.39173145 -12.05090522 18.37241679 -12.18249512 15.34924316 C-12.2279112 13.97306737 -12.2732059 12.59688756 -12.31835938 11.22070312 C-12.36980103 10.02223755 -12.42124268 8.82377197 -12.47424316 7.58898926 C-12.08984375 4.53125 -12.08984375 4.53125 -10.30552673 2.14550781 C-7.05025318 -0.22615402 -3.87657964 -0.04178844 0 0 Z " fill="#FDCB9D" transform="translate(210.08984375,48.46875)"/>
<path d="M0 0 C4.52546082 1.34087728 4.52546082 1.34087728 6.375 4 C6.71557617 7.1862793 6.71557617 7.1862793 6.66796875 11.07421875 C6.66372391 11.7580513 6.65947906 12.44188385 6.65510559 13.1464386 C6.63833353 15.32719561 6.60068657 17.50702309 6.5625 19.6875 C6.54745114 21.16730435 6.53376308 22.6471232 6.52148438 24.12695312 C6.48843569 27.75160336 6.43666446 31.37571094 6.375 35 C6.94429891 34.99723462 7.51359781 34.99446924 8.1001482 34.99162006 C21.94585725 34.92539676 35.79153859 34.8759287 49.63737202 34.84456348 C56.33309843 34.82888698 63.02870715 34.80798493 69.72436523 34.77368164 C76.18231011 34.74115923 82.64014508 34.72316195 89.09816551 34.71536827 C91.56581542 34.70981197 94.0334591 34.69896235 96.50106239 34.68280983 C99.94916556 34.66113052 103.39681069 34.65802914 106.8449707 34.65942383 C107.87211685 34.648638 108.899263 34.63785217 109.95753479 34.6267395 C110.89562988 34.63086349 111.83372498 34.63498749 112.80024719 34.63923645 C113.61603398 34.63647107 114.43182077 34.63370569 115.27232838 34.63085651 C117.88708496 35.08990126 118.76775526 35.92631513 120.375 38 C120.7734375 39.9375 120.7734375 39.9375 120.75 42 C120.75773438 42.680625 120.76546875 43.36125 120.7734375 44.0625 C120.23727433 46.66972482 119.58290112 47.50492231 117.375 49 C113.34240923 49.40487859 109.43787095 49.13106035 105.375 49 C105.375 54.61 105.375 60.22 105.375 66 C106.76704147 65.99111755 108.15908295 65.98223511 109.5933075 65.9730835 C122.70379043 65.89204173 135.81422263 65.83205558 148.9248991 65.79275131 C155.66544854 65.77213327 162.40581089 65.74402753 169.14624023 65.69824219 C175.64956271 65.65408852 182.15276371 65.63087045 188.65622902 65.62049103 C191.13898595 65.61309297 193.62173208 65.59864655 196.10440636 65.57707977 C199.57854697 65.54809702 203.05188124 65.544042 206.52612305 65.54589844 C207.55542938 65.53151733 208.58473572 65.51713623 209.64523315 65.50231934 C213.68191762 65.52570216 216.74664855 65.74812421 220.51361084 67.25811768 C223.66192295 71.89567629 223.05960463 76.85646028 223.00610352 82.32421875 C223.01683647 84.21740341 223.01683647 84.21740341 223.02778625 86.14883423 C223.04630265 89.60770091 223.03336127 93.06579689 223.01369596 96.5246315 C222.99730955 100.14492947 223.00612232 103.76517861 223.01121521 107.38549805 C223.01573622 113.46513174 222.99986625 119.54445778 222.97192383 125.62402344 C222.93987157 132.65195577 222.93988743 139.67933322 222.9571386 146.70730495 C222.97300482 153.46913546 222.96626962 160.23076261 222.94920158 166.99258423 C222.9423306 169.86973486 222.94336391 172.74672251 222.95074654 175.62387085 C222.95983333 179.64148766 222.93587196 183.65824792 222.90844727 187.67578125 C222.91823608 189.46817734 222.91823608 189.46817734 222.92822266 191.29678345 C222.90913597 192.93712051 222.90913597 192.93712051 222.8896637 194.6105957 C222.88685678 195.56037796 222.88404985 196.51016022 222.88115788 197.48872375 C222.21959376 200.77104007 220.98899369 201.96579506 218.375 204 C215.73936539 204.40508281 213.51474726 204.56463744 210.87890625 204.54589844 C210.12010477 204.55622762 209.36130329 204.5665568 208.57950783 204.57719898 C206.03196221 204.60691524 203.48520709 204.60811547 200.9375 204.609375 C199.10776357 204.62457777 197.27804045 204.64146085 195.44833374 204.65989685 C190.46485609 204.70477159 185.48156439 204.72437094 180.49791718 204.73882675 C176.33125513 204.75373434 172.16473679 204.78239172 167.99815178 204.81127834 C156.93724457 204.88781932 145.87639215 204.93508835 134.81527519 204.96764278 C126.60695269 204.99184639 118.39870324 205.02488644 110.19042969 205.06201172 C97.49040032 205.11832276 84.7903974 205.15460041 72.090271 205.17988586 C68.74604343 205.18750902 65.4018349 205.19801819 62.05761719 205.20910645 C56.79545607 205.22566282 51.53338396 205.23168725 46.27119827 205.22944832 C44.33267421 205.23012224 42.39414802 205.23418014 40.45563889 205.24181938 C37.80935745 205.25156048 35.16337576 205.24888699 32.51708984 205.24291992 C31.35725838 205.25135485 31.35725838 205.25135485 30.17399597 205.25996017 C26.45293348 205.23798405 23.46924185 205.21035075 20.375 203 C19.09617967 200.44235934 19.24336397 198.63304126 19.23455811 195.76844788 C19.22884796 194.65936569 19.22313782 193.55028351 19.21725464 192.40759277 C19.21613678 191.18519897 19.21501892 189.96280518 19.21386719 188.70336914 C19.20641983 186.77895241 19.20641983 186.77895241 19.19882202 184.81565857 C19.18569123 181.29089512 19.17925196 177.76615072 19.17481136 174.24136662 C19.17188223 172.04058719 19.16777777 169.83981299 19.16330719 167.63903618 C19.14963157 160.75713629 19.13996477 153.87524832 19.1361053 146.99333578 C19.13162174 139.0417698 19.11406045 131.09037548 19.0851047 123.13886172 C19.0635129 116.99699583 19.05340239 110.85517834 19.05206418 104.7132749 C19.05101451 101.04275668 19.04507239 97.37239982 19.02724457 93.70192146 C19.00775565 89.60984949 19.0120428 85.51813854 19.01855469 81.42602539 C19.00473251 79.59547104 19.00473251 79.59547104 18.9906311 77.72793579 C18.99620026 76.61603378 19.00176941 75.50413177 19.00750732 74.35853577 C19.00604076 73.39048539 19.0045742 72.42243502 19.0030632 71.42504978 C19.375 69 19.375 69 20.71407413 67.18763924 C23.35848245 65.29676431 25.75204894 65.64164722 28.95776367 65.65942383 C29.62144455 65.65898575 30.28512543 65.65854767 30.96891785 65.65809631 C33.16056839 65.66018481 35.35145201 65.68351732 37.54296875 65.70703125 C39.0632536 65.71262702 40.58354386 65.71689721 42.10383606 65.71989441 C46.10377965 65.73134476 50.10339606 65.76081328 54.10321045 65.79400635 C58.1852984 65.82470331 62.26743925 65.83839893 66.34960938 65.85351562 C74.35823974 65.88568312 82.36654147 65.93845231 90.375 66 C90.375 60.39 90.375 54.78 90.375 49 C62.655 49 34.935 49 6.375 49 C6.375 108.73 6.375 168.46 6.375 230 C15.945 230 25.515 230 35.375 230 C41.23203804 233.51422282 41.23203804 233.51422282 42.375 237 C42.79781973 240.96849199 42.69930788 244.9487971 42.6875 248.9375 C42.70361328 250.02224609 42.71972656 251.10699219 42.73632812 252.22460938 C42.73697266 253.27326172 42.73761719 254.32191406 42.73828125 255.40234375 C42.74126221 256.35616943 42.74424316 257.30999512 42.74731445 258.29272461 C42.26642598 261.78949329 40.88740302 264.48759698 38.375 267 C35.92672626 267.11094437 33.50639149 267.15738428 31.05712891 267.16113281 C30.29126968 267.16609772 29.52541046 267.17106262 28.73634338 267.17617798 C26.19140743 267.19083667 23.64653381 267.19760784 21.1015625 267.203125 C19.33897906 267.20887356 17.57639564 267.21463132 15.81381226 267.22039795 C12.11317655 267.2309186 8.41256263 267.23675424 4.71191406 267.24023438 C-0.03533456 267.24572029 -4.78229652 267.26974582 -9.52945518 267.29820633 C-13.17195482 267.3168097 -16.81438512 267.32203708 -20.45692825 267.32357025 C-22.20726717 267.32660271 -23.9576047 267.33465111 -25.70789719 267.34775543 C-28.1549345 267.36476768 -30.60126776 267.36294773 -33.04833984 267.35644531 C-33.77469131 267.3656601 -34.50104279 267.37487488 -35.24940491 267.3843689 C-38.14695117 267.36019007 -40.14212531 267.32992481 -42.57427979 265.66815186 C-44.28446027 262.95302303 -44.01466847 260.41687425 -44.0234375 257.25 C-44.02630768 256.59547852 -44.02917786 255.94095703 -44.03213501 255.26660156 C-44.03417368 253.88475681 -44.02865746 252.50288307 -44.01611328 251.12109375 C-44.00005436 249.0071555 -44.01596601 246.89512887 -44.03515625 244.78125 C-44.03317378 243.43749578 -44.02933002 242.09374276 -44.0234375 240.75 C-44.02005371 239.52796875 -44.01666992 238.3059375 -44.01318359 237.046875 C-43.625 234 -43.625 234 -42.35009766 232.140625 C-38.55637646 229.63223759 -34.54123609 229.88219893 -30.109375 229.90234375 C-28.85898437 229.90556641 -27.60859375 229.90878906 -26.3203125 229.91210938 C-25.01835937 229.92048828 -23.71640625 229.92886719 -22.375 229.9375 C-20.39886719 229.94426758 -20.39886719 229.94426758 -18.3828125 229.95117188 C-15.13016259 229.96295684 -11.87760416 229.97940989 -8.625 230 C-8.62960896 228.8450192 -8.63421793 227.69003839 -8.63896656 226.50005817 C-8.74723663 199.08819293 -8.82969288 171.67635095 -8.88032665 144.26431583 C-8.88658024 140.89097255 -8.89305185 137.51762972 -8.8996582 134.14428711 C-8.90096976 133.47271034 -8.90228131 132.80113357 -8.9036326 132.10920598 C-8.92539405 121.23258293 -8.96481956 110.35609189 -9.01076398 99.47954718 C-9.05750818 88.32066851 -9.08491676 77.16183507 -9.09544247 66.00285739 C-9.10196953 59.73435077 -9.11734448 53.46614368 -9.15365028 47.19773293 C-9.18753123 41.30033119 -9.19806877 35.40335301 -9.19053841 29.50586319 C-9.19191647 27.33905042 -9.20189559 25.17222381 -9.22102737 23.00549507 C-9.24584142 20.0508539 -9.23994731 17.0978197 -9.22627258 14.1431427 C-9.24083679 13.28224354 -9.255401 12.42134438 -9.27040654 11.53435737 C-9.21624082 7.21579083 -8.99320938 5.48936695 -6.31398296 1.92855358 C-3.625 0 -3.625 0 0 0 Z " fill="#FEA721" transform="translate(43.625,196)"/>
<path d="M0 0 C1.02867187 -0.00773437 2.05734375 -0.01546875 3.1171875 -0.0234375 C21.77111993 0.02402798 38.37205241 7.40441292 51.6875 20.375 C64.77553719 33.57814746 72.08905018 49.95450373 72.12442017 68.63957214 C72.12082489 69.40562271 72.11722961 70.17167328 72.11352539 70.9609375 C72.11367142 71.79115921 72.11381744 72.62138092 72.1139679 73.47676086 C72.11327695 76.19286812 72.10552322 78.90890488 72.09765625 81.625 C72.09578916 83.51928673 72.09436663 85.41357394 72.09336853 87.30786133 C72.08956626 92.27261712 72.07975571 97.23734326 72.06866455 102.2020874 C72.05840101 107.27664794 72.05386035 112.35121331 72.04882812 117.42578125 C72.03813123 127.36720047 72.02108255 137.30859776 72 147.25 C72.59246521 147.22858948 73.18493042 147.20717896 73.79534912 147.18511963 C79.95897841 146.96640877 86.12301768 146.77638139 92.28808594 146.60302734 C94.58909826 146.5345487 96.88990471 146.458746 99.19042969 146.37548828 C102.4964773 146.25710953 105.80236951 146.16505056 109.109375 146.078125 C110.6533194 146.01434662 110.6533194 146.01434662 112.22845459 145.94927979 C119.17200035 145.80239345 119.17200035 145.80239345 122.6496582 147.68237305 C124.70122023 151.58334536 124.55242452 155.15765052 124.49609375 159.50390625 C124.49754898 160.40116928 124.49900421 161.29843231 124.50050354 162.22288513 C124.49884579 164.11664076 124.48729837 166.01041002 124.46655273 167.90405273 C124.43756737 170.80575605 124.44595203 173.70563572 124.45898438 176.60742188 C124.45274775 178.44792556 124.44435741 180.28842347 124.43359375 182.12890625 C124.43652939 182.99769913 124.43946503 183.866492 124.44248962 184.76161194 C124.42980545 185.56932541 124.41712128 186.37703888 124.40405273 187.20922852 C124.39864975 187.91886246 124.39324677 188.6284964 124.38768005 189.3596344 C123.86536403 191.90649806 123.05634508 192.66750399 121 194.25 C118.47641468 194.62604749 118.47641468 194.62604749 115.39179993 194.62752342 C114.21725596 194.63534666 113.042712 194.64316991 111.8325758 194.65123022 C110.53600205 194.64453805 109.23942831 194.63784589 107.90356445 194.63095093 C106.51717669 194.63440567 105.13079167 194.63916899 103.74441242 194.64513266 C99.92597922 194.65769773 96.10776991 194.65144744 92.28933573 194.64217401 C88.1747575 194.63540628 84.06021868 194.64585339 79.94564819 194.65411377 C71.88175887 194.66747771 63.81795315 194.66456155 55.75406051 194.65587585 C49.20237652 194.64911015 42.65071602 194.64817774 36.09902954 194.6514473 C35.1677808 194.651907 34.23653206 194.65236669 33.27706367 194.65284032 C31.38545346 194.65379947 29.49384325 194.65477211 27.60223305 194.6557581 C9.8502457 194.66431979 -7.90169522 194.65446566 -25.65367496 194.638357 C-40.89706958 194.62495311 -56.14039568 194.62728099 -71.38378906 194.64111328 C-89.07076172 194.65715536 -106.75769366 194.66349574 -124.44467258 194.65427649 C-126.32945823 194.65332081 -128.21424388 194.6523777 -130.09902954 194.6514473 C-131.02646349 194.65098447 -131.95389744 194.65052164 -132.90943545 194.65004479 C-139.45585873 194.64745078 -146.00225625 194.65183474 -152.54867554 194.65888596 C-160.52284507 194.66728593 -168.49692598 194.66505258 -176.47108531 194.64904372 C-180.54231315 194.64114068 -184.61339304 194.63810382 -188.6846199 194.64799118 C-192.40781203 194.65689678 -196.13071834 194.65207415 -199.85388434 194.63605852 C-201.84678172 194.63109242 -203.83969877 194.64094414 -205.8325758 194.65123022 C-207.00711976 194.64340697 -208.18166372 194.63558373 -209.39179993 194.62752342 C-210.4097228 194.62703637 -211.42764566 194.62654931 -212.47641468 194.62604749 C-215.39520704 194.19110894 -216.24487522 193.56905464 -218 191.25 C-219.59006531 188.06986937 -219.18417077 184.63029343 -219.203125 181.13671875 C-219.20882507 180.33015335 -219.21452515 179.52358795 -219.22039795 178.69258118 C-219.22985195 176.98362542 -219.23638352 175.2746514 -219.24023438 173.56567383 C-219.2499232 170.95816959 -219.280935 168.35145922 -219.3125 165.74414062 C-219.31903185 164.08333801 -219.32428161 162.42252976 -219.328125 160.76171875 C-219.3404718 159.98446945 -219.3528186 159.20722015 -219.36553955 158.40641785 C-219.34687716 153.84243087 -218.85745823 150.86617166 -216 147.25 C-213.32777813 145.91388906 -211.32376335 146.14412095 -208.33065796 146.16770935 C-207.1246846 146.17474884 -205.91871124 146.18178833 -204.67619324 146.18904114 C-203.33279328 146.20202441 -201.98939426 146.21510445 -200.64599609 146.22827148 C-199.23685508 146.23841151 -197.82771079 146.24810549 -196.41856384 146.25738525 C-192.58611496 146.28389392 -188.75374188 146.31666773 -184.92135191 146.35053515 C-180.91883711 146.38485084 -176.91628165 146.41344806 -172.91372681 146.44264221 C-165.33119932 146.49882215 -157.74872277 146.5601726 -150.16625082 146.62336355 C-141.53520149 146.69504268 -132.90411134 146.76098381 -124.27301288 146.82643402 C-106.51528877 146.96122107 -88.75762901 147.10324305 -71 147.25 C-71.00888245 146.20589462 -71.01776489 145.16178925 -71.0269165 144.08604431 C-71.108439 134.18681341 -71.16817324 124.28765171 -71.20724869 114.38815975 C-71.22801398 109.30021476 -71.25612651 104.21254342 -71.30175781 99.12475586 C-71.34561386 94.2034141 -71.36921997 89.28233351 -71.37950897 84.36081123 C-71.38682969 82.49476581 -71.40112252 80.62873268 -71.42292023 78.76280022 C-71.66249786 57.3799529 -67.07945938 38.36753811 -52 22.25 C-37.20341096 7.30544507 -20.93034835 -0.15737104 0 0 Z " fill="#57535A" transform="translate(369,268.75)"/>
<path d="M0 0 C0.78153946 -0.0038269 1.56307892 -0.00765381 2.36830139 -0.01159668 C4.01825247 -0.01431382 5.66824676 -0.00696634 7.31811523 0.00976562 C9.83610754 0.03115191 12.35123767 0.00997495 14.86914062 -0.015625 C16.47526669 -0.01298112 18.08139097 -0.0078549 19.6875 0 C20.43660141 -0.00809692 21.18570282 -0.01619385 21.95750427 -0.02453613 C25.36147319 0.03613091 27.81171035 0.48324103 30.87988281 1.97949219 C33.90849299 5.78601378 33.63846317 9.15048271 33.6171875 13.890625 C33.63230881 14.79500305 33.64743011 15.6993811 33.66300964 16.63116455 C33.70593781 19.51477898 33.71472948 22.39734767 33.72265625 25.28125 C33.74579661 27.23830915 33.77116098 29.19534336 33.79882812 31.15234375 C33.86173103 35.94540515 33.89402631 40.73781219 33.91015625 45.53125 C46.07602623 38.25173514 58.23430416 30.96041045 70.34765625 23.59375 C71.26820801 23.03655273 72.18875977 22.47935547 73.13720703 21.90527344 C77.81499364 19.06492979 82.46555862 16.18983862 87.07188416 13.23527527 C89.41897594 11.73164974 91.77422937 10.24106362 94.12991333 8.75094604 C95.80578805 7.68293208 97.46937546 6.59571434 99.13256836 5.50805664 C109.19499452 -0.84745021 109.19499452 -0.84745021 115.91015625 0.53125 C119.21188631 2.03853688 122.15016765 3.94977294 125.16015625 5.96875 C127.02745526 7.1724219 128.89601148 8.37414503 130.765625 9.57421875 C131.75868652 10.21794434 132.75174805 10.86166992 133.77490234 11.52490234 C138.69964166 14.67639803 143.70350133 17.69614315 148.70916748 20.71661377 C151.09050833 22.15425363 153.46873357 23.5970088 155.84710693 25.03955078 C158.26546699 26.50618282 160.68460209 27.97153403 163.10369873 29.43695068 C168.41506983 32.6544245 173.72580785 35.87293933 179.03515625 39.09375 C179.61524445 39.44562378 180.19533264 39.79749756 180.79299927 40.16003418 C190.26163828 45.90542458 199.69867861 51.7011846 209.12597656 57.51416016 C216.9944495 62.36206267 224.8833808 67.17541575 232.78515625 71.96875 C233.36487183 72.32048279 233.9445874 72.67221558 234.54187012 73.03460693 C240.44937941 76.61845215 246.3592444 80.19838875 252.27149963 83.7743988 C264.37341036 91.09522867 276.45746558 98.44370442 288.47265625 105.90625 C289.99004395 106.84331787 289.99004395 106.84331787 291.53808594 107.79931641 C292.4665332 108.37858887 293.39498047 108.95786133 294.3515625 109.5546875 C295.16310791 110.05919434 295.97465332 110.56370117 296.81079102 111.08349609 C298.79326711 112.45064149 300.38928138 113.66568322 301.91015625 115.53125 C302.41015625 118.96875 302.41015625 118.96875 301.91015625 122.53125 C299.30401539 125.21075915 297.62603708 126.41168863 293.91490358 127.03149599 C292.23048901 127.03165699 292.23048901 127.03165699 290.51204586 127.03182125 C289.21221765 127.04163554 287.91238945 127.05144983 286.57317251 127.06156152 C285.13251442 127.05222257 283.69185874 127.04250701 282.25120544 127.03245544 C280.71943475 127.03634788 279.18766766 127.04198785 277.65590912 127.04922634 C273.44481619 127.06400729 269.23409618 127.05378425 265.02301514 127.03948963 C260.48240625 127.02839876 255.94185048 127.04031614 251.40124512 127.04933167 C242.50574512 127.06327868 233.6103869 127.05569734 224.71489363 127.04065608 C214.36118843 127.02381405 204.00751873 127.02700393 193.65380407 127.03075016 C175.18396894 127.03663134 156.71420195 127.02244665 138.24438477 126.99780273 C120.31141608 126.97387773 102.37853842 126.9667995 84.44555664 126.97729492 C64.92848519 126.98869694 45.41145586 126.99064333 25.89438492 126.97619683 C23.81442233 126.97467095 21.73445974 126.97315059 19.65449715 126.97163582 C18.63105002 126.970878 17.6076029 126.97012019 16.55314223 126.96933941 C9.33140098 126.96459131 2.10967851 126.96645172 -5.11206245 126.97070122 C-13.90887587 126.97562119 -22.70560312 126.96967336 -31.50239677 126.94980692 C-35.99298437 126.93991629 -40.48344059 126.93484886 -44.97403526 126.94269943 C-49.08146734 126.9497334 -53.18863381 126.94300551 -57.29603075 126.9250958 C-58.78517039 126.92103644 -60.27433406 126.92207598 -61.76346488 126.92861467 C-63.78149314 126.93672013 -65.79957267 126.9246962 -67.8175745 126.91156673 C-68.9403552 126.9105376 -70.06313589 126.90950848 -71.21994025 126.90844816 C-74.4387363 126.48539423 -75.80328149 125.80318769 -78.08984375 123.53125 C-79.14484575 120.29591052 -79.42418642 118.41391466 -78.2109375 115.2109375 C-74.96688496 111.11255804 -70.73242513 109.06027714 -66.21484375 106.53125 C-64.20847383 105.37832117 -62.20329352 104.22332002 -60.19921875 103.06640625 C-58.6687793 102.18686279 -58.6687793 102.18686279 -57.10742188 101.28955078 C-51.73332065 98.15813678 -46.46925039 94.85209006 -41.19970703 91.54882812 C-40.42868652 91.06736328 -39.65766602 90.58589844 -38.86328125 90.08984375 C-38.03344727 89.52958496 -37.20361328 88.96932617 -36.34863281 88.39208984 C-33.53982135 86.78819705 -31.06662436 85.77708188 -28.04199219 84.70556641 C-22.07976672 82.32041728 -16.9119771 79.85616165 -13.08984375 74.53125 C-9.87522932 63.9827221 -10.98539101 52.37414263 -11.48614502 41.49108887 C-11.72594497 35.80279138 -11.80447623 30.10952262 -11.90246582 24.4173584 C-11.95499565 21.39173145 -12.05090522 18.37241679 -12.18249512 15.34924316 C-12.2279112 13.97306737 -12.2732059 12.59688756 -12.31835938 11.22070312 C-12.36980103 10.02223755 -12.42124268 8.82377197 -12.47424316 7.58898926 C-12.08984375 4.53125 -12.08984375 4.53125 -10.30552673 2.14550781 C-7.05025318 -0.22615402 -3.87657964 -0.04178844 0 0 Z " fill="#FF3030" transform="translate(210.08984375,48.46875)"/>
<path d="M0 0 C13.18269144 10.1106188 22.48090846 23.68701241 26 40 C26.08975837 42.85263281 26.12619504 45.67997408 26.11352539 48.53222656 C26.11364593 49.40498104 26.11376646 50.27773552 26.11389065 51.1769371 C26.11314508 53.99819245 26.105533 56.81938149 26.09765625 59.640625 C26.09618573 61.3839515 26.0951657 63.12727844 26.09460449 64.87060547 C26.08936436 71.33041038 26.07540315 77.79020585 26.0625 84.25 C26.041875 98.6875 26.02125 113.125 26 128 C-15.91 128 -57.82 128 -101 128 C-101.061875 114.408125 -101.12375 100.81625 -101.1875 86.8125 C-101.21481201 82.54546143 -101.24212402 78.27842285 -101.27026367 73.88208008 C-101.28381348 68.60876465 -101.28381348 68.60876465 -101.28633118 66.12797546 C-101.29089117 64.4218561 -101.30134346 62.71574544 -101.31672668 61.00968933 C-101.48870356 40.90454286 -98.1409494 24.26916181 -84.515625 8.53515625 C-77.48130859 1.44622558 -69.25568002 -4.23572822 -60 -8 C-59.24332031 -8.31839844 -58.48664063 -8.63679688 -57.70703125 -8.96484375 C-38.9156596 -15.44771759 -15.89815393 -11.28545012 0 0 Z " fill="#98FDFD" transform="translate(407,288)"/>
<path d="M0 0 C4.52546082 1.34087728 4.52546082 1.34087728 6.375 4 C6.71557617 7.1862793 6.71557617 7.1862793 6.66796875 11.07421875 C6.66372391 11.7580513 6.65947906 12.44188385 6.65510559 13.1464386 C6.63833353 15.32719561 6.60068657 17.50702309 6.5625 19.6875 C6.54745114 21.16730435 6.53376308 22.6471232 6.52148438 24.12695312 C6.48843569 27.75160336 6.43666446 31.37571094 6.375 35 C6.94429891 34.99723462 7.51359781 34.99446924 8.1001482 34.99162006 C21.94585725 34.92539676 35.79153859 34.8759287 49.63737202 34.84456348 C56.33309843 34.82888698 63.02870715 34.80798493 69.72436523 34.77368164 C76.18231011 34.74115923 82.64014508 34.72316195 89.09816551 34.71536827 C91.56581542 34.70981197 94.0334591 34.69896235 96.50106239 34.68280983 C99.94916556 34.66113052 103.39681069 34.65802914 106.8449707 34.65942383 C107.87211685 34.648638 108.899263 34.63785217 109.95753479 34.6267395 C110.89562988 34.63086349 111.83372498 34.63498749 112.80024719 34.63923645 C113.61603398 34.63647107 114.43182077 34.63370569 115.27232838 34.63085651 C117.88708496 35.08990126 118.76775526 35.92631513 120.375 38 C120.7734375 39.9375 120.7734375 39.9375 120.75 42 C120.75773438 42.680625 120.76546875 43.36125 120.7734375 44.0625 C120.23727433 46.66972482 119.58290112 47.50492231 117.375 49 C113.34240923 49.40487859 109.43787095 49.13106035 105.375 49 C105.375 54.61 105.375 60.22 105.375 66 C100.425 66 95.475 66 90.375 66 C90.375 60.39 90.375 54.78 90.375 49 C62.655 49 34.935 49 6.375 49 C6.375 108.73 6.375 168.46 6.375 230 C15.945 230 25.515 230 35.375 230 C41.23203804 233.51422282 41.23203804 233.51422282 42.375 237 C42.79781973 240.96849199 42.69930788 244.9487971 42.6875 248.9375 C42.70361328 250.02224609 42.71972656 251.10699219 42.73632812 252.22460938 C42.73697266 253.27326172 42.73761719 254.32191406 42.73828125 255.40234375 C42.74126221 256.35616943 42.74424316 257.30999512 42.74731445 258.29272461 C42.26642598 261.78949329 40.88740302 264.48759698 38.375 267 C35.92672626 267.11094437 33.50639149 267.15738428 31.05712891 267.16113281 C30.29126968 267.16609772 29.52541046 267.17106262 28.73634338 267.17617798 C26.19140743 267.19083667 23.64653381 267.19760784 21.1015625 267.203125 C19.33897906 267.20887356 17.57639564 267.21463132 15.81381226 267.22039795 C12.11317655 267.2309186 8.41256263 267.23675424 4.71191406 267.24023438 C-0.03533456 267.24572029 -4.78229652 267.26974582 -9.52945518 267.29820633 C-13.17195482 267.3168097 -16.81438512 267.32203708 -20.45692825 267.32357025 C-22.20726717 267.32660271 -23.9576047 267.33465111 -25.70789719 267.34775543 C-28.1549345 267.36476768 -30.60126776 267.36294773 -33.04833984 267.35644531 C-33.77469131 267.3656601 -34.50104279 267.37487488 -35.24940491 267.3843689 C-38.14695117 267.36019007 -40.14212531 267.32992481 -42.57427979 265.66815186 C-44.28446027 262.95302303 -44.01466847 260.41687425 -44.0234375 257.25 C-44.02630768 256.59547852 -44.02917786 255.94095703 -44.03213501 255.26660156 C-44.03417368 253.88475681 -44.02865746 252.50288307 -44.01611328 251.12109375 C-44.00005436 249.0071555 -44.01596601 246.89512887 -44.03515625 244.78125 C-44.03317378 243.43749578 -44.02933002 242.09374276 -44.0234375 240.75 C-44.02005371 239.52796875 -44.01666992 238.3059375 -44.01318359 237.046875 C-43.625 234 -43.625 234 -42.35009766 232.140625 C-38.55637646 229.63223759 -34.54123609 229.88219893 -30.109375 229.90234375 C-28.85898437 229.90556641 -27.60859375 229.90878906 -26.3203125 229.91210938 C-25.01835937 229.92048828 -23.71640625 229.92886719 -22.375 229.9375 C-20.39886719 229.94426758 -20.39886719 229.94426758 -18.3828125 229.95117188 C-15.13016259 229.96295684 -11.87760416 229.97940989 -8.625 230 C-8.62960896 228.8450192 -8.63421793 227.69003839 -8.63896656 226.50005817 C-8.74723663 199.08819293 -8.82969288 171.67635095 -8.88032665 144.26431583 C-8.88658024 140.89097255 -8.89305185 137.51762972 -8.8996582 134.14428711 C-8.90096976 133.47271034 -8.90228131 132.80113357 -8.9036326 132.10920598 C-8.92539405 121.23258293 -8.96481956 110.35609189 -9.01076398 99.47954718 C-9.05750818 88.32066851 -9.08491676 77.16183507 -9.09544247 66.00285739 C-9.10196953 59.73435077 -9.11734448 53.46614368 -9.15365028 47.19773293 C-9.18753123 41.30033119 -9.19806877 35.40335301 -9.19053841 29.50586319 C-9.19191647 27.33905042 -9.20189559 25.17222381 -9.22102737 23.00549507 C-9.24584142 20.0508539 -9.23994731 17.0978197 -9.22627258 14.1431427 C-9.24083679 13.28224354 -9.255401 12.42134438 -9.27040654 11.53435737 C-9.21624082 7.21579083 -8.99320938 5.48936695 -6.31398296 1.92855358 C-3.625 0 -3.625 0 0 0 Z " fill="#323232" transform="translate(43.625,196)"/>
<path d="M0 0 C0.69480972 -0.0049649 1.38961945 -0.00992981 2.10548401 -0.01504517 C4.39723714 -0.02961534 6.68892111 -0.03645925 8.98071289 -0.04199219 C10.57727561 -0.04774675 12.17383831 -0.05350445 13.770401 -0.05926514 C17.11516643 -0.06975969 20.45990793 -0.07561283 23.8046875 -0.07910156 C28.08644997 -0.08459087 32.36789518 -0.10863453 36.64955807 -0.13707352 C39.9464256 -0.15571137 43.24321676 -0.16090605 46.54013252 -0.16243744 C48.11856386 -0.16546062 49.69699396 -0.17347788 51.27537346 -0.18662262 C53.48460864 -0.2037118 55.69306897 -0.2017966 57.90234375 -0.1953125 C59.15824814 -0.19895813 60.41415253 -0.20260376 61.70811462 -0.20635986 C65.28550997 0.19109 67.15263983 1.02591006 70.01586914 3.16113281 C73.26640411 7.79923337 72.34442491 13.67499374 72.32836914 19.09863281 C72.34448242 20.18337891 72.3605957 21.268125 72.37719727 22.38574219 C72.3778418 23.43439453 72.37848633 24.48304688 72.37915039 25.56347656 C72.38213135 26.51730225 72.3851123 27.47112793 72.38818359 28.45385742 C71.90729512 31.9506261 70.52827216 34.64872979 68.01586914 37.16113281 C65.5675954 37.27207718 63.14726063 37.31851709 60.69799805 37.32226562 C59.93213882 37.32723053 59.1662796 37.33219543 58.37721252 37.33731079 C55.83227657 37.35196948 53.28740295 37.35874066 50.74243164 37.36425781 C48.9798482 37.37000637 47.21726478 37.37576414 45.4546814 37.38153076 C41.75404569 37.39205141 38.05343177 37.39788705 34.3527832 37.40136719 C29.60553458 37.4068531 24.85857263 37.43087863 20.11141396 37.45933914 C16.46891432 37.47794251 12.82648403 37.4831699 9.18394089 37.48470306 C7.43360197 37.48773552 5.68326444 37.49578392 3.93297195 37.50888824 C1.48593464 37.52590049 -0.96039862 37.52408055 -3.4074707 37.51757812 C-4.13382217 37.52679291 -4.86017365 37.53600769 -5.60853577 37.54550171 C-8.50608203 37.52132288 -10.50125617 37.49105762 -12.93341064 35.82928467 C-14.64359113 33.11415584 -14.37379932 30.57800706 -14.38256836 27.41113281 C-14.38543854 26.75661133 -14.38830872 26.10208984 -14.39126587 25.42773438 C-14.39330453 24.04588962 -14.38778832 22.66401588 -14.37524414 21.28222656 C-14.35918522 19.16828831 -14.37509687 17.05626168 -14.39428711 14.94238281 C-14.39230464 13.5986286 -14.38846088 12.25487557 -14.38256836 10.91113281 C-14.37918457 9.68910156 -14.37580078 8.46707031 -14.37231445 7.20800781 C-13.98413086 4.16113281 -13.98413086 4.16113281 -12.70922852 2.30175781 C-8.80349059 -0.28069444 -4.55876357 0.02480044 0 0 Z " fill="#57535A" transform="translate(13.984130859375,425.8388671875)"/>
<path d="M0 0 C26.73 0 53.46 0 81 0 C81 11.55 81 23.1 81 35 C54.27 35 27.54 35 0 35 C0 23.45 0 11.9 0 0 Z " fill="#97FCFC" transform="translate(355,204)"/>
<path d="M0 0 C26.73 0 53.46 0 81 0 C81 11.55 81 23.1 81 35 C54.27 35 27.54 35 0 35 C0 23.45 0 11.9 0 0 Z " fill="#97FCFC" transform="translate(207,204)"/>
<path d="M0 0 C1.0219043 -0.00563965 2.04380859 -0.0112793 3.09667969 -0.01708984 C22.66893006 0.1703108 39.49896612 8.33091613 53.16552734 22.11767578 C66.10702458 35.78486446 72.01369073 52.34445778 71.92602539 71.0234375 C71.92617142 71.85365921 71.92631744 72.68388092 71.9264679 73.53926086 C71.92577695 76.25536812 71.91802322 78.97140488 71.91015625 81.6875 C71.90828916 83.58178673 71.90686663 85.47607394 71.90586853 87.37036133 C71.90206626 92.33511712 71.89225571 97.29984326 71.88116455 102.2645874 C71.87090101 107.33914794 71.86636035 112.41371331 71.86132812 117.48828125 C71.85063123 127.42970047 71.83358255 137.37109776 71.8125 147.3125 C69.5025 147.3125 67.1925 147.3125 64.8125 147.3125 C64.80441315 146.33690125 64.79632629 145.36130249 64.78799438 144.35614014 C64.7101802 135.11802873 64.62235499 125.88005824 64.52497292 116.64213181 C64.47523472 111.89393733 64.42890451 107.14576271 64.390625 102.39746094 C64.35348599 97.80672707 64.30705242 93.2161691 64.25443649 88.62558746 C64.23604333 86.88273484 64.2208811 85.13984474 64.20915604 83.39693451 C64.05115478 60.70209076 60.33796053 42.93647509 44.50390625 25.81640625 C31.2596098 12.92007161 14.98651331 8.79516559 -3.03637695 8.89038086 C-19.86454185 9.3294015 -34.14555599 16.72142441 -46.1875 28.3125 C-60.0658352 44.53496859 -62.62795276 62.27305845 -62.69921875 82.73828125 C-62.71609986 84.58059356 -62.73425461 86.42289459 -62.75361633 88.2651825 C-62.80075023 93.07034784 -62.8307949 97.87546745 -62.85705566 102.68078613 C-62.88704777 107.60173572 -62.93351312 112.52252822 -62.97851562 117.44335938 C-63.06413121 127.06632345 -63.13166024 136.68932023 -63.1875 146.3125 C-65.4975 146.3125 -67.8075 146.3125 -70.1875 146.3125 C-70.30394093 134.83712795 -70.39249089 123.36189911 -70.44656086 111.88605404 C-70.4725269 106.55590207 -70.50768456 101.2261577 -70.56469727 95.89624023 C-70.6194842 90.74146649 -70.64901793 85.58708195 -70.66188622 80.43203926 C-70.67104304 78.47665859 -70.68892138 76.52129643 -70.71615028 74.56608391 C-71.00112788 53.23198728 -65.69144058 36.53836174 -50.66015625 20.65625 C-35.83716201 6.6060185 -20.2187987 0.10712352 0 0 Z " fill="#353635" transform="translate(369.1875,268.6875)"/>
<path d="M0 0 C6.0641527 4.47231261 10.73230055 10.10341266 12.1875 17.61328125 C13.17676347 26.54138406 12.05125126 34.27372049 6.71484375 41.6484375 C1.51095436 47.44283916 -4.59901821 50.15354252 -12.28515625 50.9921875 C-20.65207494 51.26959336 -26.35694152 50.41944659 -32.7421875 44.96484375 C-39.03845772 38.98208076 -42.78671179 32.69444223 -43.1875 23.86328125 C-43.02946869 16.37936976 -40.22080239 8.8754133 -34.8125 3.61328125 C-24.41862014 -4.22535642 -11.92675799 -6.96381428 0 0 Z " fill="#FFFDFD" transform="translate(336.8125,93.38671875)"/>
<path d="M0 0 C0.86222672 -0.00554901 1.72445343 -0.01109802 2.61280823 -0.01681519 C5.46183921 -0.02862238 8.30928348 -0.00432591 11.15820312 0.02148438 C13.13830493 0.02319525 15.11840899 0.02313003 17.09851074 0.0213623 C21.24802321 0.02301616 25.39699583 0.04172631 29.54638672 0.07324219 C34.86635334 0.11291989 40.18561266 0.11728784 45.50569916 0.10977936 C49.59436528 0.10671039 53.68287226 0.11882759 57.77149963 0.13591003 C59.73310854 0.14294336 61.69473548 0.14606416 63.65635681 0.1452179 C66.39753844 0.14701484 69.1378713 0.16838766 71.87890625 0.1953125 C72.6904567 0.1923819 73.50200714 0.18945129 74.33815002 0.18643188 C77.56441083 0.23534783 80.03534169 0.41234834 82.94213867 1.87171936 C84.80287645 4.0384147 84.94520656 5.09659552 84.95703125 7.93139648 C84.96963989 8.79917221 84.98224854 9.66694794 84.99523926 10.5610199 C84.98714233 11.49543411 84.97904541 12.42984833 84.97070312 13.39257812 C84.97644348 14.83691978 84.97644348 14.83691978 84.9822998 16.31044006 C84.98502219 18.34718877 84.9776382 20.38397224 84.9609375 22.4206543 C84.93955597 25.53774111 84.96071625 28.65251686 84.98632812 31.76953125 C84.98368445 33.74805196 84.97855865 35.72657124 84.97070312 37.70507812 C84.97880005 38.63746811 84.98689697 39.56985809 84.99523926 40.53050232 C84.98263062 41.40143021 84.97002197 42.27235809 84.95703125 43.16967773 C84.95384888 43.93340195 84.9506665 44.69712616 84.9473877 45.48399353 C84.19075192 48.65875885 83.10984458 49.73705497 80.43945312 51.61523438 C77.49742402 52.01493832 74.92851674 52.17266126 71.98657227 52.14868164 C71.13570541 52.15729721 70.28483856 52.16591278 69.40818787 52.17478943 C66.59668521 52.19748453 63.78617652 52.19070387 60.97460938 52.18164062 C59.01931969 52.18687489 57.06403255 52.19315065 55.10874939 52.20042419 C51.01061116 52.21083513 46.91282001 52.20625732 42.81469727 52.19165039 C37.56412153 52.17446739 32.31464059 52.19794827 27.06418705 52.23313999 C23.02608494 52.25510672 18.98824504 52.25367416 14.95010185 52.24537468 C13.01441688 52.24455465 11.07871276 52.25142791 9.14308357 52.26614571 C6.43528214 52.28357701 3.72945086 52.26906149 1.02172852 52.24633789 C0.22312408 52.25803009 -0.57548035 52.26972229 -1.39828491 52.2817688 C-5.38925058 52.21366506 -7.34343716 51.77994916 -10.55749512 49.34153748 C-12.53616241 46.64842345 -13.18719551 45.61576074 -13.19165039 42.36328125 C-13.2041835 41.55894653 -13.21671661 40.75461182 -13.22962952 39.92590332 C-13.21637131 39.07057007 -13.2031131 38.21523682 -13.18945312 37.33398438 C-13.19186508 36.44287964 -13.19427704 35.5517749 -13.19676208 34.63366699 C-13.1957849 32.75426777 -13.18242198 30.87483931 -13.1574707 28.99560547 C-13.12315555 26.12432758 -13.13681899 23.25612799 -13.15625 20.38476562 C-13.14935125 18.55532548 -13.1396786 16.72589326 -13.12695312 14.89648438 C-13.13191299 14.04115112 -13.13687286 13.18581787 -13.14198303 12.30456543 C-13.1261467 11.50023071 -13.11031036 10.695896 -13.09399414 9.8671875 C-13.08779556 9.16501099 -13.08159698 8.46283447 -13.07521057 7.73937988 C-11.31714866 0.48341965 -6.60529062 -0.10795088 0 0 Z M-4.56054688 8.61523438 C-4.56054688 20.16523438 -4.56054688 31.71523437 -4.56054688 43.61523438 C22.16945313 43.61523438 48.89945312 43.61523438 76.43945312 43.61523438 C76.43945312 32.06523437 76.43945312 20.51523438 76.43945312 8.61523438 C49.70945312 8.61523438 22.97945312 8.61523438 -4.56054688 8.61523438 Z " fill="#373736" transform="translate(211.560546875,195.384765625)"/>
<path d="M0 0 C0.86222672 -0.00554901 1.72445343 -0.01109802 2.61280823 -0.01681519 C5.46183921 -0.02862238 8.30928348 -0.00432591 11.15820312 0.02148438 C13.13830493 0.02319525 15.11840899 0.02313003 17.09851074 0.0213623 C21.24802321 0.02301616 25.39699583 0.04172631 29.54638672 0.07324219 C34.86635334 0.11291989 40.18561266 0.11728784 45.50569916 0.10977936 C49.59436528 0.10671039 53.68287226 0.11882759 57.77149963 0.13591003 C59.73310854 0.14294336 61.69473548 0.14606416 63.65635681 0.1452179 C66.39753844 0.14701484 69.1378713 0.16838766 71.87890625 0.1953125 C72.6904567 0.1923819 73.50200714 0.18945129 74.33815002 0.18643188 C77.5641044 0.23534319 80.0348235 0.41200764 82.94114685 1.87171936 C84.80094266 4.03588431 84.94988726 5.09891253 84.97290039 7.93139648 C84.98873672 8.79917221 85.00457306 9.66694794 85.02088928 10.5610199 C85.01592941 11.49543411 85.01096954 12.42984833 85.00585938 13.39257812 C85.01205795 14.35547256 85.01825653 15.318367 85.02464294 16.31044006 C85.03174789 18.34716785 85.02855536 20.38395363 85.01586914 22.4206543 C85.00201844 25.53803462 85.03604584 28.65240536 85.07421875 31.76953125 C85.07517007 33.74804761 85.07331043 35.72656773 85.06835938 37.70507812 C85.08161758 38.63746811 85.09487579 39.56985809 85.10853577 40.53050232 C85.0897361 41.83689415 85.0897361 41.83689415 85.07055664 43.16967773 C85.06959488 43.93340195 85.06863312 44.69712616 85.06764221 45.48399353 C84.07169212 48.86292761 82.44212786 49.85242879 79.43945312 51.61523438 C76.48846672 52.00763125 73.91237212 52.17310164 70.96484375 52.14868164 C69.70295479 52.161605 69.70295479 52.161605 68.41557312 52.17478943 C65.64196785 52.19744426 62.86937327 52.19071204 60.09570312 52.18164062 C58.1642629 52.18687615 56.23282524 52.19315237 54.3013916 52.20042419 C50.25630652 52.21082729 46.21157324 52.20626779 42.16650391 52.19165039 C36.98433318 52.17445619 31.80327054 52.19796616 26.62122345 52.23313999 C22.63373476 52.25510543 18.64651161 52.25367469 14.65898132 52.24537468 C12.74841598 52.24455482 10.8378312 52.25142489 8.92732239 52.26614571 C6.25554355 52.28357759 3.5857612 52.26906194 0.9140625 52.24633789 C0.12637985 52.25803009 -0.6613028 52.26972229 -1.47285461 52.2817688 C-5.43949087 52.21316813 -7.35899804 51.76848768 -10.55076599 49.34153748 C-12.53668907 46.6475979 -13.18718984 45.61990234 -13.19165039 42.36328125 C-13.2041835 41.55894653 -13.21671661 40.75461182 -13.22962952 39.92590332 C-13.21637131 39.07057007 -13.2031131 38.21523682 -13.18945312 37.33398438 C-13.19186508 36.44287964 -13.19427704 35.5517749 -13.19676208 34.63366699 C-13.1957849 32.75426777 -13.18242198 30.87483931 -13.1574707 28.99560547 C-13.12315555 26.12432758 -13.13681899 23.25612799 -13.15625 20.38476562 C-13.14935125 18.55532548 -13.1396786 16.72589326 -13.12695312 14.89648438 C-13.13191299 14.04115112 -13.13687286 13.18581787 -13.14198303 12.30456543 C-13.1261467 11.50023071 -13.11031036 10.695896 -13.09399414 9.8671875 C-13.08779556 9.16501099 -13.08159698 8.46283447 -13.07521057 7.73937988 C-11.31714866 0.48341965 -6.60529062 -0.10795088 0 0 Z M-4.56054688 8.61523438 C-4.56054688 20.16523438 -4.56054688 31.71523437 -4.56054688 43.61523438 C22.16945313 43.61523438 48.89945312 43.61523438 76.43945312 43.61523438 C76.43945312 32.06523437 76.43945312 20.51523438 76.43945312 8.61523438 C49.70945312 8.61523438 22.97945313 8.61523438 -4.56054688 8.61523438 Z " fill="#373736" transform="translate(359.560546875,195.384765625)"/>
<path d="M0 0 C1.7015625 -0.00290039 1.7015625 -0.00290039 3.4375 -0.00585938 C4.613125 0.01798828 5.78875 0.04183594 7 0.06640625 C8.7634375 0.0499707 8.7634375 0.0499707 10.5625 0.03320312 C20.47186328 0.11765793 20.47186328 0.11765793 25 4.62890625 C25.66102394 8.15436728 25.54864293 9.81108998 23.54296875 12.80078125 C19.73796196 15.53617783 16.30845681 15.06409356 11.75 14.87890625 C10.90953125 14.86085938 10.0690625 14.8428125 9.203125 14.82421875 C7.13492605 14.77721423 5.06731559 14.70547349 3 14.62890625 C3 17.59890625 3 20.56890625 3 23.62890625 C4.33675781 23.59410156 5.67351562 23.55929687 7.05078125 23.5234375 C8.80467495 23.49530017 10.55858222 23.46799995 12.3125 23.44140625 C13.19357422 23.41626953 14.07464844 23.39113281 14.98242188 23.36523438 C15.82998047 23.35556641 16.67753906 23.34589844 17.55078125 23.3359375 C18.33106689 23.32022705 19.11135254 23.3045166 19.9152832 23.28833008 C22.55430515 23.71946202 23.41105899 24.51083577 25 26.62890625 C25.51437922 30.08259529 25.50387244 31.87241852 23.55078125 34.8046875 C19.73838903 37.53116096 16.3102466 37.06416627 11.75 36.87890625 C10.48929688 36.85183594 10.48929688 36.85183594 9.203125 36.82421875 C7.13492605 36.77721423 5.06731559 36.70547349 3 36.62890625 C3 39.26890625 3 41.90890625 3 44.62890625 C4.16917969 44.5825 5.33835938 44.53609375 6.54296875 44.48828125 C8.0911202 44.45075031 9.63929939 44.41435156 11.1875 44.37890625 C11.95642578 44.34539062 12.72535156 44.311875 13.51757812 44.27734375 C17.50846777 44.20883062 19.51974146 44.33776506 23.015625 46.45703125 C25 48.62890625 25 48.62890625 25.5625 51.62890625 C24.8687732 55.32878251 23.93220845 56.3206498 21 58.62890625 C16.56105922 59.45881004 12.07032628 59.23150727 7.5625 59.19140625 C5.72075195 59.22717773 5.72075195 59.22717773 3.84179688 59.26367188 C2.65779297 59.26173828 1.47378906 59.25980469 0.25390625 59.2578125 C-1.36535767 59.25890015 -1.36535767 59.25890015 -3.01733398 59.26000977 C-7.22427176 58.36986209 -8.5635307 57.18224046 -11 53.62890625 C-11.72500968 50.02090607 -11.70090127 46.48694063 -11.6640625 42.81640625 C-11.66884613 41.7699292 -11.67362976 40.72345215 -11.67855835 39.64526367 C-11.68195548 37.43634536 -11.67276625 35.22737664 -11.65185547 33.01855469 C-11.62508896 29.64013415 -11.65161143 26.26503611 -11.68359375 22.88671875 C-11.68028962 20.73827393 -11.67388333 18.58983117 -11.6640625 16.44140625 C-11.67418365 15.43295654 -11.68430481 14.42450684 -11.69473267 13.38549805 C-11.61800968 8.78780543 -11.49694079 6.34833361 -8.83349609 2.49243164 C-5.57800525 0.35136998 -3.86774488 -0.00271951 0 0 Z " fill="#FFFCF7" transform="translate(221,301.37109375)"/>
<path d="M0 0 C1.14210938 0.00386719 2.28421875 0.00773437 3.4609375 0.01171875 C4.64945313 0.03621094 5.83796875 0.06070312 7.0625 0.0859375 C8.25101563 0.08722656 9.43953125 0.08851563 10.6640625 0.08984375 C20.58421392 0.19061278 20.58421392 0.19061278 24.0625 2.4609375 C25.60413175 5.544201 25.35997535 8.06971849 25.0625 11.4609375 C23.2668382 13.59237345 21.81822563 14.37336886 19.04614258 14.69458008 C16.62777774 14.75664182 14.23047247 14.7221101 11.8125 14.6484375 C10.97203125 14.63490234 10.1315625 14.62136719 9.265625 14.60742188 C7.19764062 14.57217214 5.12998729 14.5183677 3.0625 14.4609375 C3.0625 17.1009375 3.0625 19.7409375 3.0625 22.4609375 C4.31546875 22.41453125 5.5684375 22.368125 6.859375 22.3203125 C8.51039281 22.28278937 10.16143642 22.24638979 11.8125 22.2109375 C13.05 22.16066406 13.05 22.16066406 14.3125 22.109375 C15.51132813 22.09003906 15.51132813 22.09003906 16.734375 22.0703125 C17.4675293 22.04936523 18.20068359 22.02841797 18.95605469 22.00683594 C22.07026753 22.67818919 23.18578894 23.91646041 25.0625 26.4609375 C25.58007812 29.52954102 25.58007812 29.52954102 25.59375 33.08984375 C25.60148437 35.01280273 25.60148437 35.01280273 25.609375 36.97460938 C25.59680664 37.9712561 25.59680664 37.9712561 25.58398438 38.98803711 C25.56252332 41.02122817 25.58381708 43.05090132 25.609375 45.08398438 C25.60421875 46.36466797 25.5990625 47.64535156 25.59375 48.96484375 C25.58923828 50.13861572 25.58472656 51.3123877 25.58007812 52.52172852 C25.0625 55.4609375 25.0625 55.4609375 23.4140625 57.33984375 C18.51615054 59.6748948 12.8827395 58.92894982 7.5625 58.8984375 C5.70818359 58.9284082 5.70818359 58.9284082 3.81640625 58.95898438 C2.62917969 58.95833984 1.44195312 58.95769531 0.21875 58.95703125 C-0.86599609 58.95888428 -1.95074219 58.9607373 -3.06835938 58.96264648 C-6.60637418 58.34397558 -7.77832464 57.28223868 -9.9375 54.4609375 C-10.5 51.4609375 -10.5 51.4609375 -9.9375 48.4609375 C-7.81119101 46.13371742 -6.11171268 44.64746123 -2.93334961 44.14257812 C-0.65114981 44.06771044 1.59387189 44.11150861 3.875 44.2109375 C4.66326172 44.22898437 5.45152344 44.24703125 6.26367188 44.265625 C8.19714261 44.31249702 10.12998285 44.3842334 12.0625 44.4609375 C12.0625 41.8209375 12.0625 39.1809375 12.0625 36.4609375 C10.80953125 36.50734375 9.5565625 36.55375 8.265625 36.6015625 C6.61460719 36.63908563 4.96356358 36.67548521 3.3125 36.7109375 C2.4875 36.74445313 1.6625 36.77796875 0.8125 36.8125 C0.01328125 36.82539063 -0.7859375 36.83828125 -1.609375 36.8515625 C-2.70910645 36.8829834 -2.70910645 36.8829834 -3.83105469 36.91503906 C-6.93584432 36.24571724 -8.05977902 34.98987916 -9.9375 32.4609375 C-10.45507812 29.5 -10.45507812 29.5 -10.46875 26.0859375 C-10.47390625 24.85359375 -10.4790625 23.62125 -10.484375 22.3515625 C-10.46890625 21.06765625 -10.4534375 19.78375 -10.4375 18.4609375 C-10.45296875 17.17703125 -10.4684375 15.893125 -10.484375 14.5703125 C-10.47921875 13.33796875 -10.4740625 12.105625 -10.46875 10.8359375 C-10.46423828 9.70929688 -10.45972656 8.58265625 -10.45507812 7.421875 C-9.9375 4.4609375 -9.9375 4.4609375 -8.27539062 2.09130859 C-5.31571138 0.02732175 -3.5891423 -0.0282828 0 0 Z " fill="#FFFDFA" transform="translate(92.9375,301.5390625)"/>
<path d="M0 0 C3.45417579 3.45417579 4.43745946 7.20571249 5.81640625 11.8359375 C7.26954298 16.64071248 8.77975707 21.41887108 10.359375 26.18359375 C10.94912109 27.97506836 10.94912109 27.97506836 11.55078125 29.80273438 C12.35993258 32.25522725 13.17518205 34.70571542 13.99609375 37.15429688 C14.38410156 38.33958984 14.77210938 39.52488281 15.171875 40.74609375 C15.6992627 42.33442017 15.6992627 42.33442017 16.23730469 43.95483398 C17.03257335 47.13005358 17.25507036 49.74092791 17 53 C15.375 55.375 15.375 55.375 13 57 C10 57.5625 10 57.5625 7 57 C4.625 54.75 4.625 54.75 3 52 C3 50.68 3 49.36 3 48 C-3.435 48.495 -3.435 48.495 -10 49 C-10.99 51.475 -10.99 51.475 -12 54 C-13.75 55.875 -13.75 55.875 -16 57 C-19.67293796 56.77962372 -21.36966546 56.63033454 -24 54 C-24.61066306 47.58803787 -23.55631172 43.13580701 -21.203125 37.203125 C-19.78696925 33.43284022 -18.66858351 29.62020577 -17.5625 25.75 C-15.89512139 20.00093015 -14.20125638 14.263372 -12.375 8.5625 C-11.99085938 7.34691406 -11.60671875 6.13132812 -11.2109375 4.87890625 C-8.94983973 -0.49667135 -5.36264156 -0.75265145 0 0 Z " fill="#FFFCF9" transform="translate(147,303)"/>
<path d="M0 0 C2.19824219 1.46972656 2.19824219 1.46972656 4 4 C4.54764175 6.97983258 4.4655452 9.90101952 4.390625 12.921875 C4.38496521 13.78186096 4.37930542 14.64184692 4.37347412 15.52789307 C4.35111951 18.26916649 4.30092602 21.00912304 4.25 23.75 C4.22993376 25.61065818 4.21168321 27.47133689 4.1953125 29.33203125 C4.15125784 33.88852666 4.08223754 38.44404022 4 43 C5.18078125 42.95359375 6.3615625 42.9071875 7.578125 42.859375 C9.13539134 42.82185051 10.69268508 42.78545107 12.25 42.75 C13.02730469 42.71648437 13.80460937 42.68296875 14.60546875 42.6484375 C20.36852053 42.54992379 20.36852053 42.54992379 23.515625 44.79296875 C25.67883308 48.0093176 25.54974969 50.22047089 25 54 C22.74660053 56.30986811 21.34133297 56.95193107 18.13085938 57.40405273 C14.58646899 57.43590592 11.04453857 57.45782843 7.5 57.4375 C5.64568359 57.4674707 5.64568359 57.4674707 3.75390625 57.49804688 C2.56667969 57.49740234 1.37945312 57.49675781 0.15625 57.49609375 C-0.92849609 57.49794678 -2.01324219 57.4997998 -3.13085938 57.50170898 C-6 57 -6 57 -8.35375977 55.67041016 C-11.04700242 51.30162948 -10.54919457 46.80492758 -10.49609375 41.77734375 C-10.49754898 40.68031631 -10.49900421 39.58328888 -10.50050354 38.45301819 C-10.49884445 36.13556256 -10.48728222 33.81809593 -10.46655273 31.50073242 C-10.43757974 27.94727982 -10.445948 24.39531693 -10.45898438 20.84179688 C-10.45274765 18.59113856 -10.44435722 16.34048497 -10.43359375 14.08984375 C-10.43652939 13.02418686 -10.43946503 11.95852997 -10.44248962 10.86058044 C-10.42980545 9.87268021 -10.41712128 8.88477997 -10.40405273 7.86694336 C-10.39864975 6.99742538 -10.39324677 6.12790741 -10.38768005 5.23204041 C-9.37661408 -0.58910023 -5.15610794 -0.63320624 0 0 Z " fill="#FFFCF8" transform="translate(178,303)"/>
</svg>
