<?xml version="1.0" encoding="UTF-8"?>
<svg version="1.1" xmlns="http://www.w3.org/2000/svg" width="512" height="512">
<path d="M0 0 C3.14594027 1.47090755 5.93831345 3.36155053 8.796875 5.32421875 C9.64602478 5.8886116 10.49517456 6.45300446 11.37005615 7.03450012 C14.17385896 8.90366505 16.96166424 10.79535592 19.75 12.6875 C21.72498345 14.01050096 23.70091093 15.33209368 25.67773438 16.65234375 C30.80039992 20.07969077 35.90969908 23.52638117 41.0144043 26.98040771 C44.75988985 29.51402395 48.50953364 32.0414404 52.2592926 34.56872559 C58.4444336 38.73745284 64.62768521 42.90893738 70.80493164 47.08935547 C88.40667898 58.99397534 106.15859088 70.66729973 123.91635132 82.33731079 C131.18139547 87.11387565 138.41746787 91.93227755 145.64257812 96.76904297 C152.04919624 101.05023743 158.47921949 105.29466419 164.91796875 109.52734375 C183.31459472 121.62210951 201.6900535 133.74336767 219.9375 146.0625 C220.72530853 146.59342255 221.51311707 147.12434509 222.32479858 147.6713562 C224.53988662 149.1650694 226.75279645 150.66194475 228.96484375 152.16015625 C229.60862976 152.59425812 230.25241577 153.02835999 230.91571045 153.47561646 C237.48026875 157.93604796 242.45827919 161.32046921 245 169 C246.11210026 175.43670149 244.72192622 180.67087836 241 186 C236.82212929 190.07074582 232.73070042 192.04071925 226.9375 192.5 C215.64388087 192.06918737 204.78608701 182.77558562 195.75 176.625 C191.5425 173.77875 187.335 170.9325 183 168 C182.67 183.84 182.34 199.68 182 216 C186.89972656 215.95359375 191.79945313 215.9071875 196.84765625 215.859375 C199.96030778 215.83892564 203.07287594 215.81966922 206.18554688 215.8046875 C211.12118835 215.78081861 216.0565317 215.75264714 220.99194336 215.69824219 C224.97309565 215.65463335 228.95392803 215.63083135 232.93530083 215.62049103 C234.45070872 215.61312649 235.96610002 215.5987452 237.48137093 215.57707977 C252.38323216 215.37257518 252.38323216 215.37257518 258 220 C261.0361543 223.26665243 261.37748682 225.50226274 261.38768005 229.91416931 C261.402537 231.72903587 261.402537 231.72903587 261.41769409 233.58056641 C261.41345611 234.91821391 261.40889826 236.25586042 261.40405273 237.59350586 C261.40975608 239.00468995 261.4167202 240.41586943 261.42485046 241.82704163 C261.4428015 245.65766329 261.44160986 249.48805613 261.43590808 253.31870723 C261.43281891 256.5170709 261.43890566 259.71539045 261.44494683 262.91374785 C261.45899692 270.45938156 261.45742687 278.00490207 261.44604492 285.55053711 C261.4345638 293.33389723 261.44863798 301.11691278 261.4754414 308.90022749 C261.49759621 315.58400745 261.50423627 322.26767924 261.49836498 328.95149332 C261.49499357 332.94287876 261.49742246 336.93404332 261.51461601 340.92539787 C261.53007969 344.67905123 261.52613659 348.43219411 261.50731087 352.18582726 C261.50362327 353.56246594 261.50673855 354.9391424 261.51719666 356.31574631 C261.53039429 358.19674114 261.51645846 360.07786776 261.50120544 361.95884705 C261.50099616 363.01094832 261.50078688 364.0630496 261.50057125 365.14703274 C260.86887504 368.74733658 259.50822396 370.38562339 257 373 C252.22723177 376.18184548 247.92273692 376.12414828 242.28198242 376.11352539 C241.28490375 376.11370619 241.28490375 376.11370619 240.26768208 376.11389065 C238.1302428 376.11314824 235.99289229 376.10555083 233.85546875 376.09765625 C232.54340454 376.09664917 231.23134033 376.09564209 229.8795166 376.09460449 C224.98216883 376.08937576 220.08483353 376.07541449 215.1875 376.0625 C204.235625 376.041875 193.28375 376.02125 182 376 C182 398.77 182 421.54 182 445 C194.89399024 444.88152392 194.89399024 444.88152392 207.78759766 444.72973633 C209.41307991 444.7209683 211.03856878 444.71332511 212.6640625 444.70703125 C213.49703857 444.69168335 214.33001465 444.67633545 215.18823242 444.66052246 C221.75513155 444.65758819 225.84948498 446.04064187 230.8125 450.5625 C233.90506012 454.60893418 234.37674353 459.01775908 234 464 C232.73301984 468.83605498 231.08111529 471.27557051 226.89534336 474.08035612 C223.01844465 476.23311043 219.45886177 476.5613829 215.08075619 476.50336456 C214.30964358 476.50917833 213.53853097 476.51499209 212.74405131 476.52098203 C210.16270131 476.53556854 207.5823042 476.52170351 205.0009613 476.50793457 C203.13065657 476.51254401 201.26035545 476.51889722 199.39006191 476.52684355 C194.25244954 476.5435538 189.11513408 476.53528273 183.97752059 476.52289867 C178.43621591 476.51385756 172.8949627 476.52781322 167.35366821 476.53881836 C156.4992864 476.55661781 145.64501513 476.55275732 134.79062896 476.5411678 C125.97075718 476.53213984 117.15091641 476.53090671 108.33104134 476.53526306 C107.07648346 476.53587599 105.82192559 476.53648893 104.52935081 476.53712043 C101.98087492 476.53839931 99.43239905 476.53969616 96.88392318 476.5410108 C73.66105593 476.55209531 50.43825346 476.54059435 27.21539993 476.51964041 C6.01376621 476.50065571 -15.18777142 476.50235849 -36.3894043 476.52148438 C-60.20902713 476.5429001 -84.02859696 476.55132428 -107.84823269 476.53903532 C-110.38710748 476.5377611 -112.92598229 476.53650362 -115.4648571 476.53526306 C-116.71408987 476.53464596 -117.96332263 476.53402886 -119.25041093 476.53339306 C-128.06222821 476.52993644 -136.87401144 476.53577517 -145.68582344 476.54518127 C-156.42075896 476.55638815 -167.15557746 476.5533887 -177.89049954 476.5320583 C-183.36970299 476.52153062 -188.84871118 476.51745542 -194.32791328 476.53065491 C-199.34088062 476.5425488 -204.35347115 476.53606582 -209.36640417 476.5147447 C-211.1825712 476.51026592 -212.99876989 476.51257338 -214.81491668 476.52224785 C-217.27926602 476.53437118 -219.74231633 476.52197897 -222.20659733 476.50336456 C-223.27010553 476.51741156 -223.27010553 476.51741156 -224.35509875 476.53174233 C-229.3458325 476.45613652 -232.1363761 475.09034179 -236 472 C-239.42917072 468.30010527 -240.29969749 465.4207651 -240.5 460.5 C-240.29279901 455.57396351 -239.48814876 452.66702818 -236 449 C-229 445 -229 445 -189 445 C-189.33 353.59 -189.66 262.18 -190 168 C-200.89 175.26 -211.78 182.52 -223 190 C-228.70396968 192.28158787 -233.23382721 193.18577175 -239.18359375 191.3125 C-244.61706179 188.84741053 -248.30110373 185.39779255 -251 180 C-251.48455385 174.2489018 -251.85273008 168.87600617 -249.4375 163.5625 C-243.97766965 157.82267835 -237.83301585 153.38190403 -231.203125 149.08984375 C-230.35315948 148.53339676 -229.50319397 147.97694977 -228.62747192 147.40364075 C-226.79452384 146.2039781 -224.96022023 145.00638447 -223.12469482 143.81066895 C-218.17728163 140.58690388 -213.24083752 137.34644425 -208.3046875 134.10546875 C-206.77813034 133.10358017 -206.77813034 133.10358017 -205.22073364 132.08145142 C-194.54347154 125.06255676 -183.95540339 117.91371038 -173.375 110.75 C-160.32574276 101.92137567 -147.24066251 93.16586643 -134.03125 84.578125 C-110.39884208 69.21283475 -86.87962589 53.67208141 -63.52182007 37.89254761 C-60.83361813 36.07676453 -58.14411802 34.26291871 -55.4543457 32.44946289 C-47.81924865 27.29903119 -40.19124897 22.13964821 -32.59989929 16.92488098 C-29.53897821 14.82551215 -26.46984831 12.73837227 -23.39901733 10.65353394 C-21.98448064 9.68855391 -20.57388741 8.71776351 -19.16763306 7.74075317 C-17.25162663 6.40998692 -15.32315898 5.099569 -13.390625 3.79296875 C-11.7823584 2.68731567 -11.7823584 2.68731567 -10.14160156 1.55932617 C-6.26612036 -0.36425935 -4.28464879 -0.66883161 0 0 Z " fill="#61AFF6" transform="translate(251,18)"/>
<path d="M0 0 C3.14594027 1.47090755 5.93831345 3.36155053 8.796875 5.32421875 C9.64602478 5.8886116 10.49517456 6.45300446 11.37005615 7.03450012 C14.17385896 8.90366505 16.96166424 10.79535592 19.75 12.6875 C21.72498345 14.01050096 23.70091093 15.33209368 25.67773438 16.65234375 C30.80039992 20.07969077 35.90969908 23.52638117 41.0144043 26.98040771 C44.75988985 29.51402395 48.50953364 32.0414404 52.2592926 34.56872559 C58.4444336 38.73745284 64.62768521 42.90893738 70.80493164 47.08935547 C88.40667898 58.99397534 106.15859088 70.66729973 123.91635132 82.33731079 C131.18139547 87.11387565 138.41746787 91.93227755 145.64257812 96.76904297 C152.04919624 101.05023743 158.47921949 105.29466419 164.91796875 109.52734375 C183.31459472 121.62210951 201.6900535 133.74336767 219.9375 146.0625 C220.72530853 146.59342255 221.51311707 147.12434509 222.32479858 147.6713562 C224.53988662 149.1650694 226.75279645 150.66194475 228.96484375 152.16015625 C229.60862976 152.59425812 230.25241577 153.02835999 230.91571045 153.47561646 C237.48026875 157.93604796 242.45827919 161.32046921 245 169 C246.11210026 175.43670149 244.72192622 180.67087836 241 186 C236.82212929 190.07074582 232.73070042 192.04071925 226.9375 192.5 C215.64388087 192.06918737 204.78608701 182.77558562 195.75 176.625 C191.5425 173.77875 187.335 170.9325 183 168 C182.67 184.17 182.34 200.34 182 217 C178.42807327 217.00364563 174.85614655 217.00729126 171.17597961 217.01104736 C138.43433478 217.0463106 105.6927723 217.10132181 72.95119734 217.17792095 C68.66155704 217.18793863 64.37191635 217.19778272 60.08227539 217.20751953 C58.80126898 217.21043159 58.80126898 217.21043159 57.49438366 217.21340248 C43.65939876 217.24443886 29.82443045 217.2614077 15.98941729 217.27319422 C1.79751999 217.2855973 -12.39429009 217.3130796 -26.58613235 217.35461307 C-35.3460288 217.37977268 -44.10578065 217.39311549 -52.86571375 217.39142957 C-58.86956196 217.39139986 -64.87326266 217.40599323 -70.8770534 217.43216428 C-74.34299608 217.44683834 -77.80863627 217.45498943 -81.2746048 217.44580269 C-85.03041668 217.43920506 -88.78533913 217.45698344 -92.5410614 217.48101807 C-93.63930841 217.47325765 -94.73755541 217.46549723 -95.86908263 217.45750165 C-101.75342926 217.51773338 -101.75342926 217.51773338 -107.09118366 219.78243637 C-110.55808813 223.81010582 -111.24998102 226.44196585 -111.26742554 231.75558472 C-111.27595551 232.93039398 -111.28448547 234.10520325 -111.29327393 235.31561279 C-111.29236755 236.60090881 -111.29146118 237.88620483 -111.29052734 239.21044922 C-111.2965131 240.58060065 -111.30331876 241.95074871 -111.31088257 243.32089233 C-111.32854507 247.03996604 -111.33323805 250.7589477 -111.33451414 254.47805929 C-111.33593616 256.80250219 -111.34020672 259.12692171 -111.34550858 261.4513588 C-111.36400969 269.563128 -111.37217909 277.67483149 -111.37060547 285.78662109 C-111.36940405 293.34387179 -111.39050615 300.90083689 -111.4220928 308.45801532 C-111.44825823 314.94986941 -111.45897266 321.44163024 -111.45769465 327.93353665 C-111.45718509 331.80927707 -111.4628647 335.68476368 -111.48405075 339.56045151 C-111.50343789 343.20656884 -111.50355485 346.85219036 -111.48901749 350.49832535 C-111.48593481 352.47001805 -111.50260256 354.44171082 -111.51989746 356.41333008 C-111.49993873 365.02654313 -111.49993873 365.02654313 -107 372 C-103.19401399 374.53732401 -100.03184207 374.35000234 -95.61328125 374.4140625 C-94.52678284 374.44052856 -94.52678284 374.44052856 -93.41833496 374.4675293 C-90.7166144 374.53052095 -88.01452421 374.57675977 -85.3125 374.625 C-76.2478125 374.810625 -76.2478125 374.810625 -67 375 C-67 398.1 -67 421.2 -67 445 C-107.26 445 -147.52 445 -189 445 C-189.33 353.59 -189.66 262.18 -190 168 C-200.89 175.26 -211.78 182.52 -223 190 C-228.70396968 192.28158787 -233.23382721 193.18577175 -239.18359375 191.3125 C-244.61706179 188.84741053 -248.30110373 185.39779255 -251 180 C-251.48455385 174.2489018 -251.85273008 168.87600617 -249.4375 163.5625 C-243.97766965 157.82267835 -237.83301585 153.38190403 -231.203125 149.08984375 C-230.35315948 148.53339676 -229.50319397 147.97694977 -228.62747192 147.40364075 C-226.79452384 146.2039781 -224.96022023 145.00638447 -223.12469482 143.81066895 C-218.17728163 140.58690388 -213.24083752 137.34644425 -208.3046875 134.10546875 C-206.77813034 133.10358017 -206.77813034 133.10358017 -205.22073364 132.08145142 C-194.54347154 125.06255676 -183.95540339 117.91371038 -173.375 110.75 C-160.32574276 101.92137567 -147.24066251 93.16586643 -134.03125 84.578125 C-110.39884208 69.21283475 -86.87962589 53.67208141 -63.52182007 37.89254761 C-60.83361813 36.07676453 -58.14411802 34.26291871 -55.4543457 32.44946289 C-47.81924865 27.29903119 -40.19124897 22.13964821 -32.59989929 16.92488098 C-29.53897821 14.82551215 -26.46984831 12.73837227 -23.39901733 10.65353394 C-21.98448064 9.68855391 -20.57388741 8.71776351 -19.16763306 7.74075317 C-17.25162663 6.40998692 -15.32315898 5.099569 -13.390625 3.79296875 C-11.7823584 2.68731567 -11.7823584 2.68731567 -10.14160156 1.55932617 C-6.26612036 -0.36425935 -4.28464879 -0.66883161 0 0 Z " fill="#E0EEFA" transform="translate(251,18)"/>
<path d="M0 0 C53.46 0 106.92 0 162 0 C162 23.1 162 46.2 162 70 C171.09820312 69.96519531 180.19640625 69.93039062 189.5703125 69.89453125 C195.33073172 69.8792045 201.09113617 69.86463863 206.8515625 69.85351562 C215.99679613 69.83571499 225.14194684 69.81478912 234.28710938 69.77368164 C240.94750146 69.7437575 247.60782628 69.72441984 254.26828372 69.71773452 C257.79418637 69.71382734 261.31989656 69.7046599 264.84573746 69.68280983 C268.7840762 69.65860196 272.72222755 69.65803195 276.66064453 69.65942383 C277.82661667 69.648638 278.99258881 69.63785217 280.19389343 69.6267395 C287.62334414 69.65519205 292.16385263 70.41595462 297.8125 75.5625 C300.90506012 79.60893418 301.37674353 84.01775908 301 89 C299.73301984 93.83605498 298.08111529 96.27557051 293.89534336 99.08035612 C290.01844465 101.23311043 286.45886177 101.5613829 282.08075619 101.50336456 C280.92408727 101.51208521 280.92408727 101.51208521 279.74405131 101.52098203 C277.16270131 101.53556854 274.5823042 101.52170351 272.0009613 101.50793457 C270.13065657 101.51254401 268.26035545 101.51889722 266.39006191 101.52684355 C261.25244954 101.5435538 256.11513408 101.53528273 250.97752059 101.52289867 C245.43621591 101.51385756 239.8949627 101.52781322 234.35366821 101.53881836 C223.4992864 101.55661781 212.64501513 101.55275732 201.79062896 101.5411678 C192.97075718 101.53213984 184.15091641 101.53090671 175.33104134 101.53526306 C174.07648346 101.53587599 172.82192559 101.53648893 171.52935081 101.53712043 C168.98087492 101.53839931 166.43239905 101.53969616 163.88392318 101.5410108 C140.66105593 101.55209531 117.43825346 101.54059435 94.21539993 101.51964041 C73.01376621 101.50065571 51.81222858 101.50235849 30.6105957 101.52148438 C6.79097287 101.5429001 -17.02859696 101.55132428 -40.84823269 101.53903532 C-43.38710748 101.5377611 -45.92598229 101.53650362 -48.4648571 101.53526306 C-49.71408987 101.53464596 -50.96332263 101.53402886 -52.25041093 101.53339306 C-61.06222821 101.52993644 -69.87401144 101.53577517 -78.68582344 101.54518127 C-89.42075896 101.55638815 -100.15557746 101.5533887 -110.89049954 101.5320583 C-116.36970299 101.52153062 -121.84871118 101.51745542 -127.32791328 101.53065491 C-132.34088062 101.5425488 -137.35347115 101.53606582 -142.36640417 101.5147447 C-144.1825712 101.51026592 -145.99876989 101.51257338 -147.81491668 101.52224785 C-150.27926602 101.53437118 -152.74231633 101.52197897 -155.20659733 101.50336456 C-156.27010553 101.51741156 -156.27010553 101.51741156 -157.35509875 101.53174233 C-162.3458325 101.45613652 -165.1363761 100.09034179 -169 97 C-172.42917072 93.30010527 -173.29969749 90.4207651 -173.5 85.5 C-173.29279901 80.57396351 -172.48814876 77.66702818 -169 74 C-162.2308355 68.60191655 -154.57611662 69.46435821 -146.33422852 69.54589844 C-144.73715748 69.54702769 -143.14008436 69.54639153 -141.54301453 69.54412842 C-137.22106954 69.54298338 -132.89957095 69.56645846 -128.57772946 69.59442425 C-124.05606951 69.61947302 -119.53439869 69.62178264 -115.01268005 69.62652588 C-106.45631706 69.63894545 -97.90015912 69.67175325 -89.34388632 69.71192384 C-79.6002866 69.75667327 -69.85667697 69.77863656 -60.11300004 69.79870558 C-40.07519357 69.84048685 -20.03766812 69.91382646 0 70 C0 46.9 0 23.8 0 0 Z " fill="#FEB025" transform="translate(184,393)"/>
<path d="M0 0 C3.14594027 1.47090755 5.93831345 3.36155053 8.796875 5.32421875 C9.64602478 5.8886116 10.49517456 6.45300446 11.37005615 7.03450012 C14.17385896 8.90366505 16.96166424 10.79535592 19.75 12.6875 C21.72498345 14.01050096 23.70091093 15.33209368 25.67773438 16.65234375 C30.80039992 20.07969077 35.90969908 23.52638117 41.0144043 26.98040771 C44.75988985 29.51402395 48.50953364 32.0414404 52.2592926 34.56872559 C58.4444336 38.73745284 64.62768521 42.90893738 70.80493164 47.08935547 C88.40667898 58.99397534 106.15859088 70.66729973 123.91635132 82.33731079 C131.18139547 87.11387565 138.41746787 91.93227755 145.64257812 96.76904297 C152.04919624 101.05023743 158.47921949 105.29466419 164.91796875 109.52734375 C183.31459472 121.62210951 201.6900535 133.74336767 219.9375 146.0625 C220.72530853 146.59342255 221.51311707 147.12434509 222.32479858 147.6713562 C224.53988662 149.1650694 226.75279645 150.66194475 228.96484375 152.16015625 C229.60862976 152.59425812 230.25241577 153.02835999 230.91571045 153.47561646 C237.48026875 157.93604796 242.45827919 161.32046921 245 169 C246.11210026 175.43670149 244.72192622 180.67087836 241 186 C236.82212929 190.07074582 232.73070042 192.04071925 226.9375 192.5 C215.60748732 192.06765932 204.98578739 182.88400265 195.9375 176.625 C194.73677131 175.80403893 193.53560049 174.98372412 192.33398438 174.1640625 C187.14607305 170.61446466 182.00119843 167.02072835 176.953125 163.2734375 C169.09237585 157.51754181 160.88871303 152.25975654 152.74243164 146.92041016 C147.76886028 143.66050578 142.80092015 140.39203511 137.83203125 137.125 C136.86564728 136.48997559 135.89926331 135.85495117 134.90359497 135.20068359 C128.25061868 130.82763922 121.61486751 126.43052457 115 122 C107.78623547 117.17064869 100.54764067 112.38089022 93.29296875 107.61328125 C71.3744681 93.20616362 49.53644105 78.69101806 27.81611633 63.98649597 C26.17771441 62.87815257 24.53848574 61.77103012 22.89836121 60.66523743 C19.13467979 58.12744735 15.38220661 55.57665134 11.65478516 52.98583984 C10.97503128 52.51881149 10.2952774 52.05178314 9.59492493 51.57060242 C8.34328645 50.71058996 7.09697026 49.84274962 5.85758972 48.96516418 C2.2519051 46.50494586 -0.59453208 44.97405622 -5 45 C-7.60110609 46.23714149 -9.71256269 47.45002163 -12.06640625 49.0546875 C-13.0961129 49.72756302 -13.0961129 49.72756302 -14.1466217 50.41403198 C-16.44407676 51.92401651 -18.72244496 53.46018661 -21 55 C-22.64149734 56.09707927 -24.28326848 57.19374896 -25.92529297 58.29003906 C-30.34582638 61.2523974 -34.75010143 64.23814611 -39.15039062 67.23046875 C-64.20901963 84.26401475 -64.20901963 84.26401475 -76.5 92 C-88.53355856 99.5854657 -100.28718388 107.57283956 -112.06259155 115.5506897 C-128.38369771 126.60578368 -144.81011415 137.49237295 -161.30786133 148.28198242 C-169.26034571 153.49148726 -177.154345 158.73979268 -184.85552979 164.31523132 C-191.41888636 169.05622803 -198.14428314 173.55356395 -204.88061523 178.04394531 C-207.09501854 179.52170086 -209.3043544 181.00684226 -211.51367188 182.4921875 C-212.93719982 183.44315784 -214.36101703 184.39369534 -215.78515625 185.34375 C-216.43726578 185.78328003 -217.08937531 186.22281006 -217.76124573 186.67565918 C-224.20834059 190.95222489 -229.28608872 193.03023857 -237 192 C-242.93600354 190.1310615 -246.42146987 186.98825412 -250 182 C-252.21066069 177.57867862 -251.41133675 171.81263995 -251 167 C-247.30313257 158.86689165 -238.48603413 153.80465516 -231.203125 149.08984375 C-230.35315948 148.53339676 -229.50319397 147.97694977 -228.62747192 147.40364075 C-226.79452384 146.2039781 -224.96022023 145.00638447 -223.12469482 143.81066895 C-218.17728163 140.58690388 -213.24083752 137.34644425 -208.3046875 134.10546875 C-206.77813034 133.10358017 -206.77813034 133.10358017 -205.22073364 132.08145142 C-194.54347154 125.06255676 -183.95540339 117.91371038 -173.375 110.75 C-160.32574276 101.92137567 -147.24066251 93.16586643 -134.03125 84.578125 C-110.39884208 69.21283475 -86.87962589 53.67208141 -63.52182007 37.89254761 C-60.83361813 36.07676453 -58.14411802 34.26291871 -55.4543457 32.44946289 C-47.81924865 27.29903119 -40.19124897 22.13964821 -32.59989929 16.92488098 C-29.53897821 14.82551215 -26.46984831 12.73837227 -23.39901733 10.65353394 C-21.98448064 9.68855391 -20.57388741 8.71776351 -19.16763306 7.74075317 C-17.25162663 6.40998692 -15.32315898 5.099569 -13.390625 3.79296875 C-11.7823584 2.68731567 -11.7823584 2.68731567 -10.14160156 1.55932617 C-6.26612036 -0.36425935 -4.28464879 -0.66883161 0 0 Z " fill="#FE4B4B" transform="translate(251,18)"/>
<path d="M0 0 C4.99872122 -0.09935536 9.99685955 -0.17169622 14.99633789 -0.21972656 C16.69468202 -0.23976221 18.39295785 -0.26699885 20.09106445 -0.30175781 C22.5413504 -0.35063415 24.9907194 -0.37304872 27.44140625 -0.390625 C28.56839684 -0.42159271 28.56839684 -0.42159271 29.71815491 -0.45318604 C35.26509613 -0.45551292 38.45002424 0.78792077 43 4 C46.06124339 7.23812574 46.37751592 9.5148593 46.38768005 13.91416931 C46.402537 15.72903587 46.402537 15.72903587 46.41769409 17.58056641 C46.41345611 18.91821391 46.40889826 20.25586042 46.40405273 21.59350586 C46.40975608 23.00468995 46.4167202 24.41586943 46.42485046 25.82704163 C46.4428015 29.65766329 46.44160986 33.48805613 46.43590808 37.31870723 C46.43281891 40.5170709 46.43890566 43.71539045 46.44494683 46.91374785 C46.45899692 54.45938156 46.45742687 62.00490207 46.44604492 69.55053711 C46.4345638 77.33389723 46.44863798 85.11691278 46.4754414 92.90022749 C46.49759621 99.58400745 46.50423627 106.26767924 46.49836498 112.95149332 C46.49499357 116.94287876 46.49742246 120.93404332 46.51461601 124.92539787 C46.53007969 128.67905123 46.52613659 132.43219411 46.50731087 136.18582726 C46.50362327 137.56246594 46.50673855 138.9391424 46.51719666 140.31574631 C46.53039429 142.19674114 46.51645846 144.07786776 46.50120544 145.95884705 C46.50099616 147.01094832 46.50078688 148.0630496 46.50057125 149.14703274 C45.86887504 152.74733658 44.50822396 154.38562339 42 157 C37.22723177 160.18184548 32.92273692 160.12414828 27.28198242 160.11352539 C26.61726331 160.11364593 25.95254419 160.11376646 25.26768208 160.11389065 C23.1302428 160.11314824 20.99289229 160.10555083 18.85546875 160.09765625 C17.54340454 160.09664917 16.23134033 160.09564209 14.8795166 160.09460449 C9.98216883 160.08937576 5.08483353 160.07541449 0.1875 160.0625 C-10.764375 160.041875 -21.71625 160.02125 -33 160 C-33 182.77 -33 205.54 -33 229 C-61.71 229 -90.42 229 -120 229 C-120 205.9 -120 182.8 -120 159 C-125.99687988 159.02618408 -131.99375977 159.05236816 -138.17236328 159.0793457 C-157.9576178 159.16209204 -177.74287902 159.21763736 -197.52826118 159.25906086 C-209.527394 159.28485009 -221.52636297 159.32001459 -233.52539062 159.37719727 C-243.9828985 159.42700994 -254.44028773 159.45928578 -264.89791095 159.47044247 C-270.43596703 159.47696479 -275.97368366 159.49230942 -281.51163101 159.52865028 C-286.72370273 159.56257575 -291.93529501 159.57305981 -297.14746666 159.56553841 C-299.06069099 159.56691448 -300.97393128 159.5768674 -302.88706017 159.59602737 C-305.49985027 159.62091194 -308.11083122 159.61492259 -310.72366333 159.60127258 C-311.85889582 159.62311889 -311.85889582 159.62311889 -313.01706231 159.64540654 C-316.85357059 159.59124246 -319.41088895 159.06046165 -322.39227104 156.71242046 C-325.35578465 153.6299318 -326.86997844 151.71628465 -327.1953125 147.421875 C-327.17210937 146.54015625 -327.14890625 145.6584375 -327.125 144.75 C-327.10695313 143.85796875 -327.08890625 142.9659375 -327.0703125 142.046875 C-327.03550781 141.03367187 -327.03550781 141.03367187 -327 140 C-326.33363191 139.99902319 -325.66726382 139.99804638 -324.98070276 139.99703997 C-285.4993585 139.9387868 -246.01807064 139.86500432 -206.53679457 139.77101372 C-201.79780471 139.75974535 -197.05881457 139.74860693 -192.31982422 139.73754883 C-191.37636381 139.73534514 -190.43290341 139.73314146 -189.46085329 139.730871 C-174.17804673 139.69548425 -158.89524021 139.67062789 -143.61240785 139.64965298 C-127.934554 139.6279019 -112.25675338 139.59485808 -96.5789448 139.55129844 C-86.9023991 139.52476978 -77.22591976 139.50708335 -67.54933949 139.50065396 C-60.91663498 139.4954038 -54.284014 139.47919933 -47.65135424 139.45433434 C-43.82281641 139.44030659 -39.99442818 139.43115327 -36.16586304 139.43499184 C-32.0164523 139.43902598 -27.86746707 139.42001607 -23.71810913 139.39872742 C-21.90001521 139.40599878 -21.90001521 139.40599878 -20.04519212 139.41341704 C-12.1011147 139.36469364 -12.1011147 139.36469364 -5 136 C-1.52262673 132.16289846 -0.87627817 128.81289086 -0.84178162 123.74189758 C-0.8319928 122.65234772 -0.82220398 121.56279785 -0.81211853 120.44023132 C-0.80636307 119.24477188 -0.8006076 118.04931244 -0.79467773 116.81762695 C-0.78477814 115.55897827 -0.77487854 114.30032959 -0.76467896 113.00354004 C-0.73763741 109.55136877 -0.7166238 106.09918384 -0.69667697 102.64696527 C-0.67481279 99.03945439 -0.64742621 95.4319856 -0.62062073 91.82450867 C-0.57069969 84.9928915 -0.52575867 78.16125097 -0.48259836 71.32958812 C-0.43322096 63.55212972 -0.3783047 55.77471354 -0.32291877 47.99729598 C-0.20910776 31.99823633 -0.1022668 15.99913786 0 0 Z " fill="#55A2F0" transform="translate(466,234)"/>
<path d="M0 0 C3.15310303 1.45372616 5.93931739 3.36223982 8.796875 5.32421875 C9.64602478 5.8886116 10.49517456 6.45300446 11.37005615 7.03450012 C14.17385896 8.90366505 16.96166424 10.79535592 19.75 12.6875 C21.72498345 14.01050096 23.70091093 15.33209368 25.67773438 16.65234375 C30.80039992 20.07969077 35.90969908 23.52638117 41.0144043 26.98040771 C44.75998684 29.51408955 48.50972838 32.04157049 52.25958252 34.56892395 C58.45861231 38.74700522 64.65574638 42.92784921 70.84667969 47.11791992 C84.40347477 56.2875371 98.05170115 65.31197365 111.73306274 74.29437256 C127.72845149 84.79949622 143.6180415 95.45501456 159.45507812 106.19726562 C163.51407361 108.94959718 167.5806959 111.69026958 171.65362549 114.42193604 C173.23737682 115.4870946 174.81816874 116.55666484 176.3961792 117.63031006 C178.69507254 119.19267909 181.00425682 120.73859002 183.31640625 122.28125 C184.33362007 122.98019882 184.33362007 122.98019882 185.37138367 123.69326782 C190.33219953 126.96761699 194.44684025 128.11093998 200.484375 127.6796875 C206.34521418 126.09616884 208.93217893 123.11303511 212 118 C215.82790099 118.56012931 218.3028587 119.59606284 221.46875 121.80078125 C222.69658203 122.64866211 222.69658203 122.64866211 223.94921875 123.51367188 C224.79097656 124.10728516 225.63273437 124.70089844 226.5 125.3125 C227.34175781 125.89451172 228.18351562 126.47652344 229.05078125 127.07617188 C242.49164328 136.42127516 242.49164328 136.42127516 245 144 C246.11210026 150.43670149 244.72192622 155.67087836 241 161 C236.82212929 165.07074582 232.73070042 167.04071925 226.9375 167.5 C215.60748732 167.06765932 204.98578739 157.88400265 195.9375 151.625 C194.73677131 150.80403893 193.53560049 149.98372412 192.33398438 149.1640625 C187.14607305 145.61446466 182.00119843 142.02072835 176.953125 138.2734375 C169.09237585 132.51754181 160.88871303 127.25975654 152.74243164 121.92041016 C147.76886028 118.66050578 142.80092015 115.39203511 137.83203125 112.125 C136.86564728 111.48997559 135.89926331 110.85495117 134.90359497 110.20068359 C128.25061868 105.82763922 121.61486751 101.43052457 115 97 C107.78623547 92.17064869 100.54764067 87.38089022 93.29296875 82.61328125 C71.3744681 68.20616362 49.53644105 53.69101806 27.81611633 38.98649597 C26.17771441 37.87815257 24.53848574 36.77103012 22.89836121 35.66523743 C19.13467979 33.12744735 15.38220661 30.57665134 11.65478516 27.98583984 C10.97503128 27.51881149 10.2952774 27.05178314 9.59492493 26.57060242 C8.34328645 25.71058996 7.09697026 24.84274962 5.85758972 23.96516418 C2.2519051 21.50494586 -0.59453208 19.97405622 -5 20 C-7.60110609 21.23714149 -9.71256269 22.45002163 -12.06640625 24.0546875 C-12.75287735 24.50327118 -13.43934845 24.95185486 -14.1466217 25.41403198 C-16.44407676 26.92401651 -18.72244496 28.46018661 -21 30 C-22.64149734 31.09707927 -24.28326848 32.19374896 -25.92529297 33.29003906 C-30.34582638 36.2523974 -34.75010143 39.23814611 -39.15039062 42.23046875 C-64.20901963 59.26401475 -64.20901963 59.26401475 -76.5 67 C-88.53355856 74.5854657 -100.28718388 82.57283956 -112.06259155 90.5506897 C-128.38369771 101.60578368 -144.81011415 112.49237295 -161.30786133 123.28198242 C-169.26034571 128.49148726 -177.154345 133.73979268 -184.85552979 139.31523132 C-191.41888636 144.05622803 -198.14428314 148.55356395 -204.88061523 153.04394531 C-207.09501854 154.52170086 -209.3043544 156.00684226 -211.51367188 157.4921875 C-212.93719982 158.44315784 -214.36101703 159.39369534 -215.78515625 160.34375 C-216.43726578 160.78328003 -217.08937531 161.22281006 -217.76124573 161.67565918 C-224.20834059 165.95222489 -229.28608872 168.03023857 -237 167 C-242.93600354 165.1310615 -246.42146987 161.98825412 -250 157 C-251.42597611 154.14804778 -251.1320252 151.67538825 -251.125 148.5 C-251.12757813 147.3346875 -251.13015625 146.169375 -251.1328125 144.96875 C-251 142 -251 142 -250 140 C-246.62440315 140.58199946 -245.37247717 141.62752283 -243 144 C-237.51815794 146.50784951 -232.940447 147.22113179 -227 146 C-222.1798873 143.67773654 -217.87427092 140.74413209 -213.47851562 137.70654297 C-210.84250653 135.89156034 -208.18283468 134.11645192 -205.515625 132.34765625 C-202.28918586 130.20733743 -199.0641714 128.06511139 -195.84765625 125.90991211 C-188.58168036 121.04191883 -181.29354714 116.20917395 -173.984375 111.40625 C-172.65995392 110.53586845 -172.65995392 110.53586845 -171.30877686 109.64790344 C-169.47591524 108.44345534 -167.64304978 107.23901309 -165.81018066 106.03457642 C-149.07156363 95.03261303 -132.41414233 83.91965703 -115.82714844 72.69052124 C-101.38593014 62.91732936 -86.85702197 53.28548339 -72.28103638 43.71469116 C-51.9656652 30.37064172 -31.81704691 16.78276272 -11.6971283 3.14631653 C-7.31310289 0.18514925 -5.36838529 -0.63626564 0 0 Z " fill="#F33A3A" transform="translate(251,43)"/>
<path d="M0 0 C1.16162629 -0.0034177 2.32325258 -0.0068354 3.52007967 -0.01035666 C6.73115218 -0.0157928 9.9415738 -0.00334376 13.15256941 0.01675558 C16.62009909 0.03406867 20.08759977 0.02818116 23.55516052 0.02514648 C29.55851321 0.02305155 35.56169167 0.03557558 41.56500053 0.05809784 C50.24469086 0.09063968 58.92429716 0.10102708 67.60404188 0.10604981 C81.68713054 0.11479904 95.77012639 0.14140451 109.85316467 0.17926025 C123.53154537 0.21598997 137.20990085 0.24429703 150.88832092 0.2612915 C152.15354195 0.26286784 152.15354195 0.26286784 153.444323 0.26447603 C157.67592056 0.26969627 161.90751831 0.27475108 166.13911617 0.27972364 C201.23096095 0.32117411 236.32268767 0.39271513 271.41444397 0.48101807 C271.41444397 10.71101807 271.41444397 20.94101807 271.41444397 31.48101807 C235.33667208 31.57142442 199.25893308 31.64304615 163.18107118 31.68527938 C158.92276166 31.69028227 154.66445237 31.69545956 150.40614319 31.70074463 C149.55838246 31.70179387 148.71062172 31.70284311 147.83717127 31.70392415 C134.10628693 31.72133434 120.3754695 31.7528754 106.64462487 31.78962925 C92.55786549 31.8270216 78.47114118 31.8492503 64.38433421 31.85737205 C55.69041954 31.86286337 46.99669402 31.88021365 38.30283757 31.91268393 C32.34294782 31.93381078 26.38315601 31.94022227 20.42323153 31.93502358 C16.98345583 31.93245891 13.54401087 31.93641898 10.10429382 31.95783997 C6.37516654 31.97768146 2.64685471 31.97297749 -1.08229065 31.96203613 C-2.16984292 31.9736875 -3.25739518 31.98533886 -4.37790358 31.9973433 C-10.44971402 31.94904566 -13.96428153 31.53280235 -18.58555603 27.48101807 C-22.01472675 23.78112334 -22.88525352 20.90178317 -23.08555603 15.98101807 C-22.87835504 11.05498157 -22.07370479 8.14804625 -18.58555603 4.48101807 C-12.46421685 0.02817592 -7.43039515 -0.08010583 0 0 Z " fill="#305A71" transform="translate(33.58555603027344,462.51898193359375)"/>
<path d="M0 0 C2.95801805 1.60508362 5.68718771 3.49773906 8.4453125 5.421875 C9.68566757 6.26763344 9.68566757 6.26763344 10.95108032 7.13047791 C12.74320369 8.35385071 14.53214495 9.58189517 16.3182373 10.8140564 C21.12224468 14.1275846 25.94958089 17.40687515 30.7734375 20.69140625 C31.77290405 21.37334549 32.77237061 22.05528473 33.80212402 22.75788879 C44.70598789 30.1874172 55.72090678 37.44572356 66.75 44.6875 C69.44950115 46.46103407 72.14892425 48.23468691 74.8483429 50.00834656 C76.55051622 51.12671518 78.25281523 52.24489254 79.95524597 53.36286926 C84.80416197 56.54911903 89.64134821 59.75197548 94.46484375 62.9765625 C100.25703339 66.84873105 106.07153917 70.68603647 111.89453125 74.51171875 C129.8864741 86.33465785 147.85946276 98.18077393 165.6875 110.25 C166.41981842 110.74535248 167.15213684 111.24070496 167.90664673 111.75106812 C169.9428058 113.1292564 171.97764029 114.50936824 174.01171875 115.890625 C174.90997879 116.49941246 174.90997879 116.49941246 175.8263855 117.12049866 C179.88234442 119.88234442 179.88234442 119.88234442 181 121 C181.09333705 122.59610982 181.11745372 124.19633428 181.11352539 125.79516602 C181.11344986 126.81614883 181.11337433 127.83713165 181.11329651 128.88905334 C181.10813522 129.9994548 181.10297394 131.10985626 181.09765625 132.25390625 C181.09553383 133.94978127 181.09553383 133.94978127 181.09336853 135.67991638 C181.08775019 139.30747065 181.07519458 142.93496424 181.0625 146.5625 C181.05748736 149.01497307 181.05292405 151.4674471 181.04882812 153.91992188 C181.0386237 159.94665704 181.01905186 165.97326022 181 172 C165.49 172 149.98 172 134 172 C134 152.53 134 133.06 134 113 C132.35 112.34 130.7 111.68 129 111 C127.7021166 110.23216529 126.4288416 109.42123382 125.18334961 108.57104492 C124.46308594 108.08303406 123.74282227 107.59502319 123.00073242 107.09222412 C121.83828003 106.29440521 121.83828003 106.29440521 120.65234375 105.48046875 C119.82524902 104.91886047 118.9981543 104.3572522 118.14599609 103.77862549 C116.35090716 102.55947269 114.5571655 101.33833434 112.76461792 100.115448 C107.90286008 96.79998096 103.02966751 93.50142021 98.15625 90.203125 C97.14811752 89.52056137 96.13998505 88.83799774 95.1013031 88.13475037 C84.76968472 81.14982533 74.36119656 74.2839495 63.9375 67.4375 C45.01521471 55.00263791 26.14844055 42.48646451 7.33122253 29.89311218 C2.9473767 26.96045028 -1.44653841 24.04407611 -5.85205078 21.14404297 C-6.82102798 20.50405869 -7.79000519 19.8640744 -8.78834534 19.20469666 C-10.67008505 17.96228472 -12.55423129 16.72350828 -14.44102478 15.48878479 C-15.28427811 14.93101852 -16.12753143 14.37325226 -16.99633789 13.79858398 C-17.74637589 13.30567368 -18.49641388 12.81276337 -19.2691803 12.30491638 C-21 11 -21 11 -22 9 C-19.4707535 7.2908061 -16.92938528 5.60836323 -14.375 3.9375 C-13.66214844 3.45216797 -12.94929687 2.96683594 -12.21484375 2.46679688 C-11.51230469 2.01240234 -10.80976563 1.55800781 -10.0859375 1.08984375 C-9.4470459 0.66566162 -8.8081543 0.24147949 -8.14990234 -0.19555664 C-4.96150112 -1.38858208 -3.27333137 -0.96974029 0 0 Z " fill="#CCDEEC" transform="translate(252,63)"/>
<path d="M0 0 C28.71 0 57.42 0 87 0 C87 23.1 87 46.2 87 70 C58.29 70 29.58 70 0 70 C0 46.9 0 23.8 0 0 Z " fill="#CCDFED" transform="translate(346,393)"/>
<path d="M0 0 C9.73873511 8.3185029 14.94163241 17.45313348 16.3203125 30.1328125 C16.8569531 41.31282493 12.37157157 51.45987959 5.0625 59.76171875 C-4.93500882 69.12988798 -14.4957522 72.290827 -28.06640625 72.046875 C-38.56470399 71.27353924 -46.85631113 66.38761446 -53.9375 58.76171875 C-54.7625 57.93671875 -55.5875 57.11171875 -56.4375 56.26171875 C-64.03828024 46.75471108 -65.07333855 35.38513329 -63.9375 23.76171875 C-63.35189943 20.7617158 -62.42173449 18.42213907 -60.9375 15.76171875 C-60.31681641 14.54935547 -60.31681641 14.54935547 -59.68359375 13.3125 C-54.02983462 3.00632872 -45.79011374 -3.41953857 -34.58203125 -6.98828125 C-22.34262344 -10.02180057 -10.24132614 -7.47390897 0 0 Z " fill="#FE901D" transform="translate(271.9375,118.23828125)"/>
<path d="M0 0 C16.45512559 -0.06774945 32.91013196 -0.12300063 49.36535835 -0.15543652 C57.00599286 -0.1708981 64.64653449 -0.191974 72.28710938 -0.22631836 C78.94750146 -0.2562425 85.60782628 -0.27558016 92.26828372 -0.28226548 C95.79418637 -0.28617266 99.31989656 -0.2953401 102.84573746 -0.31719017 C106.7840762 -0.34139804 110.72222755 -0.34196805 114.66064453 -0.34057617 C116.40960274 -0.35675491 116.40960274 -0.35675491 118.19389343 -0.3732605 C125.62334414 -0.34480795 130.16385263 0.41595462 135.8125 5.5625 C138.90506012 9.60893418 139.37674353 14.01775908 139 19 C137.77218406 23.68656541 136.09599019 26.18900016 132.18443298 29.08343506 C126.90347259 32.0070407 121.34203605 31.52635167 115.45532227 31.45410156 C114.20584305 31.45468567 112.95636383 31.45526978 111.66902161 31.45587158 C108.26006904 31.45357004 104.85209764 31.43357655 101.44331861 31.40557575 C97.87459052 31.38049001 94.30584794 31.37821448 90.73704529 31.37347412 C83.98687001 31.36106529 77.23695532 31.32827237 70.48689455 31.28807616 C62.79888636 31.24329296 55.11086542 31.22135501 47.42275918 31.20129442 C31.61499639 31.15953754 15.80759235 31.08621178 0 31 C0 20.77 0 10.54 0 0 Z " fill="#1D4859" transform="translate(346,463)"/>
<path d="M0 0 C13.53 0 27.06 0 41 0 C41 33.33 41 66.66 41 101 C27.47 101 13.94 101 0 101 C0 67.67 0 34.34 0 0 Z " fill="#ED582A" transform="translate(305,393)"/>
<path d="M0 0 C18.81 0 37.62 0 57 0 C57 22.77 57 45.54 57 69 C38.19 69 19.38 69 0 69 C0 46.23 0 23.46 0 0 Z " fill="#FF901D" transform="translate(248,394)"/>
<path d="M0 0 C0.67095703 0.61488281 0.67095703 0.61488281 1.35546875 1.2421875 C2.26232422 2.05042969 2.26232422 2.05042969 3.1875 2.875 C3.77917969 3.40867187 4.37085938 3.94234375 4.98046875 4.4921875 C8.76611896 7.31861106 12.32617969 8.24920066 17.00372028 8.26171303 C17.99250968 8.26917852 18.98129908 8.27664401 20.0000518 8.28433573 C21.07884406 8.282401 22.15763632 8.28046626 23.26911926 8.2784729 C24.4208696 8.2842653 25.57261994 8.2900577 26.7592718 8.29602563 C29.95185124 8.3100868 33.14430267 8.31525578 36.33690822 8.31667423 C39.78132243 8.32036994 43.22568844 8.33552627 46.67007446 8.34928894 C52.63627937 8.37156023 58.60246713 8.3865743 64.56870461 8.39665604 C73.19487047 8.41124301 81.82097659 8.43677989 90.4471074 8.46498732 C104.44250565 8.51045497 118.4379125 8.54706989 132.43334961 8.578125 C146.02841706 8.60831065 159.62346346 8.64266099 173.21850586 8.68261719 C174.47555407 8.68630951 174.47555407 8.68630951 175.75799719 8.69007643 C179.96216825 8.70245103 184.16633905 8.71490756 188.37050974 8.72740483 C223.24697778 8.83097222 258.12347024 8.92002824 293 9 C293 13.29 293 17.58 293 22 C256.92223181 22.09122987 220.84448703 22.16202808 184.76662721 22.20426132 C180.50831769 22.20926421 176.2500084 22.21444149 171.99169922 22.21972656 C171.14393849 22.2207758 170.29617775 22.22182505 169.4227273 22.22290608 C155.69184296 22.24031627 141.96102553 22.27185734 128.2301809 22.30861118 C114.14342152 22.34600354 100.05669721 22.36823224 85.96989024 22.37635398 C77.27597557 22.3818453 68.58225005 22.39919559 59.8883936 22.43166587 C53.92850385 22.45279271 47.96871204 22.45920421 42.00878756 22.45400551 C38.56901186 22.45144085 35.1295669 22.45540092 31.68984985 22.4768219 C27.96072257 22.4966634 24.23241074 22.49195942 20.50326538 22.48101807 C19.41571311 22.49266943 18.32816085 22.5043208 17.20765245 22.51632524 C11.13584201 22.4680276 7.6212745 22.05178429 3 18 C-1.34147188 13.31578034 -1.39459778 9.38931349 -1.23828125 3.29296875 C-1 1 -1 1 0 0 Z " fill="#1D4859" transform="translate(12,472)"/>
<path d="M0 0 C0.66248749 -0.00287018 1.32497498 -0.00574036 2.00753784 -0.00869751 C3.4112839 -0.01073805 4.8150584 -0.00520874 6.21875 0.00732422 C8.33921295 0.02322769 10.45772532 0.00755761 12.578125 -0.01171875 C21.24674553 -0.02494568 28.53587854 0.57465213 36.0546875 5.0859375 C41.97124708 11.3405862 42.81615727 17.20204692 42.71679688 25.52539062 C42.4173709 32.59849761 40.87902071 36.8902303 35.6796875 41.8359375 C33.2421875 43.3984375 33.2421875 43.3984375 30.2421875 44.3984375 C30.82972307 48.30716892 32.01349157 51.11835749 34 54.5234375 C34.81404297 55.95429688 34.81404297 55.95429688 35.64453125 57.4140625 C36.79492621 59.40703699 37.9512061 61.39662589 39.11328125 63.3828125 C39.65339844 64.33671875 40.19351563 65.290625 40.75 66.2734375 C41.25160645 67.13710938 41.75321289 68.00078125 42.27001953 68.890625 C43.43604412 71.89851164 43.23122052 73.36310727 42.2421875 76.3984375 C40.6171875 78.7109375 40.6171875 78.7109375 38.2421875 80.3984375 C35.9098285 80.46586115 33.57436638 80.47182774 31.2421875 80.3984375 C29.9034638 78.06806662 28.57128052 75.73429698 27.2421875 73.3984375 C26.83355469 72.68743896 26.42492187 71.97644043 26.00390625 71.24389648 C23.87851397 67.49690557 21.90631623 63.75698739 20.1796875 59.80859375 C19.85226563 59.07962891 19.52484375 58.35066406 19.1875 57.59960938 C18.56925974 56.20090465 17.97928167 54.78927571 17.421875 53.36523438 C16.50809553 51.13412544 16.50809553 51.13412544 14.2421875 48.3984375 C11.22650034 47.51973316 8.37246388 47.34785478 5.2421875 47.3984375 C5.26313477 48.25598633 5.28408203 49.11353516 5.30566406 49.99707031 C5.37395277 53.18762222 5.42404263 56.37780096 5.46191406 59.56884766 C5.48199392 60.9482043 5.50926416 62.32747619 5.54394531 63.70654297 C5.59261567 65.69200729 5.61305168 67.67810004 5.6328125 69.6640625 C5.65375977 70.85805664 5.67470703 72.05205078 5.69628906 73.28222656 C5.2421875 76.3984375 5.2421875 76.3984375 3.43652344 78.78808594 C0.23968852 81.1341388 -1.89473876 80.95030518 -5.7578125 80.3984375 C-7.94520569 78.81141663 -7.94520569 78.81141663 -9.7578125 76.3984375 C-10.25901794 73.16624451 -10.25901794 73.16624451 -10.25952148 69.29077148 C-10.26492447 68.58299561 -10.27032745 67.87521973 -10.27589417 67.14599609 C-10.2883789 64.81174619 -10.27189536 62.47873023 -10.25390625 60.14453125 C-10.25406123 58.52075638 -10.25555002 56.89698114 -10.25831604 55.27320862 C-10.25969985 51.872809 -10.24714408 48.47283129 -10.22436523 45.07250977 C-10.19595769 40.71200299 -10.19872412 36.35219598 -10.21145535 31.99163723 C-10.21840645 28.63989778 -10.2106302 25.28832039 -10.19819832 21.93660164 C-10.19367985 20.32863041 -10.19335047 18.72064181 -10.19726372 17.11266899 C-10.20017104 14.86698538 -10.18369432 12.62227026 -10.16186523 10.37670898 C-10.15646225 9.09859848 -10.15105927 7.82048798 -10.14549255 6.50364685 C-9.7578125 3.3984375 -9.7578125 3.3984375 -8.42277527 1.48655701 C-5.71753836 -0.2814231 -3.18732943 0.00879899 0 0 Z " fill="#FAFCFE" transform="translate(211.7578125,273.6015625)"/>
<path d="M0 0 C3.34958306 0.72390257 4.70468327 1.99629505 7.1328125 4.4609375 C9.25970034 7.8673171 11.03582915 11.42840265 12.8203125 15.0234375 C13.781723 16.92099321 14.74399655 18.81811183 15.70703125 20.71484375 C16.47732666 22.24262451 16.47732666 22.24262451 17.26318359 23.80126953 C21.1241092 31.40340844 25.1476488 38.92344223 29.1328125 46.4609375 C29.13867874 45.91414337 29.14454498 45.36734924 29.15058899 44.8039856 C29.21439354 39.12630231 29.29877825 33.44919271 29.39526367 27.77197266 C29.4285721 25.65160676 29.4565854 23.53115093 29.47924805 21.41064453 C29.51268553 18.36712215 29.56499503 15.32442838 29.62109375 12.28125 C29.62748367 11.32912628 29.6338736 10.37700256 29.64045715 9.39602661 C29.66025131 8.51526459 29.68004547 7.63450256 29.70043945 6.72705078 C29.71154251 5.94983673 29.72264557 5.17262268 29.73408508 4.37185669 C30.1328125 2.4609375 30.1328125 2.4609375 33.1328125 0.4609375 C36.6151663 0.14435988 39.14940752 -0.02246171 42.32312012 1.53759766 C45.02689692 4.41116982 44.64084863 6.65228999 44.65039062 10.546875 C44.6573999 11.26425842 44.66440918 11.98164185 44.67163086 12.72076416 C44.68924105 15.09288199 44.67757853 17.46380748 44.6640625 19.8359375 C44.66675657 21.48356353 44.67063829 23.13118801 44.67565918 24.77880859 C44.68155828 28.23225031 44.67297837 31.68527825 44.65429688 35.13867188 C44.63150665 39.56770765 44.64462759 43.99577397 44.66858673 48.42477417 C44.68303383 51.82714151 44.67844382 55.2292786 44.66807556 58.63165283 C44.66540524 60.26475133 44.66868877 61.89787066 44.67799377 63.53094482 C44.68814205 65.81286058 44.6726852 68.0932017 44.65039062 70.375 C44.64561707 72.3233374 44.64561707 72.3233374 44.64074707 74.31103516 C44.1328125 77.4609375 44.1328125 77.4609375 42.31530762 79.37255859 C39.02484559 81.01346465 36.7543349 80.96922135 33.1328125 80.4609375 C28.77060504 76.81585872 26.38357292 72.7474426 23.84765625 67.78125 C23.46468887 67.05026093 23.0817215 66.31927185 22.68714905 65.56613159 C21.47272792 63.24386721 20.27117034 60.91523965 19.0703125 58.5859375 C17.86312687 56.26530008 16.65332819 53.94604342 15.44276428 51.62716675 C14.69331386 50.18931651 13.94627647 48.75020487 13.20213318 47.30960083 C10.95007717 42.96151021 8.58808248 38.69781944 6.1328125 34.4609375 C6.1234668 35.74782471 6.11412109 37.03471191 6.10449219 38.3605957 C6.06465435 43.12999231 5.99891301 47.89873962 5.92529297 52.66772461 C5.89704728 54.732744 5.87585072 56.79787224 5.86181641 58.86303711 C5.84043666 61.82983265 5.79381241 64.7953146 5.7421875 67.76171875 C5.74034454 69.14935173 5.74034454 69.14935173 5.73846436 70.5650177 C5.59232121 76.94377803 5.59232121 76.94377803 3.28222656 79.54370117 C0.35046206 80.79479604 -1.70973387 80.8556192 -4.8671875 80.4609375 C-7.02333069 79.38710022 -7.02333069 79.38710022 -8.8671875 77.4609375 C-9.36839294 74.26634216 -9.36839294 74.26634216 -9.36889648 70.26733398 C-9.37429947 69.5385907 -9.37970245 68.80984741 -9.38526917 68.059021 C-9.39777949 65.64961162 -9.38125309 63.24139174 -9.36328125 60.83203125 C-9.36343617 59.15959104 -9.36492397 57.48715046 -9.36769104 55.81471252 C-9.369076 52.30998868 -9.35649982 48.8056736 -9.33374023 45.30102539 C-9.30533309 40.80251459 -9.30809742 36.30468204 -9.32083035 31.80612087 C-9.32777529 28.35319699 -9.32001226 24.9004307 -9.30757332 21.44752693 C-9.3030488 19.78848944 -9.30273072 18.1294351 -9.30663872 16.47039604 C-9.30953999 14.15495817 -9.29309829 11.84046514 -9.27124023 9.52514648 C-9.26583725 8.20626938 -9.26043427 6.88739227 -9.25486755 5.52854919 C-9.12693314 4.51623734 -8.99899872 3.50392548 -8.8671875 2.4609375 C-5.67500612 0.33281658 -3.76299318 0.1623252 0 0 Z " fill="#FDFEFE" transform="translate(335.8671875,273.5390625)"/>
<path d="M0 0 C13.2 0 26.4 0 40 0 C40 23.1 40 46.2 40 70 C26.8 70 13.6 70 0 70 C0 46.9 0 23.8 0 0 Z " fill="#E0EEFA" transform="translate(346,393)"/>
<path d="M0 0 C0.87423111 -0.00630432 1.74846222 -0.01260864 2.64918518 -0.019104 C4.06021767 -0.01303131 4.06021767 -0.01303131 5.49975586 -0.00683594 C6.46739365 -0.00874939 7.43503143 -0.01066284 8.43199158 -0.01263428 C10.47712464 -0.01399522 12.52226636 -0.01030513 14.56738281 -0.00195312 C17.705844 0.00875918 20.84373426 -0.00185754 23.98217773 -0.01464844 C25.96720504 -0.01332705 27.952232 -0.0107651 29.93725586 -0.00683594 C31.35132469 -0.01290863 31.35132469 -0.01290863 32.79396057 -0.019104 C34.10057899 -0.00964752 34.10057899 -0.00964752 35.43359375 0 C36.5858419 0.00238678 36.5858419 0.00238678 37.7613678 0.00482178 C39.65209961 0.25878906 39.65209961 0.25878906 41.65209961 2.25878906 C41.91772461 4.13378906 41.91772461 4.13378906 41.90209961 6.25878906 C41.90983398 7.31066406 41.90983398 7.31066406 41.91772461 8.38378906 C41.65209961 10.25878906 41.65209961 10.25878906 39.65209961 12.25878906 C37.14289115 12.43374512 34.7458502 12.49048475 32.23803711 12.45410156 C31.50839752 12.45127167 30.77875793 12.44844177 30.02700806 12.44552612 C27.69353933 12.43431908 25.36045258 12.40921417 23.02709961 12.38378906 C21.44637598 12.37375991 19.86564634 12.36463395 18.28491211 12.35644531 C14.40704192 12.33607835 10.52999899 12.29693234 6.65209961 12.25878906 C6.65209961 19.51878906 6.65209961 26.77878906 6.65209961 34.25878906 C12.44122331 34.1403498 12.44122331 34.1403498 18.22949219 33.98852539 C19.31460083 33.97728638 19.31460083 33.97728638 20.42163086 33.96582031 C21.16002197 33.95010986 21.89841309 33.93439941 22.65917969 33.91821289 C25.23513556 34.35842586 26.09892942 35.188399 27.65209961 37.25878906 C27.96459961 40.32128906 27.96459961 40.32128906 27.65209961 43.25878906 C25.65209961 45.25878906 25.65209961 45.25878906 23.6809082 45.48583984 C22.89538574 45.47536621 22.10986328 45.46489258 21.30053711 45.45410156 C20.53402832 45.44910645 19.76751953 45.44411133 18.9777832 45.43896484 C18.00405762 45.42075684 17.03033203 45.40254883 16.02709961 45.38378906 C12.93334961 45.34253906 9.83959961 45.30128906 6.65209961 45.25878906 C6.65209961 52.51878906 6.65209961 59.77878906 6.65209961 67.25878906 C10.06489258 67.20658203 10.06489258 67.20658203 13.54663086 67.15332031 C15.75080104 67.12992247 17.95495737 67.11170727 20.15917969 67.09399414 C21.69081822 67.0789097 23.22241359 67.05843928 24.75390625 67.0324707 C26.95575615 66.99607059 29.15703494 66.97905993 31.35913086 66.96582031 C32.04360794 66.95033646 32.72808502 66.9348526 33.43330383 66.91889954 C36.32767299 66.91787548 38.19673722 66.93017822 40.58520508 68.65380859 C42.63286662 71.73420379 41.93741015 74.66387631 41.65209961 78.25878906 C39.25154579 80.65934289 38.70826753 80.51380605 35.43359375 80.53344727 C34.5625148 80.54297928 33.69143585 80.55251129 32.79396057 80.56233215 C31.85124802 80.56142075 30.90853546 80.56050934 29.93725586 80.55957031 C28.9705748 80.56385544 28.00389374 80.56814056 27.00791931 80.57255554 C24.96101668 80.57830518 22.91409362 80.57879446 20.8671875 80.57446289 C17.73068448 80.57130526 14.59512637 80.59474628 11.45874023 80.62011719 C9.4724133 80.6223903 7.48608383 80.62309362 5.49975586 80.62207031 C4.55906754 80.63128006 3.61837921 80.64048981 2.64918518 80.64997864 C1.77495407 80.64374985 0.90072296 80.63752106 0 80.63110352 C-1.15344154 80.63204765 -1.15344154 80.63204765 -2.33018494 80.63301086 C-4.34790039 80.25878906 -4.34790039 80.25878906 -6.09538269 79.18511963 C-8.03545253 76.20135673 -7.72970202 73.59383408 -7.73608398 70.06518555 C-7.74134094 69.33644226 -7.7465979 68.60769897 -7.75201416 67.85687256 C-7.76522019 65.44765809 -7.75647526 63.03910402 -7.74633789 60.62988281 C-7.74835824 58.95744194 -7.75126936 57.28500193 -7.7550354 55.61256409 C-7.75945937 52.10791637 -7.75302464 48.60349802 -7.73901367 45.09887695 C-7.72190838 40.60039011 -7.73177078 36.10243966 -7.74973106 31.60397243 C-7.76055575 28.15106644 -7.75712889 24.69828828 -7.74934769 21.24537849 C-7.74734271 19.58633422 -7.74981536 17.92727844 -7.75678635 16.2682476 C-7.76438089 13.95285012 -7.75282642 11.63832994 -7.73608398 9.32299805 C-7.7336972 8.00412094 -7.73131042 6.68524384 -7.72885132 5.32640076 C-7.60313751 4.3140889 -7.47742371 3.30177704 -7.34790039 2.25878906 C-4.23131084 0.18106269 -3.53821337 0.00732151 0 0 Z " fill="#FCFDFE" transform="translate(274.347900390625,273.7412109375)"/>
<path d="M0 0 C6.6 0 13.2 0 20 0 C20 33 20 66 20 100 C13.4 100 6.8 100 0 100 C0 67 0 34 0 0 Z " fill="#FE6D39" transform="translate(305,394)"/>
<path d="M0 0 C4.85706129 3.4320557 8.02675911 7.71126495 9.890625 13.3359375 C10.11767578 16.6574707 10.11767578 16.6574707 10.0859375 20.38671875 C10.08094238 21.59239502 10.07594727 22.79807129 10.07080078 24.0402832 C10.05259277 25.56097412 10.03438477 27.08166504 10.015625 28.6484375 C9.974375 33.4953125 9.933125 38.3421875 9.890625 43.3359375 C-3.639375 43.3359375 -17.169375 43.3359375 -31.109375 43.3359375 C-31.233125 36.1584375 -31.233125 36.1584375 -31.359375 28.8359375 C-31.39579102 27.34255859 -31.43220703 25.84917969 -31.46972656 24.31054688 C-31.54153687 15.69794308 -31.09063283 10.04436571 -25.3984375 3.3125 C-17.58480078 -3.0337871 -9.07043561 -5.03516308 0 0 Z " fill="#ED592B" transform="translate(336.109375,191.6640625)"/>
<path d="M0 0 C30.36 0 60.72 0 92 0 C92 10.65517241 92 10.65517241 89 15 C84.77434264 18.31213642 80.89037227 18.41321761 75.72143555 18.34057617 C74.90140549 18.34101425 74.08137543 18.34145233 73.23649597 18.34190369 C70.53632482 18.33982003 67.83678093 18.31650916 65.13671875 18.29296875 C63.26056762 18.28737129 61.38441209 18.2831019 59.508255 18.28010559 C54.57786892 18.26866866 49.6477493 18.23921133 44.71746826 18.20599365 C39.68342696 18.17526798 34.64934248 18.16159491 29.61523438 18.14648438 C19.74335387 18.11434051 9.87174081 18.06158193 0 18 C0 12.06 0 6.12 0 0 Z " fill="#305B73" transform="translate(346,463)"/>
<path d="M0 0 C2.16320801 -0.38095093 2.16320801 -0.38095093 4.87695312 -0.38818359 C6.39863098 -0.40236832 6.39863098 -0.40236832 7.9510498 -0.4168396 C9.5994989 -0.40773056 9.5994989 -0.40773056 11.28125 -0.3984375 C12.40567505 -0.40130768 13.5301001 -0.40417786 14.68859863 -0.40713501 C17.06925967 -0.40917926 19.44993737 -0.40362434 21.83056641 -0.39111328 C25.48508075 -0.37506551 29.13848901 -0.39095066 32.79296875 -0.41015625 C35.10156495 -0.40817388 37.41016047 -0.40433035 39.71875 -0.3984375 C40.81771606 -0.40451019 41.91668213 -0.41058289 43.0489502 -0.4168396 C44.0634021 -0.40738312 45.077854 -0.39792664 46.12304688 -0.38818359 C47.01858276 -0.38579681 47.91411865 -0.38341003 48.83679199 -0.38095093 C49.90757996 -0.19238022 49.90757996 -0.19238022 51 0 C53.32579101 3.48868651 53.41865457 4.89718519 53 9 C52.0234375 11.17578125 52.0234375 11.17578125 50 13 C47.09273342 13.50260957 44.25164158 13.37537766 41.3125 13.25 C40.51521484 13.23195313 39.71792969 13.21390625 38.89648438 13.1953125 C36.93047551 13.14822247 34.96508506 13.07647899 33 13 C33.00888245 13.78038635 33.01776489 14.56077271 33.0269165 15.36480713 C33.10708675 22.7215982 33.16797631 30.07817729 33.20724869 37.43529129 C33.22811795 41.21762995 33.25642248 44.99960747 33.30175781 48.78173828 C33.34524074 52.43220312 33.36914209 56.08232076 33.37950897 59.7330246 C33.3868961 61.12531754 33.40132175 62.51759162 33.42292023 63.90973663 C33.45198041 65.86053411 33.45363412 67.81168146 33.45410156 69.76269531 C33.46298401 70.8730011 33.47186646 71.98330688 33.48101807 73.1272583 C32.88474241 76.68834272 31.86886557 77.86417104 29 80 C24.59796571 80.46337203 22.7205836 80.48038907 19 78 C18.63923645 75.2918396 18.63923645 75.2918396 18.65942383 71.80615234 C18.65965042 70.50495453 18.65987701 69.20375671 18.66011047 67.86312866 C18.67543163 66.43739481 18.69107963 65.01166444 18.70703125 63.5859375 C18.71262557 62.13148434 18.71689644 60.67702553 18.71989441 59.2225647 C18.73135626 55.39193145 18.76083453 51.56163872 18.79400635 47.73114014 C18.82467862 43.82341112 18.83839363 39.91562716 18.85351562 36.0078125 C18.88570333 28.33838632 18.93691537 20.66924085 19 13 C17.10314453 13.06960938 17.10314453 13.06960938 15.16796875 13.140625 C13.50783609 13.17814212 11.84767792 13.21454235 10.1875 13.25 C8.93743164 13.30027344 8.93743164 13.30027344 7.66210938 13.3515625 C1.50734139 13.45043427 1.50734139 13.45043427 -1.0546875 11.17578125 C-2.31546495 8.27390919 -2.33318719 6.13195957 -2 3 C-1.34 2.01 -0.68 1.02 0 0 Z " fill="#FBFDFE" transform="translate(392,274)"/>
<path d="M0 0 C4.44296417 2.22148208 6.51002029 4.73146336 9 9 C10.15927528 12.47782583 10.11313066 15.18803257 10.09765625 18.85546875 C10.0962413 19.51710526 10.09482635 20.17874176 10.09336853 20.86042786 C10.08777996 22.96949828 10.07522965 25.07846177 10.0625 27.1875 C10.05748352 28.61913909 10.05292087 30.05077985 10.04882812 31.48242188 C10.038666 34.98835539 10.01908861 38.49405827 10 42 C16.93 42 23.86 42 31 42 C31 42.33 31 42.66 31 43 C17.47 43 3.94 43 -10 43 C-10.12375 35.8225 -10.12375 35.8225 -10.25 28.5 C-10.28641602 27.00662109 -10.32283203 25.51324219 -10.36035156 23.97460938 C-10.42260009 16.5088023 -10.24657273 11.24852844 -6 5 C-4.08757914 3.10402502 -2.18915037 1.59210936 0 0 Z " fill="#FC6E3D" transform="translate(315,192)"/>
<path d="M0 0 C12.69507393 3.80852218 21.17686194 8.76039655 28.3515625 20.14453125 C30.56575928 24.3100885 31.18444885 27.10669308 32 32 C21.44 32 10.88 32 0 32 C0 21.44 0 10.88 0 0 Z " fill="#FEB026" transform="translate(255,111)"/>
<path d="M0 0 C0 10.56 0 21.12 0 32 C-10.23 32 -20.46 32 -31 32 C-31.33 32.99 -31.66 33.98 -32 35 C-30.87268046 23.95226848 -25.71349061 14.83562864 -17.25 7.6875 C-12.42780099 4.02701257 -6.27706454 0 0 0 Z " fill="#FEB127" transform="translate(240,111)"/>
<path d="M0 0 C10.56 0 21.12 0 32 0 C27.76633425 14.11221916 21.72084141 22.42689457 8.75 29.4375 C5.38068503 31.15815444 4.20393425 31 0 31 C0 20.77 0 10.54 0 0 Z " fill="#FEB126" transform="translate(255,158)"/>
<path d="M0 0 C10.23 0 20.46 0 31 0 C31 10.23 31 20.46 31 31 C21.01271478 29.57324497 13.32590588 25.3048869 6.9375 17.375 C3.27987876 12.33750098 0 6.32814627 0 0 Z " fill="#FEB126" transform="translate(209,158)"/>
<path d="M0 0 C15.36842105 -0.44331984 15.36842105 -0.44331984 22 3 C24.27947698 6.41921547 24.32513105 7.90310177 24.375 11.9375 C24.40335938 12.97777344 24.43171875 14.01804687 24.4609375 15.08984375 C23.87957343 18.7603203 22.96179467 19.80079366 20 22 C13.49554491 24.89694218 6.99512065 24.13198341 0 24 C0 16.08 0 8.16 0 0 Z " fill="#69B3F6" transform="translate(216,286)"/>
</svg>
