<?xml version="1.0" encoding="UTF-8"?>
<svg version="1.1" xmlns="http://www.w3.org/2000/svg" width="512" height="512">
<path d="M0 0 C3.11509312 1.23090059 6.15530335 2.56835281 9.1991272 3.96618652 C10.32719284 4.46402649 11.45525848 4.96186646 12.61750793 5.47479248 C14.96068752 6.50970419 17.30038035 7.55254545 19.63656616 8.60314941 C23.84331433 10.48793808 28.07413976 12.31300511 32.30879211 14.13400269 C37.50427187 16.36974383 42.68846211 18.63146492 47.87490845 20.88806152 C50.15488025 21.87891648 52.43491097 22.86963588 54.71499634 23.86022949 C59.44398268 25.91488444 64.17271937 27.97011234 68.90127563 30.02575684 C79.4652563 34.6176804 90.03231812 39.20250397 100.5993042 43.7875061 C103.9769558 45.25310215 107.35453117 46.71887375 110.73208618 48.18469238 C125.50583491 54.59664145 125.50583491 54.59664145 140.28305054 61.00059509 C143.33106686 62.32044708 146.37806164 63.64249472 149.42324829 64.96887207 C154.86138156 67.33548936 160.3108994 69.66371059 165.7928772 71.92712402 C166.86360474 72.37531494 167.93433228 72.82350586 169.0375061 73.28527832 C171.01194149 74.11043181 172.9916884 74.92305973 174.97793579 75.71936035 C180.4960041 78.04126887 183.71039315 80.12689983 187.06240845 85.13806152 C189.19065061 91.522788 188.5131972 96.75743674 185.81240845 102.88806152 C183.17081203 108.17125436 181.07124781 111.95639131 175.87490845 115.01306152 C172.32073554 116.06183386 170.84039036 116.17892803 167.3241272 115.70837402 C166.52321655 115.60541016 165.72230591 115.50244629 164.89712524 115.3963623 C163.98894043 115.26850342 163.98894043 115.26850342 163.06240845 115.13806152 C168.9303598 130.79409144 174.91143675 146.39315652 181.15274048 161.90490723 C181.66436237 163.17660923 182.17591678 164.44833839 182.68740845 165.72009277 C182.94891693 166.37028885 183.21042542 167.02048492 183.4798584 167.69038391 C185.75554917 173.35685139 188.0055541 179.03333708 190.24990845 184.71228027 C190.61298096 185.63092361 190.97605347 186.54956696 191.35012817 187.49604797 C193.19807873 192.17408607 195.0430343 196.85328744 196.88467407 201.53381348 C200.00467667 209.45615488 203.13361691 217.37105099 206.40615845 225.23181152 C206.88488403 226.39092041 207.36360962 227.5500293 207.85684204 228.7442627 C208.71176187 230.80438418 209.57832851 232.85973203 210.4593811 234.90881348 C213.9722344 243.40374201 213.9722344 243.40374201 212.06240845 248.13806152 C210.1288147 249.67712402 210.1288147 249.67712402 207.62490845 250.76306152 C206.72643188 251.17813965 205.82795532 251.59321777 204.9022522 252.02087402 C202.06240845 253.13806152 202.06240845 253.13806152 199.3163147 253.88024902 C196.51984948 254.68636232 194.47984783 255.50986731 192.06240845 257.13806152 C190.94319491 259.39151384 190.94319491 259.39151384 190.33584595 262.20837402 C188.493712 268.82335084 186.31606569 275.25968694 183.99990845 281.72399902 C183.61356232 282.80627777 183.22721619 283.88855652 182.8291626 285.00363159 C181.57642194 288.50780016 180.31959156 292.01048454 179.06240845 295.51306152 C178.17788672 297.98357267 177.29344804 300.45411354 176.40908813 302.92468262 C168.14720138 325.98891679 159.79777736 349.02194549 151.38040161 372.02987671 C149.50206093 377.16708406 147.64179425 382.30965164 145.81436157 387.46520996 C145.4534845 388.4767514 145.09260742 389.48829285 144.72079468 390.53048706 C144.0412892 392.43717066 143.36715134 394.34577919 142.69943237 396.25662231 C142.39607971 397.10485565 142.09272705 397.95308899 141.78018188 398.82702637 C141.51960999 399.56625336 141.25903809 400.30548035 140.99057007 401.06710815 C139.93810959 403.41540239 138.76402418 405.20715588 137.06240845 407.13806152 C133.12164603 408.451649 129.36391898 408.28121381 125.25588989 408.27609253 C124.34481114 408.27891381 123.43373239 408.28173509 122.49504519 408.28464186 C119.42960046 408.29300236 116.36419178 408.29432734 113.29873657 408.29577637 C111.10614418 408.3004434 108.91355276 408.30558678 106.72096252 408.31117249 C101.99338369 408.32246152 97.2658112 408.33089169 92.53822327 408.33729172 C85.06843707 408.3479551 77.59869643 408.36819423 70.12893677 408.39041138 C59.6609647 408.42095552 49.19299106 408.45018628 38.7250061 408.47595215 C38.06058245 408.47759033 37.39615879 408.47922851 36.71160108 408.48091634 C25.93735948 408.507218 15.16311446 408.52585274 4.38885432 408.54254405 C-6.66846504 408.55995087 -17.72572132 408.58896985 -28.78298807 408.62743342 C-34.99314702 408.64855162 -41.20320961 408.66396753 -47.41340637 408.66624069 C-53.25090046 408.66837998 -59.08819375 408.68417547 -64.92562675 408.71063042 C-67.07228426 408.71785174 -69.21896602 408.71991078 -71.36563301 408.71652794 C-74.28768705 408.71265753 -77.209092 408.72700862 -80.131073 408.74606323 C-80.98796958 408.74053354 -81.84486617 408.73500384 -82.72772932 408.72930658 C-86.96583141 408.66222127 -86.96583141 408.66222127 -90.66218138 410.44318449 C-92.73287917 413.19490954 -92.17499805 415.8143705 -91.93759155 419.13806152 C-91.44259155 420.62306152 -91.44259155 420.62306152 -90.93759155 422.13806152 C-86.94000474 423.62570808 -82.66471452 423.27847706 -78.45533752 423.2693634 C-77.59114569 423.27147912 -76.72695385 423.27359483 -75.83657438 423.27577466 C-72.9355824 423.28177474 -70.03463391 423.2807745 -67.13363647 423.27990723 C-65.05575995 423.2829387 -62.97788409 423.28646013 -60.90000916 423.29043579 C-56.42236952 423.29832584 -51.94473786 423.3034701 -47.46709251 423.30672646 C-40.3867842 423.31263457 -33.30652621 423.32917286 -26.22624207 423.34806824 C-23.80270293 423.35440563 -21.37916377 423.36073125 -18.95562458 423.3670454 C-17.1350392 423.37179412 -17.1350392 423.37179412 -15.27767432 423.37663877 C1.20750388 423.41872535 17.69265862 423.45169571 34.17788696 423.46398926 C45.29581487 423.47236546 56.41361823 423.4948394 67.53148383 423.53334492 C73.41538067 423.55311928 79.29909125 423.5655055 85.18302345 423.56051064 C90.71773116 423.55586942 96.25208568 423.56964117 101.78672218 423.59752274 C103.81720826 423.60444313 105.84773079 423.60455199 107.87821579 423.59732246 C110.65229896 423.58844342 113.42521504 423.60411259 116.19920349 423.62580872 C117.00096616 423.61736618 117.80272883 423.60892364 118.62878734 423.60022527 C125.25357216 423.69590136 129.4345171 425.72324244 134.37490845 430.26306152 C137.19388955 435.06577006 138.53224007 440.04010927 137.68740845 445.61071777 C136.22551389 450.58614299 134.23635261 453.91274103 130.06240845 457.13806152 C125.2020073 459.74827696 121.55752585 460.47449728 116.06240845 460.13806152 C116.41174438 460.81353027 116.76108032 461.48899902 117.1210022 462.18493652 C117.57604126 463.07696777 118.03108032 463.96899902 118.49990845 464.88806152 C118.95236938 465.76978027 119.40483032 466.65149902 119.8710022 467.55993652 C122.93172388 474.18313754 123.14653314 481.81395274 121.3788147 488.86462402 C117.57628058 499.05730884 111.91644696 505.43869332 102.06240845 510.13806152 C93.86670119 512.96296488 83.24261945 512.25002152 75.49990845 508.63806152 C67.81841275 504.17716579 62.7098643 498.37982043 59.7225647 489.97399902 C57.52504401 480.53376224 58.477544 471.65520021 63.06240845 463.13806152 C63.72240845 462.14806152 64.38240845 461.15806152 65.06240845 460.13806152 C37.67240845 460.13806152 10.28240845 460.13806152 -17.93759155 460.13806152 C-16.28759155 463.43806152 -14.63759155 466.73806152 -12.93759155 470.13806152 C-10.58195681 479.56060048 -11.71745831 487.93517666 -16.15634155 496.48571777 C-20.80312937 504.21745639 -27.25301567 508.77050599 -35.93759155 511.13806152 C-46.57250186 512.3171987 -55.01528435 511.51308407 -63.93759155 505.13806152 C-70.59700633 499.48178908 -74.34971895 492.41073336 -75.3164978 483.73962402 C-75.57588878 476.02483439 -74.46618387 469.99685141 -70.93759155 463.13806152 C-70.60759155 462.47806152 -70.27759155 461.81806152 -69.93759155 461.13806152 C-71.21891968 461.11228027 -72.5002478 461.08649902 -73.82040405 461.05993652 C-91.45992605 460.55028192 -105.57977907 458.18011807 -118.25009155 444.82556152 C-126.32647923 435.23179192 -129.47978445 424.96852851 -129.25009155 412.57946777 C-128.13381857 400.2865115 -122.72063279 390.12492705 -113.8477478 381.70056152 C-106.81866482 375.95080039 -98.05201147 372.02239152 -88.93759155 372.13806152 C-89.24348457 371.29768845 -89.24348457 371.29768845 -89.55555725 370.44033813 C-100.15215843 341.32705319 -110.73001483 312.20714373 -121.27249146 283.07421875 C-128.14284309 264.08892377 -135.0262783 245.10848538 -141.93759155 226.13806152 C-142.54623047 226.13441589 -143.15486938 226.13077026 -143.7819519 226.12701416 C-150.14183132 226.08506167 -156.50099762 226.01562699 -162.86044312 225.93054199 C-165.23081312 225.90239264 -167.60127593 225.88114823 -169.97177124 225.86706543 C-173.38794261 225.84555302 -176.8030051 225.79885758 -180.21884155 225.74743652 C-181.79743958 225.74559357 -181.79743958 225.74559357 -183.40792847 225.74371338 C-189.73536625 225.61899903 -194.6758179 224.82325928 -199.93759155 221.13806152 C-204.99554264 215.82072833 -205.29198087 211.24187827 -205.2149353 204.15368652 C-204.80421818 199.6878609 -203.7258439 197.66006449 -200.93759155 194.13806152 C-195.67575984 190.05745734 -191.95395466 189.01513308 -185.38998413 188.96105957 C-184.72940002 188.95448837 -184.06881592 188.94791718 -183.38821411 188.94114685 C-181.2028491 188.92144447 -179.01755283 188.90975613 -176.8321228 188.89978027 C-176.08361242 188.89570475 -175.33510204 188.89162922 -174.56390953 188.88743019 C-170.59952446 188.8665792 -166.63517387 188.85227516 -162.67074585 188.84289551 C-158.5898015 188.83185279 -154.50940567 188.79747548 -150.42865467 188.75772381 C-147.27921078 188.7314864 -144.12989596 188.72319725 -140.9803524 188.71961403 C-139.47694902 188.71476384 -137.9735508 188.70319478 -136.4702549 188.68457603 C-120.41664102 188.49815841 -120.41664102 188.49815841 -114.93759155 193.13806152 C-109.36573255 198.67315655 -106.94217537 205.4962164 -104.41415405 212.78649902 C-104.02311493 213.88023834 -103.63207581 214.97397766 -103.22918701 216.1008606 C-101.99393755 219.5671209 -100.77844338 223.03995644 -99.56259155 226.51306152 C-98.72395275 228.86895955 -97.88412072 231.22443318 -97.0430603 233.57946777 C-96.24902973 235.81476796 -95.45602399 238.05043251 -94.66415405 240.28649902 C-94.28924835 241.34476898 -93.91434265 242.40303894 -93.52807617 243.49337769 C-93.18706879 244.46844269 -92.8460614 245.44350769 -92.49472046 246.44812012 C-92.0422142 247.73763077 -92.0422142 247.73763077 -91.58056641 249.05319214 C-90.93759155 251.13806152 -90.93759155 251.13806152 -90.93759155 253.13806152 C-77.07759155 252.80806152 -63.21759155 252.47806152 -48.93759155 252.13806152 C-54.54759155 237.94806152 -60.15759155 223.75806152 -65.93759155 209.13806152 C-68.90759155 210.78806152 -71.87759155 212.43806152 -74.93759155 214.13806152 C-82.7325796 215.26776994 -89.13591903 213.01230965 -95.93759155 209.13806152 C-100.53875393 205.15561605 -102.75423824 201.63315991 -103.20736694 195.46691895 C-103.13892341 190.73554904 -101.60176287 187.11325471 -99.6211853 182.87634277 C-99.28587296 182.12265915 -98.95056061 181.36897552 -98.60508728 180.592453 C-97.542314 178.20528525 -96.46102944 175.82727207 -95.37509155 173.45056152 C-93.94159647 170.30752133 -92.52650466 167.15706261 -91.1211853 164.00134277 C-90.78791733 163.28666336 -90.45464935 162.57198395 -90.11128235 161.83564758 C-87.43448536 155.82482378 -88.25731601 152.94052121 -90.40878296 147.07653809 C-91.03123544 145.47556091 -91.65831462 143.87637755 -92.28915405 142.27868652 C-92.62627411 141.41604187 -92.96339417 140.55339722 -93.31072998 139.66461182 C-94.02669846 137.83485279 -94.744653 136.00586982 -95.46444702 134.1776123 C-96.54181892 131.44082899 -97.61333035 128.7018144 -98.6836853 125.96228027 C-102.31418351 116.69141248 -105.99237003 107.44585397 -109.87475586 98.27703857 C-111.93759155 93.35235845 -111.93759155 93.35235845 -111.93759155 91.13806152 C-112.80384155 91.05556152 -113.67009155 90.97306152 -114.56259155 90.88806152 C-119.13818231 89.87126358 -122.34053878 88.27239439 -125.20321655 84.44665527 C-128.2342643 79.16366713 -128.83969064 74.12917609 -127.93759155 68.13806152 C-126.51518664 63.87084677 -125.50518512 62.09835988 -121.69662476 59.76525879 C-112.4775535 55.19593323 -102.9789475 51.49748284 -93.37509155 47.82556152 C-91.72059086 47.18741783 -90.06629254 46.5487492 -88.41220093 45.9095459 C-69.82186867 38.73972176 -69.82186867 38.73972176 -62.81259155 41.26306152 C-57.9973449 44.40343977 -54.4085257 48.52176752 -52.93759155 54.13806152 C-52.57301739 58.73169595 -52.40368185 61.0915985 -54.50009155 65.20056152 C-56.33938356 68.95911475 -55.86350779 71.12575782 -54.93759155 75.13806152 C-54.60759155 75.79806152 -54.27759155 76.45806152 -53.93759155 77.13806152 C-52.42296652 73.80816775 -50.9142934 70.47562514 -49.4100647 67.14102173 C-48.84437699 65.88748466 -48.27792795 64.63429088 -47.71072388 63.38143921 C-43.77060754 54.66799048 -39.98105569 45.90302755 -36.31259155 37.07165527 C-35.51780697 35.17097639 -34.72272225 33.27042299 -33.92733765 31.36999512 C-32.74626945 28.54768262 -31.57193187 25.72350552 -30.41836548 22.88983154 C-29.32964979 20.21653949 -28.21785124 17.55387951 -27.10165405 14.89196777 C-26.78526978 14.09616806 -26.4688855 13.30036835 -26.14291382 12.48045349 C-21.24840765 0.98259141 -12.16094674 -3.5682251 0 0 Z " fill="#322F3F" transform="translate(248.93759155273438,0.8619384765625)"/>
<path d="M0 0 C5.95375661 1.88367165 11.67367233 4.04624354 17.37109375 6.59765625 C18.54492867 7.11682617 18.54492867 7.11682617 19.74247742 7.64648438 C21.42811149 8.39223542 23.11299224 9.13969115 24.79718018 9.88870239 C29.3774886 11.92495384 33.96414274 13.94680628 38.55078125 15.96875 C39.49882629 16.38689468 40.44687134 16.80503937 41.42364502 17.2358551 C51.29385643 21.58230256 61.20625802 25.8282614 71.125 30.0625 C85.20768553 36.07902396 99.27233151 42.13486103 113.3125 48.25 C114.11907043 48.60071564 114.92564087 48.95143127 115.75665283 49.31277466 C116.93019318 49.8232283 116.93019318 49.8232283 118.12744141 50.34399414 C118.88871338 50.67504654 119.64998535 51.00609894 120.43432617 51.34718323 C122.61680414 52.30231449 124.79197891 53.27281312 126.96728516 54.24414062 C129.55580156 55.39321987 132.15304176 56.44811709 134.81005859 57.42773438 C140.38630222 59.61976958 144.25059699 61.20296078 146.8828125 66.77734375 C147.62027047 68.84049494 148.32255248 70.91637289 149 73 C149.75245844 74.95788518 150.53500048 76.90238697 151.31733704 78.84851074 C152.53880356 81.90149624 153.71784506 84.97043374 154.90109253 88.03839111 C156.63313444 92.52738264 158.37694317 97.01179565 160.12109375 101.49609375 C160.50002274 102.47058472 160.87895172 103.44507568 161.2693634 104.44909668 C167.84536691 121.33361899 174.56705795 138.16130126 181.25939941 154.99995422 C182.62678267 158.4434419 183.9911347 161.88811777 185.35498047 165.33300781 C187.13253378 169.82210401 188.92513385 174.3048116 190.72705078 178.78417969 C191.56951538 180.89511068 192.41180888 183.00610998 193.25390625 185.1171875 C193.64899887 186.09019806 194.04409149 187.06320862 194.45115662 188.06570435 C194.80315628 188.95264984 195.15515594 189.83959534 195.51782227 190.75341797 C195.82969986 191.52910126 196.14157745 192.30478455 196.46290588 193.10397339 C197 195 197 195 196 197 C193.8203125 198.10546875 193.8203125 198.10546875 191.125 199.1875 C190.24070312 199.55230469 189.35640625 199.91710937 188.4453125 200.29296875 C186 201 186 201 183 200 C182.04145813 198.34733582 182.04145813 198.34733582 181.2043457 196.15698242 C180.88073563 195.32747574 180.55712555 194.49796906 180.22370911 193.64332581 C179.87789291 192.72333298 179.53207672 191.80334015 179.17578125 190.85546875 C178.61361153 189.40254677 178.61361153 189.40254677 178.04008484 187.92027283 C177.22039454 185.79873926 176.40575406 183.67524957 175.59545898 181.55010986 C173.85504206 176.98851188 172.08801581 172.43738624 170.32223511 167.88555908 C169.37925986 165.45433606 168.43749657 163.02264267 167.49685669 160.59051514 C162.5324675 147.75619164 157.49148344 134.95249917 152.40232944 122.16715527 C150.80753616 118.1605297 149.22084011 114.15083587 147.64054585 110.13847065 C146.41342563 107.02953324 145.17463943 103.92527622 143.9375 100.8203125 C143.49661545 99.6954393 143.0557309 98.5705661 142.60148621 97.41160583 C142.1851442 96.37359329 141.76880219 95.33558075 141.33984375 94.26611328 C140.98269287 93.36514923 140.62554199 92.46418518 140.25756836 91.53591919 C138.41947072 87.82934766 136.35538482 84.79064114 132.75 82.6875 C123.51522824 80.37880706 116.33595644 83.79571899 107.83203125 87.2578125 C106.46567332 87.8046584 105.09902475 88.3507786 103.73210144 88.89620972 C100.87823119 90.03881782 98.02874762 91.19161065 95.18188477 92.3515625 C91.5454518 93.83200915 87.89844883 95.28409096 84.2475481 96.72842598 C81.42607084 97.84871903 78.61127988 98.98508351 75.79816246 100.12618637 C74.45632723 100.66799618 73.11237726 101.20460064 71.76627541 101.73572159 C61.86390574 105.43549608 61.86390574 105.43549608 55 113 C52.0654907 121.81752079 58.23586584 132.52891687 61.5 140.625 C62.1722208 142.32941176 62.84292998 144.03442039 63.51220703 145.73999023 C65.65007858 151.16998723 67.82170357 156.5861144 70 162 C70.37298218 162.92770203 70.74596436 163.85540405 71.13024902 164.81121826 C71.88585724 166.69031906 72.64169588 168.56932723 73.39776611 170.44824219 C74.14329472 172.30125046 74.88837727 174.15443826 75.63299561 176.0078125 C77.40555823 180.41862853 79.18521579 184.82621348 80.98242188 189.22705078 C81.63162038 190.82970807 82.2807144 192.43240768 82.9296875 194.03515625 C83.22692719 194.7553746 83.52416687 195.47559296 83.83041382 196.21763611 C85.46336077 200.27005556 86.2669596 203.60175758 87 208 C74.79 208 62.58 208 50 208 C53.68780848 205.23414364 56.35911424 203.97341146 60.625 202.4375 C65.23283967 200.88537311 65.23283967 200.88537311 69 198 C68.75598575 191.45109619 66.14328041 185.67522407 63.73828125 179.65234375 C63.31000534 178.56345352 62.88172943 177.47456329 62.44047546 176.35267639 C61.53358661 174.05086362 60.62308911 171.75046978 59.70922852 169.45141602 C58.32795441 165.9763805 56.95689962 162.49746133 55.58789062 159.01757812 C53.08456231 152.66785504 50.55400835 146.32950195 48 140 C47.67582092 139.19513153 47.35164185 138.39026306 47.01763916 137.56100464 C46.20838448 135.5647855 45.38739929 133.57410328 44.55859375 131.5859375 C44.13247803 130.55903809 43.7063623 129.53213867 43.26733398 128.47412109 C41.07817696 124.20039402 38.26467457 122.13233729 34 120 C28.20196069 119.54323982 24.12258285 120.76017082 18.8828125 122.9296875 C18.11612747 123.23569382 17.34944244 123.54170013 16.55952454 123.85697937 C14.07643244 124.85123969 11.60066283 125.86239847 9.125 126.875 C7.41581692 127.56594114 5.70626026 128.25595883 3.99633789 128.94506836 C1.42799792 129.98070921 -1.13977858 131.01760082 -3.70549011 132.05973816 C-8.74421769 134.10436701 -13.80001274 136.08984807 -18.88671875 138.01171875 C-20.6030249 138.66841553 -20.6030249 138.66841553 -22.35400391 139.33837891 C-24.43088622 140.13076119 -26.51238054 140.91120192 -28.59912109 141.67724609 C-35.04901626 144.17540503 -38.82519342 146.65038684 -42 153 C-42.68829298 159.59704865 -40.53345422 164.62723344 -38.0625 170.67578125 C-37.66297119 171.68215134 -37.26344238 172.68852142 -36.85180664 173.72538757 C-35.57907002 176.92569822 -34.29029617 180.11923346 -33 183.3125 C-31.71270781 186.5247308 -30.4287861 189.73826345 -29.14819336 192.95317078 C-28.35148677 194.95044984 -27.55033383 196.94596197 -26.74438477 198.93952942 C-26.20382446 200.28684395 -26.20382446 200.28684395 -25.65234375 201.66137695 C-25.33257568 202.45300735 -25.01280762 203.24463776 -24.68334961 204.06025696 C-24 206 -24 206 -24 208 C-28.95 208 -33.9 208 -39 208 C-41.84313134 201.07734554 -44.67287528 194.1494509 -47.4815979 187.21276855 C-48.91995651 183.66059594 -50.36258265 180.11026108 -51.81298828 176.56298828 C-53.34196547 172.82115805 -54.8569609 169.07391135 -56.36343384 165.32296753 C-56.95308985 163.86109719 -57.54729214 162.40105217 -58.14608765 160.94290161 C-58.98981041 158.88589205 -59.8169552 156.82291825 -60.640625 154.7578125 C-61.12047852 153.5733252 -61.60033203 152.38883789 -62.09472656 151.16845703 C-63.59420812 145.92027157 -61.89120015 142.41279783 -59.76171875 137.56640625 C-59.28178467 136.46675537 -58.80185059 135.36710449 -58.30737305 134.23413086 C-57.76742794 133.01024836 -57.22746976 131.78637162 -56.6875 130.5625 C-56.11511286 129.25486985 -55.54327217 127.94700039 -54.97192383 126.63891602 C-53.69566305 123.71829561 -52.41689022 120.79879108 -51.13671875 117.87988281 C-47.56320016 109.72581611 -44.0201806 101.55844078 -40.47210693 93.39328003 C-39.18000127 90.42024601 -37.8872106 87.44751072 -36.59423828 84.47485352 C-29.63729658 68.47857396 -22.7092944 52.46990174 -15.79100037 36.45687866 C-12.36631619 28.53130498 -8.93363814 20.60919775 -5.5 12.6875 C-5.21561066 12.03136719 -4.93122131 11.37523437 -4.63821411 10.69921875 C-3.09234393 7.13272526 -1.5462751 3.56631795 0 0 Z " fill="#FDD693" transform="translate(252,46)"/>
<path d="M0 0 C5.06357368 0.85970803 9.55349227 2.85877968 14.21337891 4.95410156 C15.14105072 5.36106262 16.06872253 5.76802368 17.02450562 6.18731689 C20.03711545 7.51142863 23.04310067 8.84991995 26.04931641 10.18847656 C28.15040322 11.11468661 30.25196987 12.03980888 32.35400391 12.96386719 C36.51132753 14.79259768 40.66650506 16.62606076 44.81982422 18.46386719 C51.67180884 21.49332265 58.54521629 24.47117707 65.42431641 27.43847656 C67.75786857 28.44838774 70.09119364 29.45882377 72.42431641 30.46972656 C73.0289975 30.73170837 73.63367859 30.99369019 74.25668335 31.26361084 C82.97155478 35.04069772 91.68068947 38.83100103 100.39074707 42.61917114 C107.28905216 45.61925793 114.18775276 48.61843517 121.08642578 51.61767578 C124.38994121 53.05390051 127.69333745 54.49039854 130.99658203 55.92724609 C134.88851075 57.61998781 138.7812251 59.31091021 142.67431641 61.00097656 C143.83995117 61.50733643 145.00558594 62.01369629 146.20654297 62.53540039 C152.10859709 65.0927056 158.02235544 67.61860128 163.95556641 70.10253906 C165.16954102 70.61163818 166.38351562 71.1207373 167.63427734 71.64526367 C169.93243807 72.60652883 172.23246984 73.56333742 174.53466797 74.51489258 C176.05012207 75.14802368 176.05012207 75.14802368 177.59619141 75.79394531 C178.4840332 76.16156982 179.371875 76.52919434 180.28662109 76.90795898 C182.42431641 77.93847656 182.42431641 77.93847656 184.42431641 79.93847656 C184.30097525 86.10553415 181.85991497 90.05764466 178.42431641 94.93847656 C174.36223464 94.28436469 170.91473341 92.99884242 167.14306641 91.36816406 C166.518284 91.09957077 165.89350159 90.83097748 165.24978638 90.554245 C163.13922657 89.64537321 161.03180917 88.72943547 158.92431641 87.81347656 C157.39762383 87.1541637 155.87076292 86.49524052 154.34375 85.83666992 C150.00517582 83.96357159 145.66966241 82.08348081 141.33483887 80.20172119 C138.28466019 78.87786203 135.23394214 77.55525223 132.18310547 76.23291016 C120.88909588 71.33732346 109.59731053 66.43663433 98.30712891 61.53222656 C90.57473631 58.17347072 82.84128848 54.81719942 75.10400391 51.46972656 C74.32079269 51.13085922 73.53758148 50.79199188 72.7306366 50.44285583 C69.00663834 48.83220594 65.28176085 47.22363099 61.55541992 45.6184082 C54.61281847 42.62606532 47.67900879 39.616219 40.76443481 36.55955505 C37.3349763 35.04462997 33.90201391 33.53774107 30.46875 32.03146362 C28.8330266 31.31112827 27.19902319 30.58687258 25.56689453 29.85842896 C23.31657566 28.85432838 21.0607092 27.8638338 18.80322266 26.87597656 C17.81214256 26.42731483 17.81214256 26.42731483 16.80104065 25.96958923 C12.88995912 24.27707682 9.67275696 23.16541028 5.42431641 23.93847656 C3.60292398 25.96836822 3.60292398 25.96836822 2.42431641 28.93847656 C2.15376434 29.51600677 1.88321228 30.09353699 1.60446167 30.68856812 C0.64774376 32.75278759 -0.26530238 34.83286596 -1.17333984 36.91894531 C-1.69250977 38.10126991 -1.69250977 38.10126991 -2.22216797 39.30747986 C-3.36443699 41.91208672 -4.50146657 44.51894238 -5.63818359 47.12597656 C-6.44398772 48.96765622 -7.24989776 50.80928954 -8.0559082 52.65087891 C-14.40694717 67.18110462 -20.66108766 81.75235633 -26.89013672 96.33520508 C-32.25864757 108.89849006 -37.69938279 121.42873024 -43.18048096 133.94326782 C-47.29392948 143.33847517 -51.35930079 152.75174503 -55.34912109 162.20019531 C-55.74165573 163.12892456 -56.13419037 164.05765381 -56.53862 165.01452637 C-58.43967187 169.51504217 -60.33455438 174.01801852 -62.22045898 178.52490234 C-62.89992459 180.13808002 -63.57952343 181.7512016 -64.25927734 183.36425781 C-64.56678925 184.10496017 -64.87430115 184.84566254 -65.19113159 185.60881042 C-67.34905083 190.7118438 -67.34905083 190.7118438 -69.57568359 192.93847656 C-75.43356072 192.60052211 -80.36647803 191.14768213 -84.57568359 186.93847656 C-84.18759711 183.39037727 -83.03095565 180.33018846 -81.63647461 177.06445312 C-81.23348648 176.11448959 -80.83049835 175.16452606 -80.41529846 174.18577576 C-79.97451462 173.16057327 -79.53373077 172.13537079 -79.07958984 171.07910156 C-78.61934921 169.99883194 -78.15910858 168.91856232 -77.68492126 167.80555725 C-76.17432794 164.26437683 -74.65649045 160.72635587 -73.13818359 157.18847656 C-72.35148243 155.34852264 -71.56478284 153.50856801 -70.77842903 151.66846561 C-63.57200949 134.8090996 -56.2568299 117.99863939 -48.85839844 101.22265625 C-44.27064978 90.81810997 -39.73503079 80.39336267 -35.26318359 69.93847656 C-34.97205688 69.25870758 -34.68093018 68.5789386 -34.38098145 67.87857056 C-30.74278584 59.38297546 -27.12517277 50.87880508 -23.52058411 42.36889648 C-21.60268927 37.84476298 -19.67898284 33.32311228 -17.75454712 28.80175781 C-16.80633345 26.56983769 -15.8608113 24.33677207 -14.9180603 22.10253906 C-13.59696555 18.97209784 -12.2669731 15.8455765 -10.93505859 12.71972656 C-10.34072777 11.30197937 -10.34072777 11.30197937 -9.73439026 9.85559082 C-9.17581581 8.55180481 -9.17581581 8.55180481 -8.60595703 7.22167969 C-8.28479919 6.46342896 -7.96364136 5.70517822 -7.63275146 4.9239502 C-5.54860616 1.0093335 -4.56378015 -0.07852469 0 0 Z " fill="#E46E48" transform="translate(241.57568359375,11.0615234375)"/>
<path d="M0 0 C1.16643718 2.39924128 2.13158787 4.70983281 3.0546875 7.203125 C3.3488858 7.96869217 3.64308411 8.73425934 3.94619751 9.52302551 C4.5913756 11.20545435 5.23137815 12.8898745 5.86694336 14.57595825 C7.2393549 18.21651336 8.63589302 21.84764609 10.03143311 25.47938538 C10.78757045 27.44745582 11.54245796 29.41600684 12.29620361 31.38499451 C17.25494468 44.32046113 22.38519954 57.18816235 27.5 70.0625 C28.44790149 72.45143884 29.39565857 74.84043499 30.34326172 77.22949219 C32.56094181 82.82015128 34.77989986 88.41030151 37 94 C32.42106667 97.63156781 29.21335505 98.1242391 23.41723633 98.11352539 C22.75355545 98.11367142 22.08987457 98.11381744 21.40608215 98.1139679 C19.21469848 98.11327182 17.02340005 98.1054937 14.83203125 98.09765625 C13.31174262 98.09579099 11.79145339 98.09436759 10.27116394 98.09336853 C6.27135557 98.08955188 2.27158356 98.07972885 -1.72821045 98.06866455 C-5.81033842 98.05843213 -9.89247227 98.05386698 -13.97460938 98.04882812 C-21.98308959 98.03810583 -29.99154027 98.02103961 -38 98 C-44.22629222 82.75068829 -50.43880018 67.49639819 -56.5559082 52.20288086 C-57.59334807 49.61041349 -58.63358793 47.01907919 -59.67382812 44.42773438 C-60.34652131 42.74746274 -61.01905411 41.06712688 -61.69140625 39.38671875 C-61.99655655 38.62743576 -62.30170685 37.86815277 -62.61610413 37.08586121 C-64.20956845 33.09358974 -65.68764789 29.09620274 -67 25 C-59.07283918 21.28520068 -51.03743351 17.97244822 -42.875 14.8125 C-40.41496134 13.85648632 -37.95520107 12.89980805 -35.49609375 11.94140625 C-34.87680496 11.70026093 -34.25751617 11.4591156 -33.61946106 11.21066284 C-29.30314369 9.52434543 -25.00940699 7.78781753 -20.72265625 6.02734375 C-19.58006348 5.56030029 -18.4374707 5.09325684 -17.26025391 4.61206055 C-15.08102772 3.71875394 -12.90478871 2.81811746 -10.73193359 1.90942383 C-9.75691895 1.51134521 -8.7819043 1.1132666 -7.77734375 0.703125 C-6.92390381 0.34895508 -6.07046387 -0.00521484 -5.19116211 -0.37011719 C-3 -1 -3 -1 0 0 Z " fill="#FE4D6C" transform="translate(389,156)"/>
<path d="M0 0 C3.5800509 0.97758075 6.90897731 2.38874713 10.29663086 3.88085938 C11.02490082 4.19689117 11.75317078 4.51292297 12.50350952 4.83853149 C14.88857251 5.87501567 17.2704383 6.9186162 19.65209961 7.96289062 C21.30276184 8.68349685 22.95356088 9.40378975 24.60449219 10.1237793 C27.14379354 11.23159205 29.68278444 12.3400879 32.22080994 13.45082092 C37.1489231 15.60678419 42.084235 17.74454975 47.02967834 19.86045837 C49.99585469 21.12990738 52.95909489 22.40611821 55.92196655 23.68325806 C57.32110834 24.2845071 58.72151786 24.88281491 60.12319946 25.4781189 C62.06748024 26.30466896 64.0066808 27.14216366 65.94506836 27.98242188 C67.03972412 28.45139893 68.13437988 28.92037598 69.26220703 29.40356445 C71.83959961 30.77539062 71.83959961 30.77539062 73.83959961 33.77539062 C73.70385742 36.31787109 73.70385742 36.31787109 72.83959961 38.77539062 C71.2487793 40.08056641 71.2487793 40.08056641 69.01147461 41.09570312 C68.10075195 41.50981445 67.1900293 41.92392578 66.25170898 42.35058594 C58.57203398 45.55741073 50.84152824 48.62297152 43.08959961 51.65039062 C41.18650382 52.39756624 39.28359292 53.14521294 37.38085938 53.89331055 C33.47291823 55.42921299 29.56408872 56.96282066 25.65454102 58.49462891 C17.50655617 61.68843516 9.36727476 64.90425106 1.22790527 68.11993408 C-1.16460191 69.06486538 -3.55745499 70.00891483 -5.95043945 70.95263672 C-6.69472198 71.24636169 -7.43900452 71.54008667 -8.20584106 71.8427124 C-9.63062603 72.40449423 -11.05580255 72.96528425 -12.48141479 73.52496338 C-15.41865882 74.68014127 -18.34462215 75.85294697 -21.25366211 77.07763672 C-22.12909668 77.4458252 -23.00453125 77.81401367 -23.90649414 78.19335938 C-24.62377686 78.50426514 -25.34105957 78.8151709 -26.08007812 79.13549805 C-28.55090661 79.89550761 -30.58857534 79.95617409 -33.16040039 79.77539062 C-35.03540039 78.71289062 -35.03540039 78.71289062 -36.16040039 76.77539062 C-35.77776159 70.94501294 -33.90372483 66.28640538 -31.51196289 61.00195312 C-30.95895508 59.75177147 -30.95895508 59.75177147 -30.39477539 58.47633362 C-29.20004056 55.78053172 -27.99311546 53.09039924 -26.78540039 50.40039062 C-25.96093075 48.54956412 -25.13720315 46.69840689 -24.31420898 44.84692383 C-23.08390349 42.08003559 -21.8527353 39.31355927 -20.61782837 36.54872131 C-18.2596505 31.2667844 -15.935847 25.97236908 -13.66040039 20.65429688 C-13.16459473 19.50171387 -12.66878906 18.34913086 -12.15795898 17.16162109 C-11.26873784 15.08930244 -10.38583805 13.01425525 -9.51049805 10.93603516 C-4.57563321 -0.4757128 -4.57563321 -0.4757128 0 0 Z " fill="#FFF0AC" transform="translate(266.160400390625,73.224609375)"/>
<path d="M0 0 C0.90105469 0.00902344 1.80210937 0.01804687 2.73046875 0.02734375 C3.41753906 0.03894531 4.10460937 0.05054688 4.8125 0.0625 C5.48307887 1.8527061 6.1488469 3.64471489 6.8125 5.4375 C7.18375 6.43523437 7.555 7.43296875 7.9375 8.4609375 C8.8125 11.0625 8.8125 11.0625 8.8125 13.0625 C8.0390625 13.13726562 7.265625 13.21203125 6.46875 13.2890625 C-0.86093783 14.21434487 -5.99118467 15.65781112 -11.1875 21.0625 C-14.4971376 25.50982552 -14.76322473 29.90760565 -14.6015625 35.30859375 C-13.70698717 41.25836361 -10.70703558 44.87726225 -6.0625 48.5 C-1.23773164 51.12215672 2.79558167 51.20760561 8.15672302 51.20053101 C9.44877886 51.20476293 9.44877886 51.20476293 10.76693684 51.20908034 C13.66421366 51.21743867 16.56145233 51.21876563 19.45874023 51.22021484 C21.53148507 51.22488207 23.60422887 51.23002548 25.67697144 51.23561096 C30.14590293 51.24689913 34.61482772 51.25532976 39.08376884 51.26173019 C46.14637117 51.27239617 53.20892536 51.29263633 60.27149963 51.31484985 C80.3565145 51.37682432 100.4415265 51.43082507 120.52661133 51.46386719 C131.61518865 51.48218937 142.70368538 51.51109332 153.79220349 51.5518719 C159.66313486 51.57297907 165.53396451 51.58840444 171.40493584 51.59067917 C176.92479766 51.59282039 182.44444752 51.60863585 187.96424484 51.63506889 C189.992765 51.64228295 192.02131077 51.64435272 194.04984093 51.64096642 C196.81391154 51.63708848 199.57729956 51.65147166 202.34129333 51.67050171 C203.1485857 51.66497201 203.95587807 51.65944232 204.78763384 51.65374506 C208.02204436 51.69232456 210.41734286 51.85501847 213.30679417 53.37215614 C214.8125 55.0625 214.8125 55.0625 215.375 58.5 C214.8125 62.0625 214.8125 62.0625 212.81094551 64.25341034 C208.94038592 66.5886835 205.66258407 66.61943939 201.27487183 66.57043457 C200.41673138 66.57667453 199.55859093 66.5829145 198.67444623 66.58934355 C195.79944881 66.60529566 192.92529665 66.59266035 190.05029297 66.58007812 C187.98860683 66.58549849 185.92692456 66.59262067 183.86524963 66.60131836 C178.26364973 66.61957151 172.66234417 66.61247403 167.06073904 66.59980202 C161.19487304 66.58967658 155.32903228 66.59906719 149.46316528 66.60534668 C139.60560587 66.61262784 129.74816623 66.60302663 119.890625 66.58398438 C108.50887951 66.56225101 97.12742103 66.56923949 85.7456826 66.59129 C75.96712193 66.60947385 66.18864743 66.61198662 56.41007531 66.60153532 C50.5730171 66.59531216 44.73609349 66.59443167 38.89904404 66.60768127 C33.40453441 66.61928121 27.91039231 66.61113828 22.41592216 66.58810425 C20.40484793 66.58283771 18.39374251 66.5842955 16.38268089 66.59315491 C2.92166158 66.64696277 -8.3639918 66.1341735 -19.1796875 57.12109375 C-25.84391102 50.28831983 -29.45494557 41.82031137 -29.5625 32.3125 C-29.39270281 22.82383354 -26.76549278 15.83106155 -20.2578125 8.88671875 C-14.35631876 3.68672333 -7.95135153 -0.10326431 0 0 Z " fill="#DAE6FB" transform="translate(160.1875,383.9375)"/>
<path d="M0 0 C1.26165985 -0.01260864 2.5233197 -0.02521729 3.82321167 -0.03820801 C5.19741372 -0.03104661 6.57161067 -0.02284223 7.94580078 -0.01367188 C9.36060859 -0.01636805 10.77541458 -0.02025152 12.19021606 -0.02526855 C15.15433406 -0.0311617 18.11796944 -0.02261 21.08203125 -0.00390625 C24.8707076 0.01884246 28.65824791 0.0057865 32.44688225 -0.01819611 C35.36899267 -0.03269534 38.29083674 -0.02802874 41.21295547 -0.01768494 C42.60912334 -0.01502682 44.00531582 -0.01825513 45.40145493 -0.02760315 C47.35877736 -0.03783001 49.31618512 -0.01946293 51.2734375 0 C52.38500214 0.00318237 53.49656677 0.00636475 54.64181519 0.00964355 C58.54314052 0.64390378 60.70851684 2.04846446 63.76611328 4.51757812 C65.12862606 7.1721578 66.11201995 9.48641248 67.04345703 12.28320312 C67.32703568 13.07868057 67.61061432 13.87415802 67.90278625 14.69374084 C68.8551836 17.37879266 69.77876219 20.07292605 70.70361328 22.76757812 C71.38801318 24.71127963 72.07460348 26.65421101 72.76318359 28.59643555 C74.28150738 32.88587649 75.78930782 37.17883594 77.29101562 41.47412109 C79.89666311 48.91002994 82.55467116 56.32671678 85.22314453 63.74023438 C85.57502555 64.71796908 85.57502555 64.71796908 85.93401527 65.71545601 C86.89543235 68.38649087 87.85707642 71.05744375 88.81916142 73.72823811 C90.53646727 78.4958434 92.25002862 83.26478219 93.96166992 88.03442383 C101.64477309 109.44060782 109.39843307 130.82046639 117.18884277 152.18785095 C118.30067091 155.2396681 119.41002508 158.29237551 120.51904297 161.34521484 C122.11276864 165.73118679 123.72056412 170.11177974 125.33349609 174.49072266 C126.16798041 176.77174609 127.00229528 179.05283153 127.83642578 181.33398438 C128.42760696 182.92749977 128.42760696 182.92749977 129.0307312 184.5532074 C129.38958405 185.53862015 129.74843689 186.5240329 130.11816406 187.53930664 C130.43713654 188.40620621 130.75610901 189.27310577 131.08474731 190.16627502 C131.76611328 192.51757812 131.76611328 192.51757812 131.76611328 196.51757812 C126.48611328 196.51757812 121.20611328 196.51757812 115.76611328 196.51757812 C112.47483193 188.75661115 109.40634636 180.97902435 106.60595703 173.02929688 C106.22379532 171.95363464 105.84163361 170.87797241 105.44789124 169.76971436 C104.62614734 167.45638532 103.80574423 165.14257965 102.98657227 162.82833862 C100.76349346 156.55004469 98.5284724 150.27600502 96.29345703 144.00195312 C96.06388683 143.35723494 95.83431664 142.71251675 95.59778976 142.04826164 C89.90971918 126.07693301 84.12005307 110.14282865 78.30712891 94.21655273 C77.48222693 91.95622919 76.65735724 89.69589387 75.83251953 87.43554688 C75.42345367 86.31482285 75.01438782 85.19409882 74.59292603 84.03941345 C71.66307093 76.00303852 68.7626455 67.9564393 65.87318039 59.90548897 C64.49013757 56.05474497 63.10260795 52.20561515 61.71497154 48.35652447 C60.60369381 45.27263986 59.49654943 42.18736191 58.39477539 39.10006714 C57.18107203 35.70000199 55.95715994 32.30377657 54.73095703 28.90820312 C54.37251205 27.89538773 54.01406708 26.88257233 53.64476013 25.83906555 C53.30831985 24.91345322 52.97187958 23.98784088 52.62524414 23.03417969 C52.33693222 22.2296637 52.0486203 21.42514771 51.75157166 20.59625244 C50.6581568 18.28986038 49.83646214 17.01899095 47.76611328 15.51757812 C45.31497184 15.07215025 45.31497184 15.07215025 42.53198242 15.14868164 C41.46399918 15.14179825 40.39601593 15.13491486 39.29566956 15.12782288 C38.14251755 15.13398117 36.98936554 15.14013947 35.80126953 15.14648438 C33.3683254 15.12910362 30.93538273 15.11151922 28.50244141 15.09375 C24.65972248 15.08366541 20.81709686 15.08008323 16.97436523 15.08178711 C13.27054792 15.07822506 9.56745793 15.05091006 5.86376953 15.02148438 C4.13707787 15.03375816 4.13707787 15.03375816 2.37550354 15.04627991 C1.30436813 15.03624435 0.23323273 15.0262088 -0.87036133 15.01586914 C-1.81173447 15.01603531 -2.7531076 15.01620148 -3.7230072 15.01637268 C-6.9998923 14.36540857 -8.19265302 13.11283238 -10.23388672 10.51757812 C-10.73388672 7.51757812 -10.73388672 7.51757812 -10.23388672 4.51757812 C-7.16402908 0.48743766 -4.96505594 0.01423517 0 0 Z " fill="#DBE6FB" transform="translate(65.23388671875,200.482421875)"/>
<path d="M0 0 C5.95375661 1.88367165 11.67367233 4.04624354 17.37109375 6.59765625 C18.54492867 7.11682617 18.54492867 7.11682617 19.74247742 7.64648438 C21.42811149 8.39223542 23.11299224 9.13969115 24.79718018 9.88870239 C29.3774886 11.92495384 33.96414274 13.94680628 38.55078125 15.96875 C39.49882629 16.38689468 40.44687134 16.80503937 41.42364502 17.2358551 C51.29385643 21.58230256 61.20625802 25.8282614 71.125 30.0625 C85.20768553 36.07902396 99.27233151 42.13486103 113.3125 48.25 C114.11907043 48.60071564 114.92564087 48.95143127 115.75665283 49.31277466 C116.93019318 49.8232283 116.93019318 49.8232283 118.12744141 50.34399414 C118.88871338 50.67504654 119.64998535 51.00609894 120.43432617 51.34718323 C122.61680414 52.30231449 124.79197891 53.27281312 126.96728516 54.24414062 C129.55580156 55.39321987 132.15304176 56.44811709 134.81005859 57.42773438 C140.38630222 59.61976958 144.25059699 61.20296078 146.8828125 66.77734375 C147.62027047 68.84049494 148.32255248 70.91637289 149 73 C149.75245844 74.95788518 150.53500048 76.90238697 151.31733704 78.84851074 C152.53880356 81.90149624 153.71784506 84.97043374 154.90109253 88.03839111 C156.63313444 92.52738264 158.37694317 97.01179565 160.12109375 101.49609375 C160.50002274 102.47058472 160.87895172 103.44507568 161.2693634 104.44909668 C167.84536691 121.33361899 174.56705795 138.16130126 181.25939941 154.99995422 C182.62678267 158.4434419 183.9911347 161.88811777 185.35498047 165.33300781 C187.13253378 169.82210401 188.92513385 174.3048116 190.72705078 178.78417969 C191.56951538 180.89511068 192.41180888 183.00610998 193.25390625 185.1171875 C193.64899887 186.09019806 194.04409149 187.06320862 194.45115662 188.06570435 C194.80315628 188.95264984 195.15515594 189.83959534 195.51782227 190.75341797 C195.82969986 191.52910126 196.14157745 192.30478455 196.46290588 193.10397339 C197 195 197 195 196 197 C193.8203125 198.10546875 193.8203125 198.10546875 191.125 199.1875 C190.24070312 199.55230469 189.35640625 199.91710937 188.4453125 200.29296875 C186 201 186 201 183 200 C181.625 197.1875 181.625 197.1875 181 194 C181.474375 193.38125 181.94875 192.7625 182.4375 192.125 C184.48810658 189.33617504 183.96782362 187.53996834 183.47244263 184.23010254 C182.67608934 180.47102283 181.27817017 177.02486572 179.80859375 173.484375 C179.47546677 172.65915848 179.14233978 171.83394196 178.79911804 170.98371887 C177.68746725 168.23544598 176.56256462 165.49280595 175.4375 162.75 C174.23260367 159.78474643 173.03074085 156.81827306 171.82879639 153.8518219 C170.96446674 151.71969663 170.09891384 149.5880669 169.23223877 147.45689392 C165.92129534 139.30748682 162.66208056 131.13857506 159.42366982 122.96017075 C157.7973104 118.8542457 156.1670874 114.74985224 154.53745937 110.64522362 C153.19980273 107.27497651 151.86439393 103.90387121 150.53366089 100.53088379 C149.03269528 96.72715834 147.52059247 92.92794835 146.0078125 89.12890625 C145.33693855 87.42079521 145.33693855 87.42079521 144.6525116 85.67817688 C140.18465651 74.50505311 135.45138528 67.2169744 124.15625 62.25390625 C121.94250707 61.3444857 119.72349344 60.44781376 117.5 59.5625 C115.15149127 58.59973311 112.80382775 57.63490181 110.45703125 56.66796875 C109.33506348 56.20825684 108.2130957 55.74854492 107.05712891 55.27490234 C103.3784278 53.74078821 99.78456405 52.09150776 96.1875 50.375 C90.00605842 47.43864373 83.75251344 44.72046619 77.45507812 42.04296875 C67.67419845 37.87767495 57.93128421 33.62613579 48.1875 29.375 C46.94456177 28.83289886 46.94456177 28.83289886 45.67651367 28.27984619 C44.04008975 27.56610663 42.40378673 26.85208979 40.76760864 26.13778687 C39.16841854 25.44043631 37.56855077 24.74463761 35.96798706 24.05044556 C32.12156142 22.37934022 28.2919124 20.6823408 24.48681641 18.91894531 C23.76963943 18.59141266 23.05246246 18.26388 22.31355286 17.92642212 C20.97983755 17.31597561 19.650646 16.69549201 18.32743835 16.06259155 C14.05518866 14.12247517 10.66451437 13.30793153 6 14 C1.33849208 17.45276612 -0.58600022 21.76720343 -2.75 26.96484375 C-3.08448654 27.74084427 -3.41897308 28.51684479 -3.76359558 29.31636047 C-4.85360181 31.85210619 -5.9267222 34.39463438 -7 36.9375 C-7.76485496 38.72478797 -8.53090096 40.51156669 -9.2980957 42.29785156 C-10.83555352 45.88150764 -12.36701876 49.46762291 -13.89306641 53.05615234 C-16.14200694 58.34089169 -18.42549682 63.60985751 -20.7199707 68.875 C-21.70693847 71.14481241 -22.68845908 73.41700037 -23.66479492 75.69140625 C-26.77028943 82.92041684 -29.94295957 90.11430827 -33.17588806 97.28738403 C-35.22694808 101.8508108 -37.25482962 106.42436858 -39.28042603 110.99914551 C-40.29095995 113.26703461 -41.31125193 115.5306042 -42.34188843 117.78942871 C-49.12226885 132.66548244 -54.32594037 144.18352044 -49.1640625 160.4921875 C-48.34335815 162.62981685 -47.49615705 164.75743058 -46.625 166.875 C-45.95911865 168.58127563 -45.95911865 168.58127563 -45.27978516 170.32202148 C-43.87922372 173.89234549 -42.44286368 177.44658504 -41 181 C-40.03522791 183.40966398 -39.07167245 185.81981545 -38.109375 188.23046875 C-36.76651686 191.59351418 -35.41931699 194.95406621 -34.04931641 198.30615234 C-33.64890137 199.28922363 -33.24848633 200.27229492 -32.8359375 201.28515625 C-32.48063965 202.15019775 -32.1253418 203.01523926 -31.75927734 203.90649414 C-31 206 -31 206 -31 208 C-33.64 208 -36.28 208 -39 208 C-41.84499471 201.07813047 -44.67288191 194.14943452 -47.4815979 187.21276855 C-48.91995651 183.66059594 -50.36258265 180.11026108 -51.81298828 176.56298828 C-53.34196547 172.82115805 -54.8569609 169.07391135 -56.36343384 165.32296753 C-56.95308985 163.86109719 -57.54729214 162.40105217 -58.14608765 160.94290161 C-58.98981041 158.88589205 -59.8169552 156.82291825 -60.640625 154.7578125 C-61.12047852 153.5733252 -61.60033203 152.38883789 -62.09472656 151.16845703 C-63.59420812 145.92027157 -61.89120015 142.41279783 -59.76171875 137.56640625 C-59.28178467 136.46675537 -58.80185059 135.36710449 -58.30737305 134.23413086 C-57.76742794 133.01024836 -57.22746976 131.78637162 -56.6875 130.5625 C-56.11511286 129.25486985 -55.54327217 127.94700039 -54.97192383 126.63891602 C-53.69566305 123.71829561 -52.41689022 120.79879108 -51.13671875 117.87988281 C-47.56320016 109.72581611 -44.0201806 101.55844078 -40.47210693 93.39328003 C-39.18000127 90.42024601 -37.8872106 87.44751072 -36.59423828 84.47485352 C-29.63729658 68.47857396 -22.7092944 52.46990174 -15.79100037 36.45687866 C-12.36631619 28.53130498 -8.93363814 20.60919775 -5.5 12.6875 C-5.21561066 12.03136719 -4.93122131 11.37523437 -4.63821411 10.69921875 C-3.09234393 7.13272526 -1.5462751 3.56631795 0 0 Z " fill="#FBAE7E" transform="translate(252,46)"/>
<path d="M0 0 C14.52 0 29.04 0 44 0 C44 13.5 44 13.5 43.5625 19.515625 C43.48128906 20.66321289 43.40007812 21.81080078 43.31640625 22.99316406 C43.21199219 24.39791992 43.10757813 25.80267578 43 27.25 C42.67 31.7875 42.34 36.325 42 41 C28.8 41 15.6 41 2 41 C1.505 36.6996875 1.505 36.6996875 1 32.3125 C0.84337891 31.03306519 0.84337891 31.03306519 0.68359375 29.7277832 C-0.38586681 19.72387088 0 10.25596177 0 0 Z " fill="#BEF3FB" transform="translate(268,305)"/>
<path d="M0 0 C13.53 0 27.06 0 41 0 C40.10459348 4.47703262 38.84051112 8.57761274 37.3125 12.85546875 C36.91865112 13.96973991 36.91865112 13.96973991 36.5168457 15.10652161 C35.96367637 16.66948183 35.40887554 18.23186549 34.85253906 19.79370117 C33.99958775 22.18865754 33.15171767 24.58536575 32.3046875 26.98242188 C31.76592004 28.50270876 31.22686746 30.02289463 30.6875 31.54296875 C30.43331299 32.2606694 30.17912598 32.97837006 29.91723633 33.71781921 C28.11679354 38.76641292 28.11679354 38.76641292 27 41 C15.78 41 4.56 41 -7 41 C-6.38600688 34.86006877 -5.77087335 29.22272036 -4.58984375 23.2421875 C-4.3487085 22.00839355 -4.10757324 20.77459961 -3.85913086 19.50341797 C-3.55499268 17.97604004 -3.25085449 16.44866211 -2.9375 14.875 C-1.968125 9.96625 -0.99875 5.0575 0 0 Z " fill="#96D6FB" transform="translate(371,305)"/>
<path d="M0 0 C1.16643718 2.39924128 2.13158787 4.70983281 3.0546875 7.203125 C3.3488858 7.96869217 3.64308411 8.73425934 3.94619751 9.52302551 C4.5913756 11.20545435 5.23137815 12.8898745 5.86694336 14.57595825 C7.2393549 18.21651336 8.63589302 21.84764609 10.03143311 25.47938538 C10.78757045 27.44745582 11.54245796 29.41600684 12.29620361 31.38499451 C17.25494468 44.32046113 22.38519954 57.18816235 27.5 70.0625 C28.44790149 72.45143884 29.39565857 74.84043499 30.34326172 77.22949219 C32.56094181 82.82015128 34.77989986 88.41030151 37 94 C32.72277069 97.39228531 29.73656114 98.12631248 24.3125 98.0625 C23.31863281 98.05347656 22.32476562 98.04445313 21.30078125 98.03515625 C20.54152344 98.02355469 19.78226562 98.01195312 19 98 C21.6465335 95.3534665 24.56221264 94.40058003 28 93 C28.55050452 86.45890868 26.62868483 81.62578766 24.16015625 75.625 C23.75977646 74.62404297 23.35939667 73.62308594 22.94688416 72.59179688 C21.6633241 69.3898764 20.36341942 66.19490148 19.0625 63 C17.80286481 59.87386971 16.54661142 56.74639374 15.29037476 53.61889648 C14.45440548 51.54172696 13.61556283 49.4657115 12.77383423 47.39086914 C10.6188506 42.07266083 8.50736283 36.7427254 6.46826172 31.37890625 C6.06280624 30.31800781 5.65735077 29.25710937 5.23960876 28.1640625 C4.46882076 26.13983154 3.70588336 24.11258873 2.95191956 22.08203125 C2.60741257 21.1796875 2.26290558 20.27734375 1.90795898 19.34765625 C1.61066391 18.55367432 1.31336884 17.75969238 1.00706482 16.94165039 C0.02664341 14.66877165 0.02664341 14.66877165 -3 13 C-7.73955802 13.35470405 -11.94148013 14.97127614 -16.3125 16.73046875 C-17.00327637 17.00337234 -17.69405273 17.27627594 -18.40576172 17.55744934 C-19.86584562 18.13554648 -21.32481354 18.71646928 -22.78271484 19.30004883 C-24.96347105 20.17287957 -27.14734797 21.0374432 -29.33203125 21.90039062 C-38.28798586 25.45040614 -47.1667299 29.15469274 -56 33 C-56.19095364 37.76497669 -55.85025 41.22183195 -53.98046875 45.60546875 C-53.54001221 46.65863281 -53.09955566 47.71179688 -52.64575195 48.796875 C-52.16452881 49.91578125 -51.68330566 51.0346875 -51.1875 52.1875 C-50.18330231 54.58657319 -49.18075294 56.98633687 -48.1796875 59.38671875 C-47.92063126 60.00380707 -47.66157501 60.62089539 -47.39466858 61.25668335 C-44.69827624 67.68531045 -42.10523554 74.15348681 -39.54800415 80.63858032 C-38.82146452 82.47731253 -38.08789831 84.31326327 -37.35424805 86.14916992 C-36.9137915 87.26525635 -36.47333496 88.38134277 -36.01953125 89.53125 C-35.62870361 90.51673828 -35.23787598 91.50222656 -34.83520508 92.51757812 C-34 95 -34 95 -34 98 C-35.32 98 -36.64 98 -38 98 C-44.22376869 82.81850739 -50.38073877 67.61068465 -56.48339844 52.38012695 C-57.20074215 50.59017585 -57.91867502 48.80046075 -58.63720703 47.01098633 C-59.65707861 44.47028263 -60.67457698 41.92864131 -61.69140625 39.38671875 C-61.996194 38.62832199 -62.30098175 37.86992523 -62.61500549 37.08854675 C-64.20887448 33.09538502 -65.68734952 29.09713404 -67 25 C-59.07283918 21.28520068 -51.03743351 17.97244822 -42.875 14.8125 C-40.41496134 13.85648632 -37.95520107 12.89980805 -35.49609375 11.94140625 C-34.87680496 11.70026093 -34.25751617 11.4591156 -33.61946106 11.21066284 C-29.30314369 9.52434543 -25.00940699 7.78781753 -20.72265625 6.02734375 C-19.58006348 5.56030029 -18.4374707 5.09325684 -17.26025391 4.61206055 C-15.08102772 3.71875394 -12.90478871 2.81811746 -10.73193359 1.90942383 C-9.75691895 1.51134521 -8.7819043 1.1132666 -7.77734375 0.703125 C-6.92390381 0.34895508 -6.07046387 -0.00521484 -5.19116211 -0.37011719 C-3 -1 -3 -1 0 0 Z " fill="#EC2F61" transform="translate(389,156)"/>
<path d="M0 0 C1.26165985 -0.01260864 2.5233197 -0.02521729 3.82321167 -0.03820801 C5.19741372 -0.03104661 6.57161067 -0.02284223 7.94580078 -0.01367188 C9.36060859 -0.01636805 10.77541458 -0.02025152 12.19021606 -0.02526855 C15.15433406 -0.0311617 18.11796944 -0.02261 21.08203125 -0.00390625 C24.8707076 0.01884246 28.65824791 0.0057865 32.44688225 -0.01819611 C35.36899267 -0.03269534 38.29083674 -0.02802874 41.21295547 -0.01768494 C42.60912334 -0.01502682 44.00531582 -0.01825513 45.40145493 -0.02760315 C47.35877736 -0.03783001 49.31618512 -0.01946293 51.2734375 0 C52.38500214 0.00318237 53.49656677 0.00636475 54.64181519 0.00964355 C58.52728439 0.64132596 60.70644632 2.08157971 63.76611328 4.51757812 C65.36523438 7.35498047 65.36523438 7.35498047 66.53955078 10.60351562 C67.18730469 12.37082031 67.18730469 12.37082031 67.84814453 14.17382812 C68.48816406 16.01460937 68.48816406 16.01460937 69.14111328 17.89257812 C69.59099609 19.11203125 70.04087891 20.33148438 70.50439453 21.58789062 C74.30884673 32.18022562 74.30884673 32.18022562 73.76611328 37.51757812 C70.45333165 40.66472067 67.8708447 41.75163602 63.39111328 41.76757812 C62.19486328 41.68507812 60.99861328 41.60257813 59.76611328 41.51757812 C56.61915103 34.08539068 53.64149699 26.6216448 50.87939453 19.03710938 C50.02611132 16.38200506 50.02611132 16.38200506 47.76611328 15.51757812 C46.06145533 15.41869992 44.35301943 15.38203411 42.64550781 15.37573242 C41.57744904 15.36869797 40.50939026 15.36166351 39.40896606 15.35441589 C38.25065277 15.35025162 37.09233948 15.34608734 35.89892578 15.34179688 C33.46271919 15.3186019 31.02652124 15.2944847 28.59033203 15.26953125 C24.73659463 15.2343721 20.88317536 15.20505052 17.02929688 15.19165039 C13.31877865 15.17621167 9.60919766 15.1360278 5.89892578 15.09179688 C4.16752853 15.0946595 4.16752853 15.0946595 2.40115356 15.09757996 C1.32679047 15.08108902 0.25242737 15.06459808 -0.85449219 15.04760742 C-1.79888153 15.04174118 -2.74327087 15.03587494 -3.71627808 15.02983093 C-6.9906898 14.36359291 -8.1912329 13.11376712 -10.23388672 10.51757812 C-10.73388672 7.51757812 -10.73388672 7.51757812 -10.23388672 4.51757812 C-7.16402908 0.48743766 -4.96505594 0.01423517 0 0 Z " fill="#F5F7FD" transform="translate(65.23388671875,200.482421875)"/>
<path d="M0 0 C12.21 0 24.42 0 37 0 C35.6989985 9.75751123 34.29015479 19.30898623 32.375 28.9375 C31.59125 32.918125 30.8075 36.89875 30 41 C19.11 41 8.22 41 -3 41 C-2.73737231 35.6429051 -2.47220458 30.2860644 -2.20043945 24.92944336 C-2.10875383 23.10692786 -2.0185754 21.2843359 -1.92993164 19.46166992 C-1.80229975 16.84272061 -1.66926059 14.22409362 -1.53515625 11.60546875 C-1.49656998 10.78974899 -1.4579837 9.97402924 -1.41822815 9.1335907 C-1.2475801 5.88611767 -1.03364021 3.10092063 0 0 Z " fill="#BEF3FA" transform="translate(323,305)"/>
<path d="M0 0 C12.21 0 24.42 0 37 0 C39.56793592 14.12364758 40 26.48356984 40 41 C29.44 41 18.88 41 8 41 C7.236875 37.205 6.47375 33.41 5.6875 29.5 C5.45377686 28.34048828 5.22005371 27.18097656 4.97924805 25.98632812 C3.24471069 17.33579656 1.62634577 8.6738441 0 0 Z " fill="#BEF3FA" transform="translate(219,305)"/>
<path d="M0 0 C1.20625877 2.70129769 2.38993392 5.4091136 3.5625 8.125 C4.07586914 9.26582031 4.07586914 9.26582031 4.59960938 10.4296875 C4.91865234 11.17734375 5.23769531 11.925 5.56640625 12.6953125 C6.01415405 13.7164917 6.01415405 13.7164917 6.47094727 14.75830078 C7.91052651 20.85807771 4.65428236 26.56729192 2.21875 32.01171875 C1.84520386 32.8617598 1.47165771 33.71180084 1.08679199 34.58760071 C-0.10240382 37.29044407 -1.30085325 39.98905876 -2.5 42.6875 C-3.69722006 45.39746599 -4.89253006 48.10826349 -6.08679199 50.8195343 C-6.82919874 52.50324964 -7.57367581 54.18605396 -8.32043457 55.86784363 C-8.65748413 56.62906021 -8.99453369 57.39027679 -9.34179688 58.17456055 C-9.63856323 58.84263229 -9.93532959 59.51070404 -10.24108887 60.19902039 C-10.9029198 61.76961801 -11.46103831 63.38311492 -12 65 C-12.66 65 -13.32 65 -14 65 C-16.85554205 57.93706694 -19.70304546 50.87093285 -22.54492188 43.80249023 C-23.51311375 41.39711824 -24.48315925 38.99249152 -25.45507812 36.58862305 C-26.84990961 33.13783841 -28.23810331 29.68444875 -29.625 26.23046875 C-30.06247559 25.15226364 -30.49995117 24.07405853 -30.95068359 22.96318054 C-31.35109863 21.96236954 -31.75151367 20.96155853 -32.1640625 19.93041992 C-32.51936035 19.04883713 -32.8746582 18.16725433 -33.24072266 17.25895691 C-34 15 -34 15 -34 12 C-29.80434096 10.28214033 -25.60511442 8.57343391 -21.40234375 6.87304688 C-19.97359538 6.2935092 -18.54584784 5.71149769 -17.11914062 5.12695312 C-15.06639557 4.28641406 -13.01019737 3.4548827 -10.953125 2.625 C-10.31755676 2.36251465 -9.68198853 2.1000293 -9.02716064 1.82958984 C-5.72760729 0.50910427 -3.62806178 0 0 0 Z " fill="#FB8666" transform="translate(182,76)"/>
<path d="M0 0 C0.8804599 0.00022659 1.7609198 0.00045319 2.6680603 0.00068665 C4.06527817 0.02391243 4.06527817 0.02391243 5.49072266 0.04760742 C6.45885895 0.05185226 7.42699524 0.05609711 8.42446899 0.06047058 C11.50152988 0.07719661 14.57792388 0.11483786 17.65478516 0.15307617 C19.74722358 0.16813085 21.83967232 0.18181788 23.93212891 0.1940918 C29.04826933 0.22708029 34.16391436 0.27882089 39.27978516 0.34057617 C39.30733336 2.9239853 39.32688105 5.50708702 39.34228516 8.09057617 C39.35066406 8.80084961 39.35904297 9.51112305 39.36767578 10.24291992 C39.39631803 16.71606848 38.82413915 22.8083282 38.27978516 29.34057617 C22.43978516 29.34057617 6.59978516 29.34057617 -9.72021484 29.34057617 C-10.05021484 20.76057617 -10.38021484 12.18057617 -10.72021484 3.34057617 C-3.97021484 -0.03442383 -3.97021484 -0.03442383 0 0 Z " fill="#95D4F9" transform="translate(275.72021484375,264.659423828125)"/>
<path d="M0 0 C12.21 0 24.42 0 37 0 C37 9.84548013 36.91786293 19.26612025 36 29 C35.67 32.63 35.34 36.26 35 40 C24.44 40 13.88 40 3 40 C1.74040205 36.22120616 1.65649512 32.55805462 1.46484375 28.61328125 C1.40737976 27.52678284 1.40737976 27.52678284 1.34875488 26.41833496 C1.20709488 23.71662598 1.07273338 21.01453829 0.9375 18.3125 C0.628125 12.269375 0.31875 6.22625 0 0 Z " fill="#BEF4FB" transform="translate(271,357)"/>
<path d="M0 0 C6.23084034 2.14756939 9.65332182 6.52361753 13 12 C14.71110067 17.13330201 14.93801466 22.32897171 13.12890625 27.48046875 C9.91817237 33.76508556 5.81179065 37.72940312 -1 40 C-8.52105236 40.89213684 -14.0442521 40.46164061 -20.15625 35.7890625 C-24.56738348 31.50876772 -26.83388465 26.45020142 -27.25 20.3125 C-27.12645164 14.69104943 -26.01991112 10.13970135 -22.08984375 5.9765625 C-14.9312412 -0.38952688 -9.61321216 -0.91805649 0 0 Z " fill="#3F4F74" transform="translate(346,461)"/>
<path d="M0 0 C5.17605317 2.74227983 8.67553796 6.91613375 11.08203125 12.1875 C12.56738528 18.93910924 12.17184665 23.99650251 9.1796875 30.1953125 C6.18516084 34.69125004 1.84342119 37.62120335 -3.23046875 39.3125 C-10.91900983 40.01145828 -16.76253539 39.13523645 -22.91796875 34.125 C-27.37296207 28.70676488 -29.9828907 23.69265771 -29.61328125 16.546875 C-28.42265548 9.59750828 -24.85097851 5.29369441 -19.23046875 1.3125 C-13.77824815 -2.06098726 -6.006831 -1.85149257 0 0 Z " fill="#3F4F74" transform="translate(214.23046875,461.6875)"/>
<path d="M0 0 C0.83272934 0.00222061 1.66545868 0.00444122 2.52342224 0.00672913 C3.46432205 0.00680466 4.40522186 0.00688019 5.37463379 0.00695801 C6.39754013 0.01211929 7.42044647 0.01728058 8.47434998 0.02259827 C9.51614914 0.02401321 10.5579483 0.02542816 11.63131714 0.02688599 C14.97355467 0.03250372 18.31572629 0.04505922 21.65794373 0.05775452 C23.91770839 0.06276723 26.17747409 0.06733053 28.4372406 0.07142639 C33.98999763 0.08247891 39.54271597 0.09923428 45.09544373 0.12025452 C42.32242631 10.07049349 38.70532699 19.32199993 35.09544373 29.12025452 C20.90544373 29.12025452 6.71544373 29.12025452 -7.90455627 29.12025452 C-5.49194565 14.6445908 -5.49194565 14.6445908 -4.34205627 8.43275452 C-4.21637268 7.73214905 -4.09068909 7.03154358 -3.9611969 6.30970764 C-2.82532764 0.17839242 -2.82532764 0.17839242 0 0 Z " fill="#95D4F9" transform="translate(381.90455627441406,264.87974548339844)"/>
<path d="M0 0 C5.06357368 0.85970803 9.55349227 2.85877968 14.21337891 4.95410156 C15.14105072 5.36106262 16.06872253 5.76802368 17.02450562 6.18731689 C20.03711545 7.51142863 23.04310067 8.84991995 26.04931641 10.18847656 C28.15040322 11.11468661 30.25196987 12.03980888 32.35400391 12.96386719 C36.51132753 14.79259768 40.66650506 16.62606076 44.81982422 18.46386719 C51.67180884 21.49332265 58.54521629 24.47117707 65.42431641 27.43847656 C67.75786857 28.44838774 70.09119364 29.45882377 72.42431641 30.46972656 C73.0289975 30.73170837 73.63367859 30.99369019 74.25668335 31.26361084 C82.97155478 35.04069772 91.68068947 38.83100103 100.39074707 42.61917114 C107.28905216 45.61925793 114.18775276 48.61843517 121.08642578 51.61767578 C124.38994121 53.05390051 127.69333745 54.49039854 130.99658203 55.92724609 C133.66718713 57.08883669 136.33815035 58.24959605 139.00952148 59.40942383 C141.40850217 60.45125682 143.80680458 61.49465337 146.2043457 62.53979492 C152.10730708 65.10463982 158.02925926 67.60747983 163.99072266 70.03222656 C165.20920898 70.53230225 166.42769531 71.03237793 167.68310547 71.54760742 C169.9908594 72.49141473 172.30379879 73.42267619 174.62255859 74.33911133 C175.63608398 74.75475342 176.64960938 75.17039551 177.69384766 75.59863281 C178.58692627 75.95578369 179.48000488 76.31293457 180.40014648 76.6809082 C182.42431641 77.93847656 182.42431641 77.93847656 183.2199707 80.0847168 C183.32112183 81.00232788 183.32112183 81.00232788 183.42431641 81.93847656 C175.00377051 79.33965764 167.00044066 75.86929514 158.92431641 72.37597656 C157.38596941 71.71371744 155.84755631 71.05161183 154.30908203 70.38964844 C141.61459118 64.91890884 128.95986655 59.35772082 116.30908203 53.78683472 C103.84167069 48.29704233 91.34524805 42.88217428 78.81445312 37.53878784 C64.79351731 31.55732928 50.83505107 25.43694993 36.89111328 19.27832031 C32.88682279 17.51076332 28.87773273 15.7545164 24.86523438 14.00567627 C23.18418977 13.27070265 21.50492413 12.5316511 19.82714844 11.78924561 C17.24942875 10.65005171 14.66579368 9.52535421 12.08056641 8.40332031 C10.90947327 7.88047203 10.90947327 7.88047203 9.71472168 7.34706116 C5.43945567 5.51043618 2.17507854 4.5200963 -2.57568359 4.93847656 C-10.52818763 22.82538385 -18.3859665 40.7494186 -26.07568359 58.75097656 C-33.12569624 75.2538188 -40.23830372 91.72865024 -47.38818359 108.18847656 C-47.88248871 109.32646698 -48.37679382 110.4644574 -48.88607788 111.63693237 C-50.81443648 116.07602538 -52.74302675 120.51501757 -54.67207336 124.95381165 C-58.41692987 133.57103942 -62.15454028 142.19138572 -65.88818359 150.81347656 C-71.10595965 162.86010174 -76.33690626 174.90097035 -81.57568359 186.93847656 C-82.56568359 186.93847656 -83.55568359 186.93847656 -84.57568359 186.93847656 C-83.96788546 183.41591606 -83.03901435 180.34906115 -81.63647461 177.06445312 C-81.23348648 176.11448959 -80.83049835 175.16452606 -80.41529846 174.18577576 C-79.97451462 173.16057327 -79.53373077 172.13537079 -79.07958984 171.07910156 C-78.61934921 169.99883194 -78.15910858 168.91856232 -77.68492126 167.80555725 C-76.17432794 164.26437683 -74.65649045 160.72635587 -73.13818359 157.18847656 C-72.35148243 155.34852264 -71.56478284 153.50856801 -70.77842903 151.66846561 C-63.57200949 134.8090996 -56.2568299 117.99863939 -48.85839844 101.22265625 C-44.27064978 90.81810997 -39.73503079 80.39336267 -35.26318359 69.93847656 C-34.97205688 69.25870758 -34.68093018 68.5789386 -34.38098145 67.87857056 C-30.74278584 59.38297546 -27.12517277 50.87880508 -23.52058411 42.36889648 C-21.60268927 37.84476298 -19.67898284 33.32311228 -17.75454712 28.80175781 C-16.80633345 26.56983769 -15.8608113 24.33677207 -14.9180603 22.10253906 C-13.59696555 18.97209784 -12.2669731 15.8455765 -10.93505859 12.71972656 C-10.34072777 11.30197937 -10.34072777 11.30197937 -9.73439026 9.85559082 C-9.17581581 8.55180481 -9.17581581 8.55180481 -8.60595703 7.22167969 C-8.28479919 6.46342896 -7.96364136 5.70517822 -7.63275146 4.9239502 C-5.54860616 1.0093335 -4.56378015 -0.07852469 0 0 Z " fill="#F5904D" transform="translate(241.57568359375,11.0615234375)"/>
<path d="M0 0 C13.86 0 27.72 0 42 0 C41 10 41 10 37 29 C24.13 29 11.26 29 -2 29 C-1.855625 25.514375 -1.71125 22.02875 -1.5625 18.4375 C-1.51939697 17.35267334 -1.47629395 16.26784668 -1.43188477 15.15014648 C-1.39377686 14.27430908 -1.35566895 13.39847168 -1.31640625 12.49609375 C-1.27974854 11.61107178 -1.24309082 10.7260498 -1.20532227 9.81420898 C-0.9654877 6.52696404 -0.4661223 3.26285611 0 0 Z " fill="#95D4F9" transform="translate(326,265)"/>
<path d="M0 0 C14.19 0 28.38 0 43 0 C43.495 5.2284375 43.495 5.2284375 44 10.5625 C44.15662109 12.18973999 44.15662109 12.18973999 44.31640625 13.84985352 C44.39761719 14.72569092 44.47882813 15.60152832 44.5625 16.50390625 C44.64628906 17.38892822 44.73007813 18.2739502 44.81640625 19.18579102 C45.03019695 22.46287273 45.02844055 25.71689399 45 29 C39.46411467 29.02464775 33.928261 29.04283496 28.39233398 29.05493164 C26.5075627 29.05997244 24.62279535 29.06680498 22.73803711 29.07543945 C20.03498364 29.08751617 17.33198169 29.09323068 14.62890625 29.09765625 C13.35703209 29.10539818 13.35703209 29.10539818 12.0594635 29.11329651 C10.03928932 29.11349195 8.01922066 29.06206211 6 29 C4.1630876 27.1630876 4.24152918 24.25284632 3.80859375 21.77734375 C3.60806396 20.64288818 3.40753418 19.50843262 3.20092773 18.33959961 C2.94899658 16.88690674 2.69706543 15.43421387 2.4375 13.9375 C1.633125 9.338125 0.82875 4.73875 0 0 Z " fill="#95D4F9" transform="translate(211,265)"/>
<path d="M0 0 C10.23 0 20.46 0 31 0 C32.50593407 4.51780221 33.60867076 8.59132141 34.5078125 13.2265625 C34.70333206 14.23171402 34.70333206 14.23171402 34.90280151 15.25717163 C35.17529569 16.66357932 35.44578589 18.07037665 35.71435547 19.47753906 C36.12534877 21.62682391 36.5446585 23.77437046 36.96484375 25.921875 C37.22966442 27.29417487 37.49400406 28.66656768 37.7578125 30.0390625 C37.9964502 31.27865723 38.23508789 32.51825195 38.48095703 33.79541016 C39 37 39 37 39 41 C30.75 41 22.5 41 14 41 C10.40330344 32.57363631 7.16748504 24.09978598 4.1875 15.4375 C3.78080078 14.27669922 3.37410156 13.11589844 2.95507812 11.91992188 C2.57158203 10.81068359 2.18808594 9.70144531 1.79296875 8.55859375 C1.4477417 7.56142334 1.10251465 6.56425293 0.74682617 5.53686523 C0 3 0 3 0 0 Z " fill="#97D6FB" transform="translate(177,305)"/>
<path d="M0 0 C10.56 0 21.12 0 32 0 C30.70725885 5.81733516 29.4145388 11.13040308 27.3984375 16.66015625 C27.0364476 17.67317055 27.0364476 17.67317055 26.66714478 18.70664978 C25.90813216 20.82711456 25.14172745 22.94481426 24.375 25.0625 C23.85367121 26.5147962 23.3328338 27.96726889 22.8125 29.41992188 C21.54821944 32.94903625 20.2739382 36.47430147 19 40 C10.42 40 1.84 40 -7 40 C-5.875 27.625 -5.875 27.625 -4.58984375 21.58203125 C-4.3487085 20.4319458 -4.10757324 19.28186035 -3.85913086 18.09692383 C-3.55499268 16.68306396 -3.25085449 15.2692041 -2.9375 13.8125 C-1.968125 9.254375 -0.99875 4.69625 0 0 Z " fill="#96D6FA" transform="translate(361,357)"/>
<path d="M0 0 C10.23 0 20.46 0 31 0 C31.33 4.3725 31.66 8.745 32 13.25 C32.15662109 15.27882324 32.15662109 15.27882324 32.31640625 17.34863281 C32.39761719 18.45561523 32.47882813 19.56259766 32.5625 20.703125 C32.64628906 21.81333008 32.73007812 22.92353516 32.81640625 24.06738281 C33.06409037 29.37282939 33 34.68877502 33 40 C24.42 40 15.84 40 7 40 C5.99749767 35.26880277 4.99875111 30.53711901 4.00927734 25.80322266 C3.67191687 24.19469568 3.33242579 22.58661396 2.99072266 20.97900391 C2.49855075 18.66163473 2.01418763 16.34274639 1.53125 14.0234375 C1.30157532 12.95432632 1.30157532 12.95432632 1.06726074 11.86361694 C0.21306032 7.71740569 0 4.31481687 0 0 Z " fill="#BDF2F9" transform="translate(230,357)"/>
<path d="M0 0 C10.23 0 20.46 0 31 0 C30.36532657 5.7120609 29.68991738 11.06616481 28.58984375 16.66015625 C28.45808243 17.33549911 28.32632111 18.01084198 28.19056702 18.70664978 C27.77628552 20.82595179 27.35699635 22.94422477 26.9375 25.0625 C26.65266001 26.51490834 26.36815212 27.96738186 26.08398438 29.41992188 C25.39375959 32.94751387 24.69674411 36.47366516 24 40 C15.42 40 6.84 40 -2 40 C-2 26.5 -2 26.5 -1.5625 20.703125 C-1.48128906 19.59614258 -1.40007812 18.48916016 -1.31640625 17.34863281 C-1.21199219 15.99608398 -1.10757812 14.64353516 -1 13.25 C-0.67 8.8775 -0.34 4.505 0 0 Z " fill="#BDF3FA" transform="translate(319,357)"/>
<path d="M0 0 C12.87 0 25.74 0 39 0 C39.825 4.0425 40.65 8.085 41.5 12.25 C41.76103516 13.51875977 42.02207031 14.78751953 42.29101562 16.09472656 C42.49404297 17.09987305 42.69707031 18.10501953 42.90625 19.140625 C43.11572266 20.16704102 43.32519531 21.19345703 43.54101562 22.25097656 C44 25 44 25 44 29 C32.78 29 21.56 29 10 29 C8.35 24.771875 6.7 20.54375 5 16.1875 C4.47792969 14.8574292 3.95585937 13.5273584 3.41796875 12.15698242 C3.01191406 11.10873291 2.60585937 10.0604834 2.1875 8.98046875 C1.76855469 7.90692139 1.34960938 6.83337402 0.91796875 5.72729492 C0 3 0 3 0 0 Z " fill="#96D4F7" transform="translate(162,265)"/>
<path d="M0 0 C7.92 0 15.84 0 24 0 C25.00250233 4.73119723 26.00124889 9.46288099 26.99072266 14.19677734 C27.32808313 15.80530432 27.66757421 17.41338604 28.00927734 19.02099609 C28.50144925 21.33836527 28.98581237 23.65725361 29.46875 25.9765625 C29.62186646 26.68930328 29.77498291 27.40204407 29.93273926 28.13638306 C30.78693968 32.28259431 31 35.68518313 31 40 C25.39 40 19.78 40 14 40 C12.00205913 34.6263589 10.00833735 29.25117905 8.01855469 23.87451172 C7.3406845 22.04465217 6.66165178 20.21522285 5.98144531 18.38623047 C5.00542049 15.76120743 4.03355089 13.13467888 3.0625 10.5078125 C2.75626709 9.68693146 2.45003418 8.86605042 2.13452148 8.02029419 C0 2.22774341 0 2.22774341 0 0 Z " fill="#96D5FA" transform="translate(195,357)"/>
<path d="M0 0 C15.84 0 31.68 0 48 0 C48 4.62 48 9.24 48 14 C32.16 14 16.32 14 0 14 C0 9.38 0 4.76 0 0 Z " fill="#BBF0F8" transform="translate(266,280)"/>
<path d="M0 0 C0.99 2.31 1.98 4.62 3 7 C-5.43433255 10.98372769 -14.04161899 14.42350122 -22.75 17.75 C-24.79839767 18.53678094 -26.84633726 19.32474653 -28.89427185 20.11273193 C-30.26665006 20.64066888 -31.63917764 21.16821772 -33.01185608 21.69537354 C-39.49754881 24.18684974 -45.96926589 26.7135592 -52.4375 29.25 C-53.90171387 29.82379395 -53.90171387 29.82379395 -55.39550781 30.40917969 C-57.5972121 31.27226069 -59.79872737 32.1358188 -62 33 C-64.9765625 29.3125 -64.9765625 29.3125 -65.1875 26.5 C-62.33237493 20.48921038 -51.29606817 18.04688507 -45.33203125 15.7421875 C-44.33419113 15.35306183 -43.33635101 14.96393616 -42.30827332 14.5630188 C-39.14439571 13.33009798 -35.97850951 12.10243456 -32.8125 10.875 C-30.67499199 10.0433239 -28.53762082 9.21129601 -26.40039062 8.37890625 C-21.69946507 6.54828093 -16.99722938 4.72106649 -12.29377747 2.89694214 C-10.6477496 2.25329132 -9.01225051 1.58246479 -7.38432312 0.89431763 C-4.76739085 -0.0872476 -2.77151534 -0.1583723 0 0 Z " fill="#F18F3E" transform="translate(381,138)"/>
<path d="M0 0 C1.8125 1.75 1.8125 1.75 3 4 C3 6.5625 3 6.5625 2 9 C-2.30058692 12.04449573 -7.20652651 13.8609746 -12.0625 15.828125 C-12.93140869 16.18138855 -13.80031738 16.5346521 -14.69555664 16.89862061 C-16.52685625 17.64055598 -18.35915472 18.38003005 -20.19238281 19.1171875 C-22.9953992 20.24814368 -25.79052782 21.39726891 -28.5859375 22.546875 C-30.36933388 23.26676013 -32.1531737 23.98554788 -33.9375 24.703125 C-34.77095947 25.04885559 -35.60441895 25.39458618 -36.46313477 25.75079346 C-43.85203033 28.67807882 -43.85203033 28.67807882 -48 27 C-50.2095063 24.0539916 -50.0651149 21.57539971 -50 18 C-41.6535199 13.48174391 -32.91256315 10.02596455 -24.08447266 6.58642578 C-21.60504139 5.61719803 -19.13272343 4.63111729 -16.66015625 3.64453125 C-15.07853133 3.02500333 -13.49651375 2.40647668 -11.9140625 1.7890625 C-11.17862213 1.49335358 -10.44318176 1.19764465 -9.68545532 0.89297485 C-6.01745034 -0.51538489 -3.7307022 -1.3388322 0 0 Z " fill="#FA7248" transform="translate(182,53)"/>
<path d="M0 0 C2 3 2 3 2 7 C-5.00562109 9.75984816 -12.01260931 12.51620359 -19.02050781 15.27026367 C-21.39874528 16.20535366 -23.77668171 17.14120969 -26.15429688 18.07788086 C-51.50328391 28.06303857 -51.50328391 28.06303857 -63 32 C-64.2681675 29.64340528 -64.98950985 28.20980297 -65.125 25.5 C-61.96560444 18.47912098 -48.21900531 15.90020129 -41.25 13.25 C-38.4757552 12.19090419 -35.70243949 11.12940383 -32.9296875 10.06640625 C-32.24802521 9.80535599 -31.56636292 9.54430573 -30.86404419 9.27534485 C-26.78369099 7.7062833 -22.73098562 6.08398409 -18.6953125 4.40234375 C-17.78233398 4.02368164 -16.86935547 3.64501953 -15.92871094 3.25488281 C-14.2737825 2.56316702 -12.62304738 1.86129652 -10.97753906 1.14746094 C-4.08083208 -1.72183807 -4.08083208 -1.72183807 0 0 Z " fill="#F18F3E" transform="translate(285,177)"/>
<path d="M0 0 C1.00904375 2.2463236 2.0073602 4.49643937 3 6.75 C3.28617187 7.38421875 3.57234375 8.0184375 3.8671875 8.671875 C5.36006702 12.08417104 6 14.20781917 6 18 C2.08820439 19.67826923 -1.83017624 21.34057804 -5.75 23 C-6.86117188 23.47695312 -7.97234375 23.95390625 -9.1171875 24.4453125 C-10.18710937 24.89648438 -11.25703125 25.34765625 -12.359375 25.8125 C-13.34389648 26.23144531 -14.32841797 26.65039062 -15.34277344 27.08203125 C-18 28 -18 28 -22 28 C-23.0063655 25.56495491 -24.00526413 23.12729136 -25 20.6875 C-25.42925781 19.65206055 -25.42925781 19.65206055 -25.8671875 18.59570312 C-27.08910744 15.58454326 -28 13.28113016 -28 10 C-24.33547148 8.57157089 -20.66927431 7.14752324 -17.00146484 5.72753906 C-15.13939585 5.00558153 -13.27867593 4.28014762 -11.41796875 3.5546875 C-10.25136719 3.10351562 -9.08476562 2.65234375 -7.8828125 2.1875 C-6.80402832 1.76855469 -5.72524414 1.34960938 -4.61376953 0.91796875 C-2 0 -2 0 0 0 Z " fill="#F8FAF8" transform="translate(303,221)"/>
<path d="M0 0 C1.03479213 2.41151557 2.0529372 4.82794469 3.0625 7.25 C3.35705078 7.93191406 3.65160156 8.61382812 3.95507812 9.31640625 C6.02589902 14.33510159 6.02589902 14.33510159 5.91943359 17.06835938 C4.51033973 20.02872863 2.51002122 20.41586407 -0.49609375 21.578125 C-2.16961914 22.23554688 -2.16961914 22.23554688 -3.87695312 22.90625 C-5.05193359 23.3496875 -6.22691406 23.793125 -7.4375 24.25 C-8.60861328 24.70890625 -9.77972656 25.1678125 -10.98632812 25.640625 C-19.64971633 29 -19.64971633 29 -22 29 C-23.03227862 26.39985473 -24.05105152 23.79573631 -25.0625 21.1875 C-25.50432617 20.08051758 -25.50432617 20.08051758 -25.95507812 18.95117188 C-28.11328125 13.33984375 -28.11328125 13.33984375 -27 10 C-24.62329102 8.74145508 -24.62329102 8.74145508 -21.50390625 7.51953125 C-20.38822266 7.07802734 -19.27253906 6.63652344 -18.12304688 6.18164062 C-16.94806641 5.72982422 -15.77308594 5.27800781 -14.5625 4.8125 C-13.39138672 4.34908203 -12.22027344 3.88566406 -11.01367188 3.40820312 C-2.31497377 0 -2.31497377 0 0 0 Z " fill="#F8FAF8" transform="translate(292,193)"/>
<path d="M0 0 C0.89135742 1.67407227 0.89135742 1.67407227 1.60546875 3.81640625 C1.99702148 4.96206055 1.99702148 4.96206055 2.39648438 6.13085938 C2.78803711 7.33452148 2.78803711 7.33452148 3.1875 8.5625 C3.46013672 9.36880859 3.73277344 10.17511719 4.01367188 11.00585938 C4.68637481 13.00036455 5.34456415 14.99975402 6 17 C1.92405075 18.70574463 -2.16178968 20.38637865 -6.25 22.0625 C-7.40886719 22.54783203 -8.56773437 23.03316406 -9.76171875 23.53320312 C-10.87675781 23.98759766 -11.99179688 24.44199219 -13.140625 24.91015625 C-14.68024902 25.54642944 -14.68024902 25.54642944 -16.25097656 26.19555664 C-19.09405935 27.02752447 -20.35086969 27.30226608 -23 26 C-24.28501632 23.28555039 -25.30329 20.76555462 -26.25 17.9375 C-26.518125 17.17888672 -26.78625 16.42027344 -27.0625 15.63867188 C-27.72271967 13.76411958 -28.36325109 11.88265428 -29 10 C-22.73190518 7.05490763 -16.40143717 4.26651705 -10 1.625 C-9.35345459 1.35026855 -8.70690918 1.07553711 -8.04077148 0.79248047 C-3.34704165 -1.11568055 -3.34704165 -1.11568055 0 0 Z " fill="#F9FAF8" transform="translate(255,209)"/>
<path d="M0 0 C0.90105469 0.00902344 1.80210937 0.01804687 2.73046875 0.02734375 C3.41753906 0.03894531 4.10460937 0.05054688 4.8125 0.0625 C5.48307887 1.8527061 6.1488469 3.64471489 6.8125 5.4375 C7.18375 6.43523437 7.555 7.43296875 7.9375 8.4609375 C8.8125 11.0625 8.8125 11.0625 8.8125 13.0625 C8.0390625 13.13726562 7.265625 13.21203125 6.46875 13.2890625 C-0.71477246 14.19589331 -6.29556099 15.4532334 -11.1875 21.0625 C-12.85585529 23.96790283 -14.11632784 26.89126663 -15.1875 30.0625 C-20.42360116 30.37666607 -23.70242303 29.83897622 -28.1875 27.0625 C-29.1875 25.0625 -29.1875 25.0625 -28.65625 22.9609375 C-24.54786388 12.25925429 -18.38585684 6.21516631 -8.1875 1.0625 C-5.17259443 0.05753148 -3.14568308 -0.04085303 0 0 Z " fill="#C6C8FA" transform="translate(160.1875,383.9375)"/>
<path d="M0 0 C13.2 0 26.4 0 40 0 C40.495 6.93 40.495 6.93 41 14 C35.46411467 14.02464775 29.928261 14.04283496 24.39233398 14.05493164 C22.5075627 14.05997244 20.62279535 14.06680498 18.73803711 14.07543945 C16.03498364 14.08751617 13.33198169 14.09323068 10.62890625 14.09765625 C9.35703209 14.10539818 9.35703209 14.10539818 8.0594635 14.11329651 C6.03928932 14.11349195 4.01922066 14.06206211 2 14 C-1.33333333 10.66666667 0.36155076 4.70015992 0 0 Z " fill="#BBF0F8" transform="translate(215,280)"/>
<path d="M0 0 C2.06880783 4.39621663 3.0844892 7.11018782 3 12 C-1.01906677 13.67505712 -5.0392802 15.34732319 -9.06054688 17.01708984 C-10.42642 17.58469606 -11.79198514 18.15304402 -13.15722656 18.72216797 C-15.12743567 19.54332812 -17.09876226 20.36175344 -19.0703125 21.1796875 C-20.25383301 21.67194824 -21.43735352 22.16420898 -22.65673828 22.67138672 C-31.03270856 26 -31.03270856 26 -36 26 C-36.69937202 24.5682384 -37.38412718 23.12932968 -38.0625 21.6875 C-38.44535156 20.88699219 -38.82820313 20.08648437 -39.22265625 19.26171875 C-40 17 -40 17 -39 14 C-36.53491211 12.69726562 -36.53491211 12.69726562 -33.27734375 11.40625 C-32.09849609 10.93316406 -30.91964844 10.46007812 -29.70507812 9.97265625 C-28.44929274 9.48158159 -27.19343279 8.99069756 -25.9375 8.5 C-24.1131543 7.77103516 -24.1131543 7.77103516 -22.25195312 7.02734375 C-18.84072139 5.66877398 -15.42150408 4.33243553 -12 3 C-11.17000488 2.66613281 -10.34000977 2.33226562 -9.48486328 1.98828125 C-6.04462216 0.62909487 -3.76307868 0 0 0 Z " fill="#FFFAFB" transform="translate(383,180)"/>
<path d="M0 0 C13.2 0 26.4 0 40 0 C39 10 39 10 38 14 C25.13 14 12.26 14 -1 14 C-1 6 -1 6 0 0 Z " fill="#BBF1F9" transform="translate(325,280)"/>
<path d="M0 0 C4.95 0 9.9 0 15 0 C16.50593407 4.51780221 17.60867076 8.59132141 18.5078125 13.2265625 C18.63815887 13.89666351 18.76850525 14.56676453 18.90280151 15.25717163 C19.17529569 16.66357932 19.44578589 18.07037665 19.71435547 19.47753906 C20.12534877 21.62682391 20.5446585 23.77437046 20.96484375 25.921875 C21.22966442 27.29417487 21.49400406 28.66656768 21.7578125 30.0390625 C21.9964502 31.27865723 22.23508789 32.51825195 22.48095703 33.79541016 C23 37 23 37 23 41 C19.37 41 15.74 41 12 41 C10.28744024 35.48352315 8.57853545 29.96593273 6.87304688 24.44726562 C6.29202647 22.56902294 5.70999858 20.69109162 5.12695312 18.81347656 C4.29033214 16.11864639 3.45730993 13.4227268 2.625 10.7265625 C2.36251465 9.88380768 2.1000293 9.04105286 1.82958984 8.17276001 C0 2.22774341 0 2.22774341 0 0 Z " fill="#BCF2F9" transform="translate(193,305)"/>
<path d="M0 0 C2.52023664 2.19504481 2.9508747 3.41622069 3.23046875 6.73876953 C2.96387718 10.51115315 1.94512661 13.05753554 0.375 16.4921875 C-0.16640625 17.69101563 -0.7078125 18.88984375 -1.265625 20.125 C-1.84350711 21.37511231 -2.42163519 22.62511094 -3 23.875 C-3.57915292 25.14797034 -4.15728857 26.42140401 -4.734375 27.6953125 C-6.14631356 30.80157732 -7.56844485 33.90273906 -9 37 C-11.51659977 33.93065278 -13.00815521 30.924083 -14.48046875 27.24609375 C-14.92197266 26.14458984 -15.36347656 25.04308594 -15.81835938 23.90820312 C-16.49608398 22.19020508 -16.49608398 22.19020508 -17.1875 20.4375 C-17.65091797 19.28830078 -18.11433594 18.13910156 -18.59179688 16.95507812 C-22 8.38688559 -22 8.38688559 -22 5 C-19.65331612 3.95803611 -17.30024695 2.94183447 -14.9375 1.9375 C-14.28072266 1.64294922 -13.62394531 1.34839844 -12.94726562 1.04492188 C-8.27044664 -0.91335208 -5.06626704 -1.27923243 0 0 Z " fill="#FDA988" transform="translate(172,88)"/>
<path d="M0 0 C11.22 0 22.44 0 34 0 C33.67 4.95 33.34 9.9 33 15 C22.44 15 11.88 15 1 15 C0 12 0 12 0 0 Z " fill="#96D5F9" transform="translate(273,382)"/>
<path d="M0 0 C0.33 0 0.66 0 1 0 C0.24468437 8.45953502 -1.38919374 16.66582849 -3 25 C-11.58 25 -20.16 25 -29 25 C-29 13 -29 13 -28 10 C-27.35450195 9.98541748 -26.70900391 9.97083496 -26.04394531 9.95581055 C-23.11203427 9.8812213 -20.18124835 9.7845976 -17.25 9.6875 C-16.23421875 9.66494141 -15.2184375 9.64238281 -14.171875 9.61914062 C-13.1921875 9.58369141 -12.2125 9.54824219 -11.203125 9.51171875 C-9.85202637 9.47244263 -9.85202637 9.47244263 -8.47363281 9.43237305 C-5.5325381 8.91829106 -4.15217586 8.04696503 -2 6 C-0.71991738 2.91222828 -0.71991738 2.91222828 0 0 Z " fill="#95D4F9" transform="translate(346,372)"/>
<path d="M0 0 C1.20427373 2.48180012 2.22540913 4.86479775 3.1875 7.4375 C3.46013672 8.13166016 3.73277344 8.82582031 4.01367188 9.54101562 C6 14.68356438 6 14.68356438 6 17 C1.49774209 17.12361526 -3.00352849 17.21434063 -7.50708008 17.2746582 C-9.03883061 17.29980078 -10.57046117 17.33392047 -12.10180664 17.37719727 C-14.30384884 17.43786942 -16.50430574 17.46620891 -18.70703125 17.48828125 C-19.39150833 17.51408768 -20.07598541 17.5398941 -20.78120422 17.56648254 C-22.72192383 17.56762695 -22.72192383 17.56762695 -26 17 C-28.38632618 14.14123426 -29 12.72988343 -29 9 C-24.73506243 7.29731905 -20.46220749 5.61548555 -16.1875 3.9375 C-14.36508789 3.20950195 -14.36508789 3.20950195 -12.50585938 2.46679688 C-11.34248047 2.01240234 -10.17910156 1.55800781 -8.98046875 1.08984375 C-7.90692139 0.66566162 -6.83337402 0.24147949 -5.72729492 -0.19555664 C-3 -1 -3 -1 0 0 Z " fill="#F9F9F7" transform="translate(266,237)"/>
<path d="M0 0 C13.86 0.495 13.86 0.495 28 1 C29 4 29 4 29 16 C20.42 16 11.84 16 3 16 C2.01 10.72 1.02 5.44 0 0 Z " fill="#95D5F9" transform="translate(234,381)"/>
<path d="M0 0 C1.281026 0.00030212 2.562052 0.00060425 3.88189697 0.00091553 C5.27511214 0.02134061 6.66832094 0.04220457 8.06152344 0.06347656 C9.49069426 0.07094025 10.91987533 0.07663258 12.34906006 0.08062744 C16.10417106 0.09587406 19.85865969 0.1351464 23.61352539 0.17944336 C27.44766827 0.22041769 31.28191206 0.238643 35.11621094 0.25878906 C42.63472333 0.30164254 50.15272356 0.36988089 57.67089844 0.45410156 C57.67089844 0.78410156 57.67089844 1.11410156 57.67089844 1.45410156 C41.17089844 1.78410156 24.67089844 2.11410156 7.67089844 2.45410156 C7.67089844 6.41410156 7.67089844 10.37410156 7.67089844 14.45410156 C5.4219589 14.56233929 3.17152268 14.63979801 0.92089844 14.70410156 C-0.95855469 14.77371094 -0.95855469 14.77371094 -2.87597656 14.84472656 C-6.32910156 14.45410156 -6.32910156 14.45410156 -8.75097656 12.62597656 C-10.32910156 10.45410156 -10.32910156 10.45410156 -10.82910156 7.45410156 C-9.76985104 1.09859845 -5.92949041 -0.0466889 0 0 Z " fill="#D5DFF1" transform="translate(65.3291015625,200.5458984375)"/>
<path d="M0 0 C0.99 2.31 1.98 4.62 3 7 C1.1875 7.6875 1.1875 7.6875 -1 8 C-1.433125 7.505 -1.86625 7.01 -2.3125 6.5 C-3.99660971 4.64740824 -3.99660971 4.64740824 -6.98364258 5.17211914 C-11.88234149 6.00147068 -16.36226213 7.89248419 -20.94921875 9.74609375 C-21.88425735 10.11726822 -22.81929596 10.48844269 -23.78266907 10.87086487 C-26.75385078 12.05260161 -29.72058477 13.24509824 -32.6875 14.4375 C-34.69309537 15.23568971 -36.69895227 16.03322262 -38.70507812 16.83007812 C-40.62002514 17.59316437 -42.53474663 18.35681685 -44.44921875 19.12109375 C-45.34718674 19.47948837 -46.24515472 19.837883 -47.17033386 20.20713806 C-48.00833023 20.54411209 -48.8463266 20.88108612 -49.7097168 21.22827148 C-50.4436113 21.52281723 -51.1775058 21.81736298 -51.93363953 22.12083435 C-52.61553848 22.41095901 -53.29743744 22.70108368 -54 23 C-54.73301834 23.29177628 -55.46603668 23.58355255 -56.2212677 23.88417053 C-56.80824936 24.25239426 -57.39523102 24.62061798 -58 25 C-58.81870185 28.56206661 -58.81870185 28.56206661 -59 32 C-60.98 32.495 -60.98 32.495 -63 33 C-64.42897367 30.73045358 -64.99019296 29.19614074 -65.125 26.5 C-62.4218291 20.49295355 -51.22522116 18.01950748 -45.33203125 15.7421875 C-44.33419113 15.35306183 -43.33635101 14.96393616 -42.30827332 14.5630188 C-39.14439571 13.33009798 -35.97850951 12.10243456 -32.8125 10.875 C-30.67499199 10.0433239 -28.53762082 9.21129601 -26.40039062 8.37890625 C-21.69946507 6.54828093 -16.99722938 4.72106649 -12.29377747 2.89694214 C-10.6477496 2.25329132 -9.01225051 1.58246479 -7.38432312 0.89431763 C-4.76739085 -0.0872476 -2.77151534 -0.1583723 0 0 Z " fill="#D6673E" transform="translate(381,138)"/>
<path d="M0 0 C-1 3 -1 3 -3.12841797 4.12817383 C-4.07346191 4.48419678 -5.01850586 4.84021973 -5.9921875 5.20703125 C-7.07387207 5.62227051 -8.15555664 6.03750977 -9.27001953 6.46533203 C-11.05448486 7.13218018 -11.05448486 7.13218018 -12.875 7.8125 C-14.75162697 8.53092913 -16.62823163 9.24941915 -18.5039978 9.97009277 C-19.84287782 10.48416262 -21.18226844 10.99690428 -22.52212524 11.50842285 C-30.30251487 14.48266828 -38.03388335 17.57847388 -45.76470947 20.67880249 C-48.10789085 21.61814125 -50.4520378 22.55503454 -52.79638672 23.49145508 C-54.24190246 24.06972303 -55.68737964 24.6480874 -57.1328125 25.2265625 C-57.79927795 25.4927388 -58.46574341 25.7589151 -59.15240479 26.03315735 C-62.61775513 27.42264314 -62.61775513 27.42264314 -66 29 C-66.33 27.68 -66.66 26.36 -67 25 C-59.07283918 21.28520068 -51.03743351 17.97244822 -42.875 14.8125 C-40.41496134 13.85648632 -37.95520107 12.89980805 -35.49609375 11.94140625 C-34.87680496 11.70026093 -34.25751617 11.4591156 -33.61946106 11.21066284 C-29.30314369 9.52434543 -25.00940699 7.78781753 -20.72265625 6.02734375 C-19.58006348 5.56030029 -18.4374707 5.09325684 -17.26025391 4.61206055 C-15.08102772 3.71875394 -12.90478871 2.81811746 -10.73193359 1.90942383 C-9.75691895 1.51134521 -8.7819043 1.1132666 -7.77734375 0.703125 C-6.92390381 0.34895508 -6.07046387 -0.00521484 -5.19116211 -0.37011719 C-3 -1 -3 -1 0 0 Z " fill="#B22152" transform="translate(389,156)"/>
<path d="M0 0 C2 3 2 3 2 7 C0.68 7.33 -0.64 7.66 -2 8 C-2.66 6.68 -3.32 5.36 -4 4 C-8.72644566 4.54471777 -12.7657133 5.48377113 -17.17578125 7.2578125 C-18.32578613 7.71551025 -19.47579102 8.17320801 -20.66064453 8.64477539 C-21.86575684 9.13324951 -23.07086914 9.62172363 -24.3125 10.125 C-25.56334188 10.62631247 -26.8144836 11.12687741 -28.06591797 11.62670898 C-30.55196374 12.61990627 -33.0367918 13.61595349 -35.52099609 14.61376953 C-38.59520781 15.83870807 -41.67702497 17.03703482 -44.76953125 18.21484375 C-45.60250732 18.53243652 -46.4354834 18.8500293 -47.29370117 19.17724609 C-48.80942211 19.75280418 -50.32644998 20.32493625 -51.8449707 20.89306641 C-54.72789686 21.99516569 -56.79124334 22.79124334 -59 25 C-59.16681109 28.08347826 -59.16681109 28.08347826 -59 31 C-60.98 31.495 -60.98 31.495 -63 32 C-64.42897367 29.73045358 -64.99019296 28.19614074 -65.125 25.5 C-61.96560444 18.47912098 -48.21900531 15.90020129 -41.25 13.25 C-38.4757552 12.19090419 -35.70243949 11.12940383 -32.9296875 10.06640625 C-32.24802521 9.80535599 -31.56636292 9.54430573 -30.86404419 9.27534485 C-26.78369099 7.7062833 -22.73098562 6.08398409 -18.6953125 4.40234375 C-17.78233398 4.02368164 -16.86935547 3.64501953 -15.92871094 3.25488281 C-14.2737825 2.56316702 -12.62304738 1.86129652 -10.97753906 1.14746094 C-4.08083208 -1.72183807 -4.08083208 -1.72183807 0 0 Z " fill="#D7673E" transform="translate(285,177)"/>
<path d="M0 0 C3.3 0 6.6 0 10 0 C10.67425364 3.04016151 11.33960434 6.08182541 12 9.125 C12.19078125 9.9809375 12.3815625 10.836875 12.578125 11.71875 C13.54920333 16.22732794 14.24359575 20.35645604 14 25 C10.81264018 24.73438668 9.32482313 24.31467241 7 22.0625 C4.32690399 17.96932174 3.36921912 13.90722591 2.25 9.1875 C1.91935547 7.86202148 1.91935547 7.86202148 1.58203125 6.50976562 C1.04318615 4.34267118 0.52001225 2.1716905 0 0 Z " fill="#BCF2F9" transform="translate(209,357)"/>
<path d="M0 0 C5.77378925 0.4811491 9.95859836 2.18467181 15 5 C14.921875 6.796875 14.921875 6.796875 14 9 C11.72179778 10.30012587 9.66485077 11.29188107 7.25 12.25 C6.62867188 12.518125 6.00734375 12.78625 5.3671875 13.0625 C1.7907838 14.54135047 -1.13067951 15.32490477 -5 15 C-5.78287497 8.89357521 -3.10825151 4.99540421 0 0 Z " fill="#FFFEFC" transform="translate(269,90)"/>
<path d="M0 0 C2.82369239 4.23553859 2 6.12706254 2 12 C-3.28 12 -8.56 12 -14 12 C-15.42041821 9.15916359 -15.31452272 7.14522722 -15 4 C-11.83680841 -1.7238705 -5.71583426 -0.35477592 0 0 Z " fill="#BDF3FA" transform="translate(203,281)"/>
<path d="M0 0 C1.9375 1.0625 1.9375 1.0625 3 3 C3.3593084 6.35354507 3.61516686 8.84656214 2 11.875 C-1.17513268 13.66101213 -4.37638596 14.10590939 -8 14 C-9.9375 13 -9.9375 13 -11 11 C-12 7.5625 -12 7.5625 -12 4 C-8.52615054 -0.23375402 -5.30038993 -0.68708758 0 0 Z " fill="#352F40" transform="translate(359,217)"/>
<path d="M0 0 C1.8125 1.75 1.8125 1.75 3 4 C3 6.5625 3 6.5625 2 9 C-0.63002642 10.93791421 -2.90113556 11.96704519 -6 13 C-6.18175781 12.28972656 -6.36351562 11.57945313 -6.55078125 10.84765625 C-6.92783203 9.46900391 -6.92783203 9.46900391 -7.3125 8.0625 C-7.67794922 6.68771484 -7.67794922 6.68771484 -8.05078125 5.28515625 C-8.36402344 4.53105469 -8.67726562 3.77695312 -9 3 C-9.99 2.67 -10.98 2.34 -12 2 C-10.75579353 1.4654744 -9.50429064 0.94791389 -8.25 0.4375 C-7.55390625 0.14746094 -6.8578125 -0.14257812 -6.140625 -0.44140625 C-3.65580006 -1.0898186 -2.38373867 -0.90209138 0 0 Z " fill="#F55948" transform="translate(182,53)"/>
<path d="M0 0 C1.81672901 3.63345802 3.41871914 7.26242706 5 11 C-0.19160105 14.0183727 -0.19160105 14.0183727 -3.75 13.9375 C-6 13 -6 13 -7.3125 11.25 C-8.08405427 8.72491331 -8.14589484 6.62610707 -8 4 C-5.36 2.68 -2.72 1.36 0 0 Z " fill="#F65948" transform="translate(140,67)"/>
<path d="M0 0 C6.34507042 -0.35915493 6.34507042 -0.35915493 8.9375 1.0625 C10.6140629 4.11976176 10.36528977 6.5906288 10 10 C8.5 11.9375 8.5 11.9375 7 13 C6.34 12.67 5.68 12.34 5 12 C5.20625 11.2575 5.4125 10.515 5.625 9.75 C6.05654815 6.58531356 5.80859535 5.58370764 4 3 C1.96682993 1.26574227 1.96682993 1.26574227 0 0 Z " fill="#494F73" transform="translate(352,217)"/>
</svg>
